<svg version="1.1" id="Layer_1" xmlns="http://www.w3.org/2000/svg" xmlns:xlink="http://www.w3.org/1999/xlink" x="0px" y="0px"
	 width="100%" viewBox="0 0 693 658" enable-background="new 0 0 693 658" xml:space="preserve">
<path fill="#000000" opacity="1.000000" stroke="none" 
	d="
M25.000008,659.000000 
	C17.011303,659.000000 9.022608,659.000000 1.000000,659.000000 
	C1.000000,563.979126 1.000000,468.958221 1.391706,373.218689 
	C2.149616,373.560059 2.686103,374.593475 2.856246,375.684082 
	C5.083827,389.962402 6.401916,404.445343 9.621615,418.493439 
	C17.008692,450.724579 29.281771,481.171570 46.026604,509.725250 
	C52.013844,519.934937 58.498646,529.852783 65.325974,540.818787 
	C71.067917,531.760315 75.914604,523.692627 81.222366,515.940613 
	C83.461845,512.669739 83.780296,510.404724 81.496574,506.857086 
	C69.187355,487.734985 59.275398,467.369568 51.322849,446.069702 
	C39.404720,414.148529 33.821587,381.000580 33.010845,347.053345 
	C32.348274,319.310181 35.956226,291.972717 42.719677,265.090240 
	C52.250637,227.207916 68.821236,192.565506 91.668022,160.932983 
	C109.275909,136.553986 130.239380,115.411377 154.151352,97.197151 
	C177.645737,79.301018 203.395447,65.544472 230.859695,54.718426 
	C264.458344,41.474285 299.296783,34.108387 335.267517,33.291595 
	C354.267700,32.860157 373.493164,33.789261 392.312042,36.347065 
	C410.976990,38.883945 429.653717,42.982929 447.621155,48.635075 
	C478.208618,58.257195 506.615326,72.806633 532.773987,91.568230 
	C555.181641,107.639511 575.461426,126.049355 592.753784,147.484283 
	C613.629089,173.360458 630.031189,201.906662 641.590027,233.196747 
	C655.537598,270.953583 662.516296,309.756378 661.124023,350.117920 
	C660.444275,369.822937 658.635559,389.244720 654.277283,408.513397 
	C646.491211,442.937592 633.808960,475.278809 614.321716,504.753662 
	C611.115051,509.603882 610.773010,512.893066 614.298706,517.623901 
	C619.683472,524.849182 624.245239,532.687805 629.487732,540.777283 
	C631.078491,538.423767 632.162964,536.818726 633.247925,535.214050 
	C655.284058,502.621460 672.047119,467.589813 682.236450,429.502625 
	C687.229004,410.840698 690.917480,391.962280 692.220947,372.651154 
	C692.283020,371.731628 693.383240,370.882111 694.000000,370.000000 
	C694.000000,466.333344 694.000000,562.666687 694.000000,659.000000 
	C685.915100,659.000000 677.926208,659.000000 669.495361,658.632324 
	C662.457642,646.701660 655.808105,635.169006 649.278137,623.569092 
	C637.403625,602.474854 625.660583,581.306458 613.746399,560.234802 
	C605.244080,545.197449 596.650024,530.209839 587.905823,515.312195 
	C582.842163,506.685150 577.400208,498.280182 572.105286,489.449768 
	C571.731812,488.399353 571.381409,487.674469 571.018677,486.976624 
	C571.006348,487.003632 571.062073,486.982971 571.033813,486.633118 
	C570.015564,484.836334 569.025635,483.389435 568.020020,481.970398 
	C568.004333,481.998291 568.066650,481.983490 568.034668,481.671082 
	C567.679443,480.886810 567.356079,480.414978 567.019836,479.972351 
	C567.006958,480.001495 567.067627,479.981659 567.034546,479.634583 
	C566.012756,477.841431 565.024109,476.395355 564.019043,474.974548 
	C564.002686,474.999817 564.059143,474.978943 564.027100,474.612122 
	C562.340637,471.485199 560.686218,468.725128 559.015869,465.982635 
	C559.000000,466.000214 559.043152,465.980194 559.020264,465.621094 
	C557.674377,463.158691 556.351318,461.055389 555.015381,458.977386 
	C555.002502,459.002716 555.057495,458.987946 555.025024,458.676270 
	C554.671814,457.895172 554.351074,457.425751 554.016846,456.979919 
	C554.003357,457.003510 554.053528,456.982269 554.027954,456.617401 
	C552.371460,453.462402 550.740540,450.672302 549.075928,447.939331 
	C549.042297,447.996460 549.142883,447.909973 549.093628,447.568115 
	C548.009888,445.513489 546.975403,443.800751 545.882568,441.738586 
	C537.914062,427.828491 530.003845,414.267792 522.078796,400.398499 
	C521.388123,399.376373 520.712280,398.662842 520.018433,397.973389 
	C520.000366,397.997498 520.057251,397.977844 520.026001,397.742859 
	C520.028564,397.143860 519.874634,396.897430 519.517822,396.690247 
	C519.502686,396.611908 519.426941,396.471375 519.337402,396.163208 
	C518.174438,394.225128 517.101074,392.595215 516.014709,390.984100 
	C516.001770,391.002869 516.042603,390.981842 516.022095,390.613983 
	C514.345886,387.483124 512.690186,384.720123 511.018738,381.979858 
	C511.002960,382.002533 511.052795,381.978516 511.030457,381.619507 
	C509.682861,379.157684 508.357574,377.054871 507.017578,374.976746 
	C507.002869,375.001404 507.057861,374.984802 507.028076,374.671875 
	C506.675903,373.890747 506.353546,373.422546 506.017487,372.978790 
	C506.003784,373.003235 506.055359,372.981293 506.026245,372.634064 
	C505.009857,370.841583 504.022614,369.396301 503.019592,367.976440 
	C503.003784,368.001831 503.059113,367.979004 503.033813,367.619141 
	C501.682465,365.162018 500.356476,363.064789 499.015625,360.984436 
	C499.000732,361.001373 499.040833,360.980164 499.018982,360.620026 
	C497.677734,358.155457 496.358276,356.051025 495.021332,353.973175 
	C495.003815,353.999756 495.063507,353.977631 495.044006,353.655090 
	C494.593964,352.447327 494.163391,351.562103 493.694489,350.584137 
	C493.656128,350.491394 493.546082,350.323486 493.479675,350.034058 
	C492.622284,348.810425 491.831299,347.876221 491.022461,346.969757 
	C491.004547,346.997528 491.068115,346.979645 491.049133,346.665588 
	C490.697296,345.888977 490.364380,345.426392 490.016724,344.983154 
	C490.001953,345.002502 490.045227,344.979675 490.023834,344.629944 
	C489.011993,342.836823 488.021576,341.393463 487.016663,339.975250 
	C487.002197,340.000397 487.058075,339.984802 487.026550,339.674286 
	C486.671112,338.899200 486.347137,338.434662 486.011749,337.986053 
	C486.000305,338.002014 486.037170,337.988159 486.011475,337.677399 
	C485.710022,336.865082 485.434235,336.363525 485.130188,335.940918 
	C485.101929,336.019867 485.178406,335.867645 485.136627,335.548523 
	C484.407074,334.470642 483.719269,333.711914 483.016357,332.976990 
	C483.001251,333.000763 483.055176,332.984314 483.026123,332.671448 
	C482.674500,331.891663 482.351929,331.424744 482.016541,330.980865 
	C482.003693,331.003906 482.051910,330.982208 482.023010,330.635071 
	C481.006500,328.848022 480.018860,327.408051 479.015015,325.983398 
	C478.998779,325.998688 479.039337,325.980957 479.015137,325.669678 
	C478.669739,324.894897 478.348572,324.431396 478.014191,323.984924 
	C478.000977,324.001984 478.039948,323.982788 478.015442,323.645081 
	C477.366669,322.188751 476.742371,321.070068 476.100281,319.941772 
	C476.082520,319.932129 476.066071,319.895264 475.982330,319.655090 
	C475.605835,319.259735 475.313049,319.104614 475.012329,318.976440 
	C475.004333,319.003418 475.055786,318.980560 475.029510,318.630707 
	C474.017334,316.831268 473.031433,315.381683 472.028046,313.963440 
	C472.010559,313.994751 472.080383,313.978241 472.050781,313.665222 
	C471.693207,312.884918 471.365173,312.417633 471.021179,311.976562 
	C471.005188,312.002747 471.060974,311.977020 471.036804,311.627991 
	C470.020813,309.843445 469.028961,308.407928 468.018555,306.985596 
	C468.000000,306.998779 468.035950,306.975708 468.013672,306.666840 
	C467.669434,305.896545 467.347504,305.435089 467.012787,304.987427 
	C467.000000,305.001221 467.033295,304.983002 467.015137,304.634918 
	C466.009033,302.844086 465.021118,301.401337 464.016724,299.979431 
	C464.000275,300.000244 464.050537,299.982727 464.022400,299.670654 
	C463.671478,298.894165 463.348755,298.429749 463.013550,297.984070 
	C463.001099,298.002869 463.043365,297.987091 463.018677,297.677246 
	C462.725525,296.862732 462.457092,296.358093 462.121155,295.852356 
	C462.053619,295.851288 462.181763,295.808594 462.139557,295.476013 
	C461.075592,293.748840 460.053833,292.354248 459.017120,290.981079 
	C459.002167,291.002502 459.049622,290.980286 459.024445,290.631226 
	C458.013611,288.833496 457.027985,287.384796 456.025208,285.966248 
	C456.008057,285.996399 456.075043,285.978516 456.049561,285.664368 
	C455.690765,284.888947 455.357452,284.427704 455.012329,283.984558 
	C455.000519,284.002655 455.041290,283.988098 455.015381,283.676514 
	C454.707764,282.865173 454.426025,282.365387 454.098938,281.935120 
	C454.053619,282.004608 454.173157,281.889435 454.132568,281.590881 
	C453.750671,280.847412 453.409363,280.402527 453.038147,279.974030 
	C453.008209,279.990387 453.052521,279.938477 453.005188,279.616638 
	C452.300964,278.219666 451.644104,277.144501 450.929962,275.718445 
	C444.946777,264.964081 439.049835,254.544006 433.088654,244.160812 
	C422.039368,224.915131 410.973999,205.678604 399.874969,186.461548 
	C389.719879,168.878784 379.415619,151.381439 369.358551,133.742996 
	C362.054199,120.932343 355.045807,107.952965 347.547119,94.401268 
	C345.727966,97.317703 344.351166,99.363083 343.134247,101.499512 
	C311.285706,157.413284 279.443787,213.330826 247.625031,269.261566 
	C237.975021,286.224243 228.396942,303.227844 218.785950,320.212708 
	C210.897720,334.153015 203.009506,348.093323 195.001053,362.218750 
	C194.880798,362.403931 194.802292,362.838440 194.813766,362.912720 
	C194.825241,362.986969 194.834076,362.837463 194.544388,363.002319 
	C193.441544,364.728577 192.628387,366.290009 191.882080,367.906677 
	C191.948914,367.961914 191.822327,367.856842 191.525909,368.029968 
	C188.303619,373.597839 185.377747,378.992615 182.418335,384.452576 
	C182.384827,384.517731 182.271896,384.611115 182.010086,384.752869 
	C181.137024,386.197418 180.525787,387.500183 179.613419,388.983276 
	C163.383972,417.008362 147.383423,444.812195 131.553741,472.712982 
	C121.633820,490.197449 112.135185,507.921844 102.141472,525.363220 
	C93.914490,539.721313 85.102165,553.743103 76.806824,568.063110 
	C71.283539,577.597839 66.345253,587.469971 60.904793,597.054626 
	C54.789169,607.828735 48.403233,618.449402 41.913475,629.394165 
	C38.942642,634.548401 36.193241,639.445251 33.400757,644.413940 
	C33.357681,644.485779 33.247169,644.611633 32.977020,644.760498 
	C31.738415,646.847168 30.769958,648.784912 29.764032,650.757080 
	C29.726564,650.791565 29.689688,650.886414 29.422409,651.067505 
	C27.770092,653.832336 26.385052,656.416199 25.000008,659.000000 
z"/>
<path fill="#E23F4B" opacity="1.000000" stroke="none" 
	d="
M42.134895,629.136780 
	C48.403233,618.449402 54.789169,607.828735 60.904793,597.054626 
	C66.345253,587.469971 71.283539,577.597839 76.806824,568.063110 
	C85.102165,553.743103 93.914490,539.721313 102.141472,525.363220 
	C112.135185,507.921844 121.633820,490.197449 131.553741,472.712982 
	C147.383423,444.812195 163.383972,417.008362 179.782654,389.199310 
	C180.925964,387.693726 181.598938,386.152435 182.271896,384.611115 
	C182.271896,384.611115 182.384827,384.517731 182.778961,384.557129 
	C186.056168,379.016602 188.939240,373.436737 191.822327,367.856842 
	C191.822327,367.856842 191.948914,367.961914 192.226685,367.841736 
	C193.280991,366.093536 194.057526,364.465515 194.834076,362.837463 
	C194.834076,362.837463 194.825241,362.986969 195.015839,362.923950 
	C195.315628,362.786255 195.424805,362.711578 195.533966,362.636902 
	C195.396408,362.435791 195.258850,362.234711 195.121307,362.033600 
	C203.009506,348.093323 210.897720,334.153015 218.785950,320.212708 
	C228.396942,303.227844 237.975021,286.224243 247.625031,269.261566 
	C279.443787,213.330826 311.285706,157.413284 343.134247,101.499512 
	C344.351166,99.363083 345.727966,97.317703 347.547119,94.401268 
	C355.045807,107.952965 362.054199,120.932343 369.358551,133.742996 
	C379.415619,151.381439 389.719879,168.878784 399.874969,186.461548 
	C410.973999,205.678604 422.039368,224.915131 433.088654,244.160812 
	C439.049835,254.544006 444.946777,264.964081 450.674805,275.871399 
	C451.335449,277.563019 452.194000,278.750763 453.052521,279.938477 
	C453.052521,279.938477 453.008209,279.990387 453.048401,280.286072 
	C453.450104,281.017639 453.811615,281.453522 454.173157,281.889435 
	C454.173157,281.889435 454.053619,282.004608 454.066101,282.252869 
	C454.399506,282.996796 454.720398,283.492432 455.041290,283.988098 
	C455.041290,283.988098 455.000519,284.002655 455.013580,284.295319 
	C455.376099,285.051483 455.725586,285.515015 456.075043,285.978516 
	C456.075043,285.978516 456.008057,285.996399 456.030823,286.314819 
	C457.052277,288.082245 458.050934,289.531250 459.049622,290.980286 
	C459.049622,290.980286 459.002167,291.002502 459.001770,291.356384 
	C460.061493,293.076416 461.121613,294.442505 462.181763,295.808594 
	C462.181763,295.808594 462.053619,295.851288 462.070251,296.169983 
	C462.405731,296.988159 462.724548,297.487610 463.043365,297.987091 
	C463.043365,297.987091 463.001099,298.002869 463.013794,298.293518 
	C463.367828,299.050323 463.709167,299.516541 464.050537,299.982727 
	C464.050537,299.982727 464.000275,300.000244 463.998627,300.336487 
	C465.009064,302.109528 466.021179,303.546265 467.033295,304.983002 
	C467.033295,304.983002 467.000000,305.001221 467.008606,305.295654 
	C467.356812,306.052002 467.696381,306.513855 468.035950,306.975708 
	C468.035950,306.975708 468.000000,306.998779 467.997437,307.342133 
	C469.016907,309.115997 470.038940,310.546509 471.060974,311.977020 
	C471.060974,311.977020 471.005188,312.002747 471.022369,312.288635 
	C471.386475,313.042450 471.733429,313.510345 472.080383,313.978241 
	C472.080383,313.978241 472.010559,313.994751 472.010071,314.322998 
	C473.024994,316.094330 474.040405,317.537445 475.055786,318.980560 
	C475.055786,318.980560 475.004333,319.003418 475.106567,319.211884 
	C475.494568,319.578644 475.780304,319.736969 476.066071,319.895264 
	C476.066071,319.895264 476.082520,319.932129 476.070251,320.294373 
	C476.718597,321.765320 477.379272,322.874054 478.039948,323.982788 
	C478.039948,323.982788 478.000977,324.001984 478.012756,324.292664 
	C478.362793,325.049225 478.701080,325.515076 479.039337,325.980957 
	C479.039337,325.980957 478.998779,325.998688 479.020691,326.329987 
	C480.045685,328.101593 481.048798,329.541901 482.051910,330.982208 
	C482.051910,330.982208 482.003693,331.003906 482.018616,331.290527 
	C482.374084,332.046173 482.714630,332.515228 483.055176,332.984314 
	C483.055176,332.984314 483.001251,333.000763 483.021637,333.313660 
	C483.754150,334.373596 484.466278,335.120636 485.178406,335.867645 
	C485.178406,335.867645 485.101929,336.019867 485.091156,336.258179 
	C485.399323,336.993744 485.718231,337.490936 486.037170,337.988159 
	C486.037170,337.988159 486.000305,338.002014 486.013611,338.294800 
	C486.370636,339.053314 486.714355,339.519043 487.058075,339.984802 
	C487.058075,339.984802 487.002197,340.000397 487.025513,340.322937 
	C488.047607,342.090210 489.046417,343.534943 490.045227,344.979675 
	C490.045227,344.979675 490.001953,345.002502 490.015991,345.293579 
	C490.376068,346.049622 490.722107,346.514618 491.068115,346.979645 
	C491.068115,346.979645 491.004547,346.997528 491.024323,347.325226 
	C491.878082,348.543121 492.712097,349.433289 493.546082,350.323486 
	C493.546082,350.323486 493.656128,350.491394 493.468597,350.881042 
	C493.875214,352.173004 494.469360,353.075317 495.063507,353.977631 
	C495.063507,353.977631 495.003815,353.999756 495.001343,354.340210 
	C496.346161,356.780487 497.693512,358.880310 499.040833,360.980164 
	C499.040833,360.980164 499.000732,361.001373 498.999207,361.352539 
	C500.351501,363.795471 501.705292,365.887238 503.059113,367.979004 
	C503.059113,367.979004 503.003784,368.001831 503.003174,368.334869 
	C504.020203,370.105713 505.037781,371.543488 506.055359,372.981293 
	C506.055359,372.981293 506.003784,373.003235 506.017700,373.289368 
	C506.373688,374.045258 506.715759,374.515045 507.057861,374.984802 
	C507.057861,374.984802 507.002869,375.001404 507.003204,375.346130 
	C508.353271,377.786713 509.703033,379.882629 511.052795,381.978516 
	C511.052795,381.978516 511.002960,382.002533 511.000793,382.351776 
	C512.679932,385.461304 514.361267,388.221558 516.042603,390.981842 
	C516.042603,390.981842 516.001770,391.002869 516.027954,391.340515 
	C517.178345,393.275909 518.302673,394.873627 519.426941,396.471375 
	C519.426941,396.471375 519.502686,396.611908 519.414307,396.939606 
	C519.569702,397.504150 519.813477,397.740997 520.057251,397.977844 
	C520.057251,397.977844 520.000366,397.997498 520.019653,398.290649 
	C520.723816,399.291565 521.408752,399.999329 522.093628,400.707123 
	C530.003845,414.267792 537.914062,427.828491 545.629395,441.910828 
	C546.670654,444.258362 547.906738,446.084167 549.142883,447.909973 
	C549.142883,447.909973 549.042297,447.996460 549.041809,448.318878 
	C550.712036,451.421631 552.382812,454.201965 554.053528,456.982269 
	C554.053528,456.982269 554.003357,457.003510 554.018433,457.290466 
	C554.374817,458.047607 554.716125,458.517792 555.057495,458.987946 
	C555.057495,458.987946 555.002502,459.002716 555.002930,459.343842 
	C556.349915,461.783386 557.696533,463.881775 559.043152,465.980194 
	C559.043152,465.980194 559.000000,466.000214 558.995728,466.353821 
	C560.680664,469.464569 562.369873,472.221771 564.059143,474.978943 
	C564.059143,474.978943 564.002686,474.999817 564.026489,475.322632 
	C565.056091,477.090851 566.061890,478.536255 567.067627,479.981659 
	C567.067627,479.981659 567.006958,480.001495 567.024841,480.283905 
	C567.384033,481.038696 567.725342,481.511108 568.066650,481.983490 
	C568.066650,481.983490 568.004333,481.998291 568.027710,482.319092 
	C569.054688,484.087555 570.058411,485.535248 571.062073,486.982971 
	C571.062073,486.982971 571.006348,487.003632 571.004883,487.318115 
	C571.378357,488.346802 571.753418,489.061066 572.128418,489.775299 
	C577.400208,498.280182 582.842163,506.685150 587.905823,515.312195 
	C596.650024,530.209839 605.244080,545.197449 613.746399,560.234802 
	C625.660583,581.306458 637.403625,602.474854 649.278137,623.569092 
	C655.808105,635.169006 662.457642,646.701660 669.026672,658.632324 
	C668.250000,659.000000 667.500000,659.000000 666.085449,658.698120 
	C663.612488,658.264648 661.804138,658.019409 659.995728,658.018311 
	C621.418091,657.994019 582.840332,657.946289 544.263184,658.081970 
	C540.823792,658.094055 538.667053,657.107727 537.058777,654.164917 
	C534.522095,649.523315 531.948120,644.889282 529.113403,640.427673 
	C526.882812,636.916870 524.235107,633.671143 521.740479,630.270020 
	C521.708374,630.232361 521.671082,630.140686 521.792542,629.775879 
	C519.603271,624.912292 517.377380,620.366333 514.922485,615.947571 
	C514.303894,614.834106 512.952454,614.127747 511.638489,613.047607 
	C503.762726,599.871216 496.136169,586.910583 488.621918,573.885071 
	C478.068298,555.590942 467.598114,537.248718 457.343262,518.736816 
	C456.333771,516.770935 455.073303,514.995178 453.834534,513.188965 
	C453.856262,513.158447 453.781891,513.149292 453.857361,512.767700 
	C453.630768,511.291168 453.536560,510.078461 452.993713,509.119781 
	C448.695374,501.528961 444.400726,493.932892 439.900665,486.461426 
	C438.520020,484.169159 436.505005,482.258972 434.834595,480.142029 
	C434.888763,480.110199 434.790649,480.163330 434.869720,479.782288 
	C430.593231,471.471741 426.245331,463.537933 421.836426,455.638153 
	C421.730743,455.448730 420.944641,455.639008 420.434814,455.580872 
	C420.393768,455.509552 420.295197,455.377747 420.506805,455.073151 
	C419.791321,453.573822 418.864227,452.379089 417.633728,451.008789 
	C413.556396,444.196747 409.782440,437.560242 406.274231,430.754333 
	C405.182678,428.619629 403.825317,426.654358 402.418091,424.607422 
	C402.368195,424.525787 402.291626,424.350311 402.508453,424.018555 
	C401.308472,421.680084 399.891663,419.673401 398.428101,417.592865 
	C398.381409,417.519012 398.283539,417.374146 398.493683,417.058472 
	C397.740875,415.536011 396.777924,414.329254 395.872314,413.062439 
	C395.929626,413.002380 395.850311,413.148285 395.902405,412.763123 
	C391.430908,404.437012 386.910248,396.494354 382.353210,388.572632 
	C382.289642,388.462158 381.768829,388.614746 381.424103,388.574677 
	C381.386810,388.504822 381.283051,388.385101 381.498474,388.048645 
	C380.295135,385.677643 378.876373,383.643127 377.442322,381.544342 
	C377.427032,381.480103 377.335449,381.384918 377.536224,381.039642 
	C375.313232,376.977631 372.889465,373.260864 370.454407,369.487183 
	C370.443115,369.430267 370.338501,369.379944 370.541199,369.039551 
	C368.414581,365.201202 366.085266,361.703308 363.861816,358.193512 
	C363.967712,358.181641 363.756653,358.181152 363.846313,357.801788 
	C362.893829,356.018585 361.851715,354.614777 360.861511,353.176483 
	C360.913422,353.142029 360.789642,353.156525 360.862213,352.773621 
	C359.392029,349.138519 358.002991,345.801788 356.271332,342.653534 
	C353.528595,337.667114 350.556488,332.806824 347.681427,327.893158 
	C347.053864,327.885254 346.426270,327.877350 345.798706,327.869476 
	C344.769196,330.698944 343.739655,333.528442 342.667786,336.440857 
	C342.625458,336.523743 342.526306,336.681305 342.191467,336.531616 
	C341.232025,337.899628 340.607422,339.417267 339.910217,341.282074 
	C318.919434,377.929382 298.034332,414.248627 277.067810,450.520905 
	C267.829468,466.503357 258.425781,482.390259 248.949570,498.057556 
	C247.880600,499.540100 246.959213,501.285614 246.018616,503.016174 
	C245.999390,503.001221 246.040466,503.025787 245.722809,503.148254 
	C244.614243,504.859436 243.823334,506.448181 243.016205,508.018463 
	C243.000000,508.000000 243.045792,508.018219 242.773209,508.163513 
	C242.347031,508.888062 242.193420,509.467316 242.020782,510.023315 
	C242.001755,510.000061 242.058350,510.020264 241.778885,510.175659 
	C241.386337,510.937531 241.273254,511.544037 241.160187,512.119873 
	C241.160187,512.089294 241.178116,512.160461 240.813873,512.138367 
	C239.976746,513.091553 239.503860,514.066772 239.016693,515.019836 
	C239.002411,514.997620 239.051285,515.017944 238.732635,515.148926 
	C237.289001,517.540344 236.164017,519.800781 235.023804,522.031067 
	C235.008606,522.000916 235.072556,522.022583 234.750122,522.151978 
	C233.295532,524.533752 232.163361,526.786133 231.015762,529.018921 
	C231.000336,528.999451 231.047745,529.015015 230.769806,529.173584 
	C230.386917,529.939148 230.281982,530.546143 230.130585,531.169556 
	C230.084137,531.185852 230.185638,531.177795 229.821960,531.149048 
	C228.981140,532.093201 228.504028,533.065979 228.013901,534.018555 
	C228.000900,533.998291 228.046204,534.015076 227.725494,534.146240 
	C226.281036,536.529602 225.157272,538.781677 224.017059,541.016907 
	C224.000610,541.000000 224.042725,541.021790 223.723648,541.146973 
	C219.949219,547.531311 216.493851,553.790466 213.021240,560.024048 
	C213.004013,559.998413 213.060760,560.022705 212.732285,560.150513 
	C211.603577,561.901978 210.803345,563.525696 209.860840,565.452881 
	C208.423309,567.825195 207.128082,569.893982 205.607162,572.170349 
	C205.328827,572.967529 205.276184,573.557129 205.142853,574.127014 
	C205.062195,574.107300 205.205856,574.190613 204.859344,574.235413 
	C202.350067,578.200623 200.187286,582.121033 198.013611,586.018799 
	C198.002701,585.996094 198.050232,586.012939 197.724426,586.138184 
	C196.607773,587.853638 195.816910,589.443848 195.013306,591.016235 
	C195.000549,590.998352 195.041672,591.014343 194.720062,591.143433 
	C193.276337,593.532532 192.154236,595.792542 191.019440,598.024902 
	C191.006760,597.997253 191.064163,598.017517 190.736740,598.140259 
	C189.615982,599.854004 188.822632,601.445007 188.014664,603.017822 
	C188.000046,602.999695 188.044510,603.014404 187.771393,603.159424 
	C187.341766,603.884827 187.185257,604.465271 187.016449,605.020874 
	C187.004120,604.996155 187.055786,605.015869 186.729370,605.139160 
	C185.277908,607.520508 184.152863,609.778564 183.015076,612.016602 
	C183.002319,611.996582 183.045929,612.015991 182.723709,612.141235 
	C181.502716,614.304565 180.603928,616.342590 179.636169,618.421021 
	C179.567200,618.461426 179.418137,618.519287 179.069305,618.471558 
	C177.824081,620.293884 176.927704,622.163940 176.016220,624.016235 
	C176.001114,623.998474 176.042252,624.021179 175.716461,624.142334 
	C174.270020,626.523438 173.149399,628.783325 172.016083,631.019897 
	C172.003387,630.996521 172.052719,631.016418 171.731049,631.134277 
	C170.244522,633.810669 169.079666,636.369202 167.862030,639.267578 
	C167.096939,640.506775 166.297638,641.350952 165.686844,642.314697 
	C162.389801,647.516907 159.139481,652.748657 155.412949,657.973267 
	C112.777107,657.976257 70.601349,657.976257 28.420288,657.976257 
	C28.953457,654.998413 29.321573,652.942444 29.689690,650.886414 
	C29.689688,650.886414 29.726564,650.791565 30.110065,650.743042 
	C31.411432,648.666870 32.329300,646.639282 33.247169,644.611633 
	C33.247169,644.611633 33.357681,644.485779 33.758747,644.533936 
	C36.195755,641.438965 38.398949,638.387939 40.201412,635.116089 
	C41.193802,633.314697 41.512470,631.142029 42.134895,629.136780 
z"/>
<path fill="#FDFDFD" opacity="1.000000" stroke="none" 
	d="
M694.000000,369.531342 
	C693.383240,370.882111 692.283020,371.731628 692.220947,372.651154 
	C690.917480,391.962280 687.229004,410.840698 682.236450,429.502625 
	C672.047119,467.589813 655.284058,502.621460 633.247925,535.214050 
	C632.162964,536.818726 631.078491,538.423767 629.487732,540.777283 
	C624.245239,532.687805 619.683472,524.849182 614.298706,517.623901 
	C610.773010,512.893066 611.115051,509.603882 614.321716,504.753662 
	C633.808960,475.278809 646.491211,442.937592 654.277283,408.513397 
	C658.635559,389.244720 660.444275,369.822937 661.124023,350.117920 
	C662.516296,309.756378 655.537598,270.953583 641.590027,233.196747 
	C630.031189,201.906662 613.629089,173.360458 592.753784,147.484283 
	C575.461426,126.049355 555.181641,107.639511 532.773987,91.568230 
	C506.615326,72.806633 478.208618,58.257195 447.621155,48.635075 
	C429.653717,42.982929 410.976990,38.883945 392.312042,36.347065 
	C373.493164,33.789261 354.267700,32.860157 335.267517,33.291595 
	C299.296783,34.108387 264.458344,41.474285 230.859695,54.718426 
	C203.395447,65.544472 177.645737,79.301018 154.151352,97.197151 
	C130.239380,115.411377 109.275909,136.553986 91.668022,160.932983 
	C68.821236,192.565506 52.250637,227.207916 42.719677,265.090240 
	C35.956226,291.972717 32.348274,319.310181 33.010845,347.053345 
	C33.821587,381.000580 39.404720,414.148529 51.322849,446.069702 
	C59.275398,467.369568 69.187355,487.734985 81.496574,506.857086 
	C83.780296,510.404724 83.461845,512.669739 81.222366,515.940613 
	C75.914604,523.692627 71.067917,531.760315 65.325974,540.818787 
	C58.498646,529.852783 52.013844,519.934937 46.026604,509.725250 
	C29.281771,481.171570 17.008692,450.724579 9.621615,418.493439 
	C6.401916,404.445343 5.083827,389.962402 2.856246,375.684082 
	C2.686103,374.593475 2.149616,373.560059 1.391706,372.750031 
	C1.000000,352.979095 1.000000,332.958221 1.380275,312.752563 
	C2.100048,311.852844 2.629321,311.168671 2.751240,310.418335 
	C5.649765,292.579407 7.521713,274.505676 11.590566,256.940308 
	C18.196898,228.420563 29.542936,201.552399 43.969517,176.058685 
	C66.382233,136.452408 95.729996,102.723312 131.351196,74.524368 
	C160.819275,51.196438 193.647842,33.743526 228.995377,21.159674 
	C255.326401,11.785728 282.355988,5.169362 310.322998,2.856766 
	C311.260071,2.779277 312.109619,1.642829 313.000000,0.999995 
	C335.020905,1.000000 357.041779,1.000000 379.258667,1.382961 
	C380.836029,2.171255 382.192474,2.765995 383.602722,2.951235 
	C392.876587,4.169385 402.221649,4.949924 411.433014,6.520941 
	C443.955933,12.067798 474.946136,22.329128 504.520630,37.014477 
	C535.413513,52.354465 563.556641,71.623283 588.435974,95.482613 
	C614.135498,120.128479 635.538879,148.070450 652.354858,179.581909 
	C674.646179,221.353821 689.090759,265.356567 692.167236,312.826263 
	C692.238037,313.919159 693.365479,314.943604 694.000000,316.000000 
	C694.000000,317.714355 694.000000,319.428711 693.697144,321.450226 
	C693.596130,322.171600 693.798096,322.585785 694.000000,323.000000 
	C694.000000,338.354218 694.000000,353.708466 694.000000,369.531342 
z"/>
<path fill="#FFFFFF" opacity="1.000000" stroke="none" 
	d="
M497.000000,659.000000 
	C397.312439,659.000000 297.624878,659.000000 197.217667,658.694214 
	C199.734451,652.810364 202.969742,647.231628 206.207489,641.654419 
	C232.905380,595.665955 259.594666,549.672485 286.304871,503.691193 
	C305.549500,470.561890 324.817383,437.446106 344.099182,404.338440 
	C344.900482,402.962585 345.948792,401.730621 347.316040,399.827484 
	C348.796997,402.095703 350.009216,403.782410 351.048798,405.569550 
	C373.345154,443.898071 395.641418,482.226715 417.897614,520.578552 
	C441.086121,560.537048 464.267212,600.500000 487.359528,640.514099 
	C490.830017,646.527771 493.799011,652.830811 497.000000,659.000000 
z"/>
<path fill="#000000" opacity="1.000000" stroke="none" 
	d="
M312.531342,0.999995 
	C312.109619,1.642829 311.260071,2.779277 310.322998,2.856766 
	C282.355988,5.169362 255.326401,11.785728 228.995377,21.159674 
	C193.647842,33.743526 160.819275,51.196438 131.351196,74.524368 
	C95.729996,102.723312 66.382233,136.452408 43.969517,176.058685 
	C29.542936,201.552399 18.196898,228.420563 11.590566,256.940308 
	C7.521713,274.505676 5.649765,292.579407 2.751240,310.418335 
	C2.629321,311.168671 2.100048,311.852844 1.380275,312.283936 
	C1.000000,208.406158 1.000000,104.812309 1.000000,1.000000 
	C104.687462,1.000000 208.375076,1.000000 312.531342,0.999995 
z"/>
<path fill="#000000" opacity="1.000000" stroke="none" 
	d="
M694.000000,315.531342 
	C693.365479,314.943604 692.238037,313.919159 692.167236,312.826263 
	C689.090759,265.356567 674.646179,221.353821 652.354858,179.581909 
	C635.538879,148.070450 614.135498,120.128479 588.435974,95.482613 
	C563.556641,71.623283 535.413513,52.354465 504.520630,37.014477 
	C474.946136,22.329128 443.955933,12.067798 411.433014,6.520941 
	C402.221649,4.949924 392.876587,4.169385 383.602722,2.951235 
	C382.192474,2.765995 380.836029,2.171255 379.727356,1.382961 
	C484.593842,1.000000 589.187683,1.000000 694.000000,1.000000 
	C694.000000,105.687462 694.000000,210.375076 694.000000,315.531342 
z"/>
<path fill="#010101" opacity="1.000000" stroke="none" 
	d="
M497.468628,659.000000 
	C493.799011,652.830811 490.830017,646.527771 487.359528,640.514099 
	C464.267212,600.500000 441.086121,560.537048 417.897614,520.578552 
	C395.641418,482.226715 373.345154,443.898071 351.048798,405.569550 
	C350.009216,403.782410 348.796997,402.095703 347.316040,399.827484 
	C345.948792,401.730621 344.900482,402.962585 344.099182,404.338440 
	C324.817383,437.446106 305.549500,470.561890 286.304871,503.691193 
	C259.594666,549.672485 232.905380,595.665955 206.207489,641.654419 
	C202.969742,647.231628 199.734451,652.810364 196.749008,658.694214 
	C183.645767,659.000000 170.291550,659.000000 156.459366,658.739746 
	C155.945282,658.309753 155.909149,658.139954 155.873032,657.970215 
	C159.139481,652.748657 162.389801,647.516907 165.686844,642.314697 
	C166.297638,641.350952 167.096939,640.506775 168.111969,639.038940 
	C169.627365,635.985840 170.840042,633.501099 172.052719,631.016418 
	C172.052719,631.016418 172.003387,630.996521 172.338928,630.893250 
	C173.797058,628.533752 174.919662,626.277466 176.042267,624.021179 
	C176.042252,624.021179 176.001114,623.998474 176.342377,623.897095 
	C177.595123,622.036926 178.506622,620.278076 179.418121,618.519287 
	C179.418137,618.519287 179.567200,618.461426 179.911484,618.282837 
	C181.185822,616.074768 182.115875,614.045410 183.045929,612.015991 
	C183.045929,612.015991 183.002319,611.996582 183.339859,611.893555 
	C184.803528,609.532288 185.929642,607.274048 187.055786,605.015869 
	C187.055786,605.015869 187.004120,604.996155 187.305710,604.900146 
	C187.753036,604.207581 187.898788,603.611023 188.044525,603.014404 
	C188.044510,603.014404 188.000046,602.999695 188.335953,602.899292 
	C189.469284,601.205078 190.266724,599.611267 191.064163,598.017517 
	C191.064163,598.017517 191.006760,597.997253 191.343140,597.898926 
	C192.800232,595.538452 193.920959,593.276428 195.041687,591.014343 
	C195.041672,591.014343 195.000549,590.998352 195.329285,590.888550 
	C196.455414,589.190125 197.252823,587.601562 198.050232,586.012939 
	C198.050232,586.012939 198.002701,585.996094 198.338959,585.894165 
	C200.852097,581.925049 203.028976,578.057861 205.205856,574.190613 
	C205.205856,574.190613 205.062195,574.107300 205.398682,573.952698 
	C205.767746,573.186340 205.800308,572.574524 205.832855,571.962769 
	C207.128082,569.893982 208.423309,567.825195 210.178772,565.306152 
	C211.446259,563.244873 212.253510,561.633789 213.060760,560.022705 
	C213.060760,560.022705 213.004013,559.998413 213.345032,559.904602 
	C217.138275,553.547791 220.590500,547.284790 224.042725,541.021790 
	C224.042725,541.021790 224.000610,541.000000 224.343201,540.900940 
	C225.805908,538.539612 226.926056,536.277344 228.046204,534.015076 
	C228.046204,534.015076 228.000900,533.998291 228.318207,533.914551 
	C229.152222,532.946411 229.668930,532.062134 230.185638,531.177795 
	C230.185638,531.177795 230.084137,531.185852 230.397644,531.011597 
	C230.823349,530.229919 230.935547,529.622437 231.047760,529.015015 
	C231.047745,529.015015 231.000336,528.999451 231.340668,528.897888 
	C232.811523,526.538391 233.942047,524.280518 235.072556,522.022583 
	C235.072556,522.022583 235.008606,522.000916 235.343262,521.896912 
	C236.802383,519.534607 237.926834,517.276245 239.051285,515.017944 
	C239.051285,515.017944 239.002411,514.997620 239.320572,514.914551 
	C240.151855,513.941162 240.664993,513.050842 241.178131,512.160461 
	C241.178116,512.160461 241.160187,512.089294 241.427841,511.962158 
	C241.816452,511.230072 241.937393,510.625183 242.058350,510.020264 
	C242.058350,510.020264 242.001755,510.000061 242.312134,509.906555 
	C242.763611,509.214783 242.904709,508.616486 243.045807,508.018219 
	C243.045792,508.018219 243.000000,508.000000 243.336121,507.897095 
	C244.461639,506.204742 245.251038,504.615265 246.040466,503.025787 
	C246.040466,503.025787 245.999390,503.001221 246.332825,502.906738 
	C247.476547,501.315002 248.286850,499.817749 249.097137,498.320526 
	C258.425781,482.390259 267.829468,466.503357 277.067810,450.520905 
	C298.034332,414.248627 318.919434,377.929382 340.176392,341.090607 
	C341.185547,339.261780 341.855927,337.971558 342.526306,336.681305 
	C342.526306,336.681305 342.625458,336.523743 342.918427,336.276825 
	C344.412567,334.152374 345.613770,332.274841 346.942963,330.197235 
	C351.716949,338.113007 356.253296,345.634766 360.789642,353.156525 
	C360.789642,353.156525 360.913422,353.142029 360.910645,353.502869 
	C361.857452,355.302826 362.807037,356.742004 363.756653,358.181152 
	C363.756653,358.181152 363.967712,358.181641 363.923859,358.538605 
	C366.032837,362.390350 368.185669,365.885162 370.338501,369.379944 
	C370.338501,369.379944 370.443115,369.430267 370.494873,369.814606 
	C372.809570,373.927582 375.072510,377.656250 377.335449,381.384918 
	C377.335449,381.384918 377.427032,381.480103 377.490784,381.860352 
	C378.797333,384.288788 380.040192,386.336945 381.283051,388.385101 
	C381.283051,388.385101 381.386810,388.504822 381.492889,388.886017 
	C386.349396,397.227570 391.099854,405.187927 395.850311,413.148285 
	C395.850311,413.148285 395.929626,413.002380 395.923279,413.393738 
	C396.705811,414.981476 397.494690,416.177795 398.283539,417.374146 
	C398.283539,417.374146 398.381409,417.519012 398.491211,417.898468 
	C399.831177,420.302063 401.061401,422.326172 402.291626,424.350311 
	C402.291626,424.350311 402.368195,424.525787 402.493042,424.902405 
	C403.748047,427.160614 404.878265,429.042175 406.008484,430.923737 
	C409.782440,437.560242 413.556396,444.196747 417.657959,451.339294 
	C418.755432,453.022827 419.525299,454.200287 420.295197,455.377747 
	C420.295197,455.377747 420.393768,455.509552 420.497864,455.891266 
	C425.331543,464.236420 430.061096,472.199890 434.790649,480.163330 
	C434.790649,480.163330 434.888763,480.110199 434.884827,480.491241 
	C441.181244,491.631287 447.481567,502.390289 453.781891,513.149292 
	C453.781891,513.149292 453.856262,513.158447 453.884888,513.520508 
	C454.973145,515.564026 456.032715,517.245544 457.092285,518.927063 
	C467.598114,537.248718 478.068298,555.590942 488.621918,573.885071 
	C496.136169,586.910583 503.762726,599.871216 511.656616,613.394897 
	C515.206360,619.332886 518.438721,624.736755 521.671082,630.140686 
	C521.671082,630.140686 521.708374,630.232361 521.798096,630.601868 
	C525.302124,636.885498 528.807495,642.749634 532.094788,648.733521 
	C533.918030,652.052307 535.376892,655.571289 537.000000,659.000000 
	C523.979126,659.000000 510.958221,659.000000 497.468628,659.000000 
z"/>
<path fill="#DE1E29" opacity="1.000000" stroke="none" 
	d="
M537.468628,659.000000 
	C535.376892,655.571289 533.918030,652.052307 532.094788,648.733521 
	C528.807495,642.749634 525.302124,636.885498 521.830200,630.639526 
	C524.235107,633.671143 526.882812,636.916870 529.113403,640.427673 
	C531.948120,644.889282 534.522095,649.523315 537.058777,654.164917 
	C538.667053,657.107727 540.823792,658.094055 544.263184,658.081970 
	C582.840332,657.946289 621.418091,657.994019 659.995728,658.018311 
	C661.804138,658.019409 663.612488,658.264648 665.710449,658.698120 
	C623.312439,659.000000 580.624878,659.000000 537.468628,659.000000 
z"/>
<path fill="#DF1D29" opacity="1.000000" stroke="none" 
	d="
M155.412949,657.973267 
	C155.909149,658.139954 155.945282,658.309753 155.990707,658.739746 
	C112.645775,659.000000 69.291542,659.000000 25.468664,659.000000 
	C26.385052,656.416199 27.770092,653.832336 29.422411,651.067505 
	C29.321573,652.942444 28.953457,654.998413 28.420288,657.976257 
	C70.601349,657.976257 112.777107,657.976257 155.412949,657.973267 
z"/>
<path fill="#000000" opacity="1.000000" stroke="none" 
	d="
M694.000000,322.750000 
	C693.798096,322.585785 693.596130,322.171600 693.697144,321.878693 
	C694.000000,322.000000 694.000000,322.500000 694.000000,322.750000 
z"/>
<path fill="#DF242C" opacity="1.000000" stroke="none" 
	d="
M191.525909,368.029968 
	C188.939240,373.436737 186.056168,379.016602 182.812469,384.491943 
	C185.377747,378.992615 188.303619,373.597839 191.525909,368.029968 
z"/>
<path fill="#DF1D29" opacity="1.000000" stroke="none" 
	d="
M41.913471,629.394165 
	C41.512470,631.142029 41.193802,633.314697 40.201412,635.116089 
	C38.398949,638.387939 36.195755,641.438965 33.801826,644.462097 
	C36.193241,639.445251 38.942642,634.548401 41.913471,629.394165 
z"/>
<path fill="#DA262F" opacity="1.000000" stroke="none" 
	d="
M516.022095,390.613983 
	C514.361267,388.221558 512.679932,385.461304 511.016541,382.329102 
	C512.690186,384.720123 514.345886,387.483124 516.022095,390.613983 
z"/>
<path fill="#DB252E" opacity="1.000000" stroke="none" 
	d="
M554.027954,456.617401 
	C552.382812,454.201965 550.712036,451.421631 549.075439,448.261719 
	C550.740540,450.672302 552.371460,453.462402 554.027954,456.617401 
z"/>
<path fill="#DB252E" opacity="1.000000" stroke="none" 
	d="
M564.027100,474.612122 
	C562.369873,472.221771 560.680664,469.464569 559.011597,466.336243 
	C560.686218,468.725128 562.340637,471.485199 564.027100,474.612122 
z"/>
<path fill="#DA262F" opacity="1.000000" stroke="none" 
	d="
M511.030457,381.619507 
	C509.703033,379.882629 508.353271,377.786713 507.017914,375.321442 
	C508.357574,377.054871 509.682861,379.157684 511.030457,381.619507 
z"/>
<path fill="#DA262F" opacity="1.000000" stroke="none" 
	d="
M503.033813,367.619141 
	C501.705292,365.887238 500.351501,363.795471 499.014099,361.335632 
	C500.356476,363.064789 501.682465,365.162018 503.033813,367.619141 
z"/>
<path fill="#DB252E" opacity="1.000000" stroke="none" 
	d="
M559.020264,465.621094 
	C557.696533,463.881775 556.349915,461.783386 555.015808,459.318512 
	C556.351318,461.055389 557.674377,463.158691 559.020264,465.621094 
z"/>
<path fill="#DA262F" opacity="1.000000" stroke="none" 
	d="
M499.018982,360.620026 
	C497.693512,358.880310 496.346161,356.780487 495.018860,354.313599 
	C496.358276,356.051025 497.677734,358.155457 499.018982,360.620026 
z"/>
<path fill="#DB252E" opacity="1.000000" stroke="none" 
	d="
M549.093628,447.568115 
	C547.906738,446.084167 546.670654,444.258362 545.687744,442.260284 
	C546.975403,443.800751 548.009888,445.513489 549.093628,447.568115 
z"/>
<path fill="#DF1D29" opacity="1.000000" stroke="none" 
	d="
M32.977020,644.760498 
	C32.329300,646.639282 31.411432,648.666870 30.147533,650.708618 
	C30.769958,648.784912 31.738415,646.847168 32.977020,644.760498 
z"/>
<path fill="#DA262F" opacity="1.000000" stroke="none" 
	d="
M471.036804,311.627991 
	C470.038940,310.546509 469.016907,309.115997 468.015991,307.328949 
	C469.028961,308.407928 470.020813,309.843445 471.036804,311.627991 
z"/>
<path fill="#DA262F" opacity="1.000000" stroke="none" 
	d="
M475.029510,318.630707 
	C474.040405,317.537445 473.024994,316.094330 472.027588,314.291656 
	C473.031433,315.381683 474.017334,316.831268 475.029510,318.630707 
z"/>
<path fill="#DA262F" opacity="1.000000" stroke="none" 
	d="
M462.139557,295.476013 
	C461.121613,294.442505 460.061493,293.076416 459.016724,291.334961 
	C460.053833,292.354248 461.075592,293.748840 462.139557,295.476013 
z"/>
<path fill="#DA262F" opacity="1.000000" stroke="none" 
	d="
M467.015137,304.634918 
	C466.021179,303.546265 465.009064,302.109528 464.015076,300.315674 
	C465.021118,301.401337 466.009033,302.844086 467.015137,304.634918 
z"/>
<path fill="#DA262F" opacity="1.000000" stroke="none" 
	d="
M519.337402,396.163208 
	C518.302673,394.873627 517.178345,393.275909 516.040894,391.321747 
	C517.101074,392.595215 518.174438,394.225128 519.337402,396.163208 
z"/>
<path fill="#DB252E" opacity="1.000000" stroke="none" 
	d="
M571.033813,486.633118 
	C570.058411,485.535248 569.054688,484.087555 568.043335,482.291199 
	C569.025635,483.389435 570.015564,484.836334 571.033813,486.633118 
z"/>
<path fill="#DF242C" opacity="1.000000" stroke="none" 
	d="
M182.010086,384.752869 
	C181.598938,386.152435 180.925964,387.693726 180.083771,389.019012 
	C180.525787,387.500183 181.137024,386.197418 182.010086,384.752869 
z"/>
<path fill="#DA262F" opacity="1.000000" stroke="none" 
	d="
M459.024445,290.631226 
	C458.050934,289.531250 457.052277,288.082245 456.047974,286.284668 
	C457.027985,287.384796 458.013611,288.833496 459.024445,290.631226 
z"/>
<path fill="#DA262F" opacity="1.000000" stroke="none" 
	d="
M506.026245,372.634064 
	C505.037781,371.543488 504.020203,370.105713 503.018982,368.309479 
	C504.022614,369.396301 505.009857,370.841583 506.026245,372.634064 
z"/>
<path fill="#DA262F" opacity="1.000000" stroke="none" 
	d="
M490.023834,344.629944 
	C489.046417,343.534943 488.047607,342.090210 487.039978,340.297791 
	C488.021576,341.393463 489.011993,342.836823 490.023834,344.629944 
z"/>
<path fill="#DB252E" opacity="1.000000" stroke="none" 
	d="
M567.034546,479.634583 
	C566.061890,478.536255 565.056091,477.090851 564.042847,475.297363 
	C565.024109,476.395355 566.012756,477.841431 567.034546,479.634583 
z"/>
<path fill="#DA262F" opacity="1.000000" stroke="none" 
	d="
M453.005188,279.616638 
	C452.194000,278.750763 451.335449,277.563019 450.732086,276.222351 
	C451.644104,277.144501 452.300964,278.219666 453.005188,279.616638 
z"/>
<path fill="#DA262F" opacity="1.000000" stroke="none" 
	d="
M482.023010,330.635071 
	C481.048798,329.541901 480.045685,328.101593 479.036926,326.314697 
	C480.018860,327.408051 481.006500,328.848022 482.023010,330.635071 
z"/>
<path fill="#DF242C" opacity="1.000000" stroke="none" 
	d="
M194.544373,363.002319 
	C194.057526,364.465515 193.280991,366.093536 192.159836,367.786499 
	C192.628387,366.290009 193.441544,364.728577 194.544373,363.002319 
z"/>
<path fill="#DA262F" opacity="1.000000" stroke="none" 
	d="
M493.479675,350.034058 
	C492.712097,349.433289 491.878082,348.543121 491.042236,347.297455 
	C491.831299,347.876221 492.622284,348.810425 493.479675,350.034058 
z"/>
<path fill="#DA262F" opacity="1.000000" stroke="none" 
	d="
M495.044006,353.655090 
	C494.469360,353.075317 493.875214,352.173004 493.506958,350.973755 
	C494.163391,351.562103 494.593964,352.447327 495.044006,353.655090 
z"/>
<path fill="#DA262F" opacity="1.000000" stroke="none" 
	d="
M522.078796,400.398499 
	C521.408752,399.999329 520.723816,399.291565 520.037720,398.266541 
	C520.712280,398.662842 521.388123,399.376373 522.078796,400.398499 
z"/>
<path fill="#DA262F" opacity="1.000000" stroke="none" 
	d="
M478.015442,323.645081 
	C477.379272,322.874054 476.718597,321.765320 476.088013,320.304016 
	C476.742371,321.070068 477.366669,322.188751 478.015442,323.645081 
z"/>
<path fill="#DA262F" opacity="1.000000" stroke="none" 
	d="
M485.136627,335.548523 
	C484.466278,335.120636 483.754150,334.373596 483.036743,333.289886 
	C483.719269,333.711914 484.407074,334.470642 485.136627,335.548523 
z"/>
<path fill="#DB252E" opacity="1.000000" stroke="none" 
	d="
M572.105286,489.449768 
	C571.753418,489.061066 571.378357,488.346802 571.017212,487.291077 
	C571.381409,487.674469 571.731812,488.399353 572.105286,489.449768 
z"/>
<path fill="#DA262F" opacity="1.000000" stroke="none" 
	d="
M487.026550,339.674286 
	C486.714355,339.519043 486.370636,339.053314 486.025055,338.278809 
	C486.347137,338.434662 486.671112,338.899200 487.026550,339.674286 
z"/>
<path fill="#DA262F" opacity="1.000000" stroke="none" 
	d="
M464.022400,299.670654 
	C463.709167,299.516541 463.367828,299.050323 463.026245,298.274719 
	C463.348755,298.429749 463.671478,298.894165 464.022400,299.670654 
z"/>
<path fill="#DA262F" opacity="1.000000" stroke="none" 
	d="
M486.011475,337.677399 
	C485.718231,337.490936 485.399323,336.993744 485.119415,336.179260 
	C485.434235,336.363525 485.710022,336.865082 486.011475,337.677399 
z"/>
<path fill="#DA262F" opacity="1.000000" stroke="none" 
	d="
M483.026123,332.671448 
	C482.714630,332.515228 482.374084,332.046173 482.031464,331.267456 
	C482.351929,331.424744 482.674500,331.891663 483.026123,332.671448 
z"/>
<path fill="#DA262F" opacity="1.000000" stroke="none" 
	d="
M479.015137,325.669678 
	C478.701080,325.515076 478.362793,325.049225 478.025970,324.275635 
	C478.348572,324.431396 478.669739,324.894897 479.015137,325.669678 
z"/>
<path fill="#DA262F" opacity="1.000000" stroke="none" 
	d="
M454.132568,281.590881 
	C453.811615,281.453522 453.450104,281.017639 453.078308,280.269714 
	C453.409363,280.402527 453.750671,280.847412 454.132568,281.590881 
z"/>
<path fill="#DA262F" opacity="1.000000" stroke="none" 
	d="
M472.050781,313.665222 
	C471.733429,313.510345 471.386475,313.042450 471.038361,312.262451 
	C471.365173,312.417633 471.693207,312.884918 472.050781,313.665222 
z"/>
<path fill="#DA262F" opacity="1.000000" stroke="none" 
	d="
M468.013672,306.666840 
	C467.696381,306.513855 467.356812,306.052002 467.021423,305.281891 
	C467.347504,305.435089 467.669434,305.896545 468.013672,306.666840 
z"/>
<path fill="#DB252E" opacity="1.000000" stroke="none" 
	d="
M555.025024,458.676270 
	C554.716125,458.517792 554.374817,458.047607 554.031860,457.266907 
	C554.351074,457.425751 554.671814,457.895172 555.025024,458.676270 
z"/>
<path fill="#DA262F" opacity="1.000000" stroke="none" 
	d="
M491.049133,346.665588 
	C490.722107,346.514618 490.376068,346.049622 490.030762,345.274231 
	C490.364380,345.426392 490.697296,345.888977 491.049133,346.665588 
z"/>
<path fill="#DA262F" opacity="1.000000" stroke="none" 
	d="
M507.028046,374.671875 
	C506.715759,374.515045 506.373688,374.045258 506.031372,373.264893 
	C506.353546,373.422546 506.675903,373.890747 507.028046,374.671875 
z"/>
<path fill="#DA262F" opacity="1.000000" stroke="none" 
	d="
M456.049561,285.664368 
	C455.725586,285.515015 455.376099,285.051483 455.025391,284.277222 
	C455.357452,284.427704 455.690765,284.888947 456.049561,285.664368 
z"/>
<path fill="#DA262F" opacity="1.000000" stroke="none" 
	d="
M455.015381,283.676514 
	C454.720398,283.492432 454.399506,282.996796 454.111450,282.183380 
	C454.426025,282.365387 454.707764,282.865173 455.015381,283.676514 
z"/>
<path fill="#DB252E" opacity="1.000000" stroke="none" 
	d="
M568.034668,481.671082 
	C567.725342,481.511108 567.384033,481.038696 567.037720,480.254761 
	C567.356079,480.414978 567.679443,480.886810 568.034668,481.671082 
z"/>
<path fill="#DA262F" opacity="1.000000" stroke="none" 
	d="
M463.018677,297.677246 
	C462.724548,297.487610 462.405731,296.988159 462.137787,296.171082 
	C462.457092,296.358093 462.725525,296.862732 463.018677,297.677246 
z"/>
<path fill="#DF242C" opacity="1.000000" stroke="none" 
	d="
M195.001038,362.218750 
	C195.258850,362.234711 195.396408,362.435791 195.533966,362.636902 
	C195.424805,362.711578 195.315628,362.786255 195.004364,362.849670 
	C194.802292,362.838440 194.880798,362.403931 195.001038,362.218750 
z"/>
<path fill="#DA262F" opacity="1.000000" stroke="none" 
	d="
M520.026001,397.742859 
	C519.813477,397.740997 519.569702,397.504150 519.429443,397.017944 
	C519.874634,396.897430 520.028564,397.143860 520.026001,397.742859 
z"/>
<path fill="#DA262F" opacity="1.000000" stroke="none" 
	d="
M475.982330,319.655090 
	C475.780304,319.736969 475.494568,319.578644 475.114563,319.184906 
	C475.313049,319.104614 475.605835,319.259735 475.982330,319.655090 
z"/>
<path fill="#DA252E" opacity="1.000000" stroke="none" 
	d="
M453.857361,512.767700 
	C447.481567,502.390289 441.181244,491.631287 434.830688,480.523071 
	C436.505005,482.258972 438.520020,484.169159 439.900665,486.461426 
	C444.400726,493.932892 448.695374,501.528961 452.993713,509.119781 
	C453.536560,510.078461 453.630768,511.291168 453.857361,512.767700 
z"/>
<path fill="#DB242D" opacity="1.000000" stroke="none" 
	d="
M360.862213,352.773621 
	C356.253296,345.634766 351.716949,338.113007 346.942963,330.197235 
	C345.613770,332.274841 344.412567,334.152374 342.960754,336.193909 
	C343.739655,333.528442 344.769196,330.698944 345.798706,327.869476 
	C346.426270,327.877350 347.053864,327.885254 347.681427,327.893158 
	C350.556488,332.806824 353.528595,337.667114 356.271332,342.653534 
	C358.002991,345.801788 359.392029,349.138519 360.862213,352.773621 
z"/>
<path fill="#DA252E" opacity="1.000000" stroke="none" 
	d="
M434.869720,479.782288 
	C430.061096,472.199890 425.331543,464.236420 420.538940,455.962585 
	C420.944641,455.639008 421.730743,455.448730 421.836426,455.638153 
	C426.245331,463.537933 430.593231,471.471741 434.869720,479.782288 
z"/>
<path fill="#DB242D" opacity="1.000000" stroke="none" 
	d="
M395.902405,412.763123 
	C391.099854,405.187927 386.349396,397.227570 381.530182,388.955872 
	C381.768829,388.614746 382.289642,388.462158 382.353210,388.572632 
	C386.910248,396.494354 391.430908,404.437012 395.902405,412.763123 
z"/>
<path fill="#DB252E" opacity="1.000000" stroke="none" 
	d="
M223.723648,541.146973 
	C220.590500,547.284790 217.138275,553.547791 213.362274,559.930176 
	C216.493851,553.790466 219.949219,547.531311 223.723648,541.146973 
z"/>
<path fill="#DE1E29" opacity="1.000000" stroke="none" 
	d="
M521.792542,629.775879 
	C518.438721,624.736755 515.206360,619.332886 511.955902,613.581665 
	C512.952454,614.127747 514.303894,614.834106 514.922485,615.947571 
	C517.377380,620.366333 519.603271,624.912292 521.792542,629.775879 
z"/>
<path fill="#DD242C" opacity="1.000000" stroke="none" 
	d="
M204.859344,574.235413 
	C203.028976,578.057861 200.852097,581.925049 198.349869,585.916870 
	C200.187286,582.121033 202.350067,578.200623 204.859344,574.235413 
z"/>
<path fill="#DB242D" opacity="1.000000" stroke="none" 
	d="
M377.536224,381.039642 
	C375.072510,377.656250 372.809570,373.927582 370.506165,369.871521 
	C372.889465,373.260864 375.313232,376.977631 377.536224,381.039642 
z"/>
<path fill="#DB242D" opacity="1.000000" stroke="none" 
	d="
M370.541199,369.039551 
	C368.185669,365.885162 366.032837,362.390350 363.817993,358.550476 
	C366.085266,361.703308 368.414581,365.201202 370.541199,369.039551 
z"/>
<path fill="#DD242C" opacity="1.000000" stroke="none" 
	d="
M171.731049,631.134277 
	C170.840042,633.501099 169.627365,635.985840 168.164764,638.699097 
	C169.079666,636.369202 170.244522,633.810669 171.731049,631.134277 
z"/>
<path fill="#DB242D" opacity="1.000000" stroke="none" 
	d="
M402.508453,424.018555 
	C401.061401,422.326172 399.831177,420.302063 398.537903,417.972321 
	C399.891663,419.673401 401.308472,421.680084 402.508453,424.018555 
z"/>
<path fill="#DD242C" opacity="1.000000" stroke="none" 
	d="
M175.716461,624.142334 
	C174.919662,626.277466 173.797058,628.533752 172.351608,630.916626 
	C173.149399,628.783325 174.270020,626.523438 175.716461,624.142334 
z"/>
<path fill="#DB242D" opacity="1.000000" stroke="none" 
	d="
M406.274231,430.754333 
	C404.878265,429.042175 403.748047,427.160614 402.542908,424.984070 
	C403.825317,426.654358 405.182678,428.619629 406.274231,430.754333 
z"/>
<path fill="#DB242D" opacity="1.000000" stroke="none" 
	d="
M381.498474,388.048645 
	C380.040192,386.336945 378.797333,384.288788 377.506042,381.924622 
	C378.876373,383.643127 380.295135,385.677643 381.498474,388.048645 
z"/>
<path fill="#DB252E" opacity="1.000000" stroke="none" 
	d="
M234.750122,522.151978 
	C233.942047,524.280518 232.811523,526.538391 231.356110,528.917358 
	C232.163361,526.786133 233.295532,524.533752 234.750122,522.151978 
z"/>
<path fill="#DB252E" opacity="1.000000" stroke="none" 
	d="
M227.725494,534.146240 
	C226.926056,536.277344 225.805908,538.539612 224.359650,540.917847 
	C225.157272,538.781677 226.281036,536.529602 227.725494,534.146240 
z"/>
<path fill="#DD242C" opacity="1.000000" stroke="none" 
	d="
M186.729355,605.139160 
	C185.929642,607.274048 184.803528,609.532288 183.352615,611.913574 
	C184.152863,609.778564 185.277908,607.520508 186.729355,605.139160 
z"/>
<path fill="#DD242C" opacity="1.000000" stroke="none" 
	d="
M194.720062,591.143433 
	C193.920959,593.276428 192.800232,595.538452 191.355820,597.926514 
	C192.154236,595.792542 193.276337,593.532532 194.720062,591.143433 
z"/>
<path fill="#DA252E" opacity="1.000000" stroke="none" 
	d="
M457.343262,518.736816 
	C456.032715,517.245544 454.973145,515.564026 453.863159,513.551025 
	C455.073303,514.995178 456.333771,516.770935 457.343262,518.736816 
z"/>
<path fill="#DB252E" opacity="1.000000" stroke="none" 
	d="
M238.732635,515.148926 
	C237.926834,517.276245 236.802383,519.534607 235.358475,521.927063 
	C236.164017,519.800781 237.289001,517.540344 238.732635,515.148926 
z"/>
<path fill="#DB252E" opacity="1.000000" stroke="none" 
	d="
M248.949554,498.057556 
	C248.286850,499.817749 247.476547,501.315002 246.352051,502.921692 
	C246.959213,501.285614 247.880600,499.540100 248.949554,498.057556 
z"/>
<path fill="#DD242C" opacity="1.000000" stroke="none" 
	d="
M182.723709,612.141235 
	C182.115875,614.045410 181.185822,616.074768 179.980469,618.242432 
	C180.603928,616.342590 181.502716,614.304565 182.723709,612.141235 
z"/>
<path fill="#DB242D" opacity="1.000000" stroke="none" 
	d="
M342.191467,336.531616 
	C341.855927,337.971558 341.185547,339.261780 340.248993,340.743469 
	C340.607422,339.417267 341.232025,337.899628 342.191467,336.531616 
z"/>
<path fill="#DB252E" opacity="1.000000" stroke="none" 
	d="
M212.732285,560.150513 
	C212.253510,561.633789 211.446259,563.244873 210.321075,565.002686 
	C210.803345,563.525696 211.603577,561.901978 212.732285,560.150513 
z"/>
<path fill="#DB242D" opacity="1.000000" stroke="none" 
	d="
M363.846313,357.801788 
	C362.807037,356.742004 361.857452,355.302826 360.858704,353.537292 
	C361.851715,354.614777 362.893829,356.018585 363.846313,357.801788 
z"/>
<path fill="#DA252E" opacity="1.000000" stroke="none" 
	d="
M420.506805,455.073151 
	C419.525299,454.200287 418.755432,453.022827 417.961334,451.514862 
	C418.864227,452.379089 419.791321,453.573822 420.506805,455.073151 
z"/>
<path fill="#DD242C" opacity="1.000000" stroke="none" 
	d="
M179.069305,618.471558 
	C178.506622,620.278076 177.595123,622.036926 176.357483,623.914795 
	C176.927704,622.163940 177.824081,620.293884 179.069305,618.471558 
z"/>
<path fill="#DB252E" opacity="1.000000" stroke="none" 
	d="
M245.722809,503.148254 
	C245.251038,504.615265 244.461639,506.204742 243.352325,507.915588 
	C243.823334,506.448181 244.614243,504.859436 245.722809,503.148254 
z"/>
<path fill="#DD242C" opacity="1.000000" stroke="none" 
	d="
M190.736740,598.140259 
	C190.266724,599.611267 189.469284,601.205078 188.350571,602.917419 
	C188.822632,601.445007 189.615982,599.854004 190.736740,598.140259 
z"/>
<path fill="#DD242C" opacity="1.000000" stroke="none" 
	d="
M197.724426,586.138184 
	C197.252823,587.601562 196.455414,589.190125 195.342026,590.906433 
	C195.816910,589.443848 196.607773,587.853638 197.724426,586.138184 
z"/>
<path fill="#DB242D" opacity="1.000000" stroke="none" 
	d="
M398.493683,417.058472 
	C397.494690,416.177795 396.705811,414.981476 395.865967,413.453796 
	C396.777924,414.329254 397.740875,415.536011 398.493683,417.058472 
z"/>
<path fill="#DB252E" opacity="1.000000" stroke="none" 
	d="
M240.813873,512.138367 
	C240.664993,513.050842 240.151855,513.941162 239.334869,514.936768 
	C239.503860,514.066772 239.976746,513.091553 240.813873,512.138367 
z"/>
<path fill="#DB252E" opacity="1.000000" stroke="none" 
	d="
M229.821960,531.149048 
	C229.668930,532.062134 229.152222,532.946411 228.331207,533.934814 
	C228.504028,533.065979 228.981140,532.093201 229.821960,531.149048 
z"/>
<path fill="#DD242C" opacity="1.000000" stroke="none" 
	d="
M187.771393,603.159424 
	C187.898788,603.611023 187.753036,604.207581 187.318024,604.924927 
	C187.185257,604.465271 187.341766,603.884827 187.771393,603.159424 
z"/>
<path fill="#DD242C" opacity="1.000000" stroke="none" 
	d="
M205.607162,572.170349 
	C205.800308,572.574524 205.767746,573.186340 205.479355,573.972412 
	C205.276184,573.557129 205.328827,572.967529 205.607162,572.170349 
z"/>
<path fill="#DB252E" opacity="1.000000" stroke="none" 
	d="
M230.769806,529.173584 
	C230.935547,529.622437 230.823349,530.229919 230.444092,530.995239 
	C230.281982,530.546143 230.386917,529.939148 230.769806,529.173584 
z"/>
<path fill="#DB252E" opacity="1.000000" stroke="none" 
	d="
M241.778885,510.175659 
	C241.937393,510.625183 241.816452,511.230072 241.427826,511.992737 
	C241.273254,511.544037 241.386337,510.937531 241.778885,510.175659 
z"/>
<path fill="#DB252E" opacity="1.000000" stroke="none" 
	d="
M242.773224,508.163513 
	C242.904709,508.616486 242.763611,509.214783 242.331177,509.929810 
	C242.193420,509.467316 242.347031,508.888062 242.773224,508.163513 
z"/>
</svg>