<svg version="1.1" id="Layer_1" xmlns="http://www.w3.org/2000/svg" xmlns:xlink="http://www.w3.org/1999/xlink" x="0px" y="0px"
	 width="100%" viewBox="0 0 693 658" enable-background="new 0 0 693 658" xml:space="preserve">
<path fill="#FFFFFF" opacity="1.000000" stroke="none" 
	d="
M25.000004,659.000000 
	C17.001673,659.000000 9.003347,659.000000 1.003766,659.000000 
	C1.002511,439.714233 1.002511,220.428452 1.002511,1.071342 
	C231.904099,1.071342 462.808228,1.071342 693.856201,1.071342 
	C693.856201,220.333267 693.856201,439.666626 693.856201,659.000000 
	C685.926941,659.000000 677.928528,659.000000 669.502197,658.677002 
	C668.752075,657.842834 668.429749,657.331543 668.064270,656.532593 
	C667.707031,655.784668 667.392944,655.324585 667.063843,654.908142 
	C667.048767,654.951843 667.140747,654.961304 667.060059,654.686646 
	C666.672546,654.193115 666.365845,653.974243 666.067078,653.554932 
	C666.075073,653.354614 665.915588,652.986755 665.903015,652.632812 
	C662.640869,646.786804 659.391296,641.294861 656.139038,635.853210 
	C656.136475,635.903564 656.227661,635.860535 656.150146,635.509888 
	C652.750854,629.426453 649.429138,623.693665 646.050537,617.619873 
	C645.024902,615.743225 644.056213,614.207581 643.093262,612.403503 
	C642.791992,611.739624 642.485046,611.344177 642.074280,610.607178 
	C633.846436,596.088074 625.722412,581.910583 617.608765,567.610046 
	C617.619141,567.487061 617.492859,567.274902 617.398193,566.974854 
	C614.916687,562.717407 612.529785,558.759888 610.143433,554.853271 
	C610.143982,554.904114 610.233398,554.855591 610.156372,554.508301 
	C608.046509,550.776001 606.013611,547.390991 603.933228,543.692505 
	C603.298828,542.526733 602.711792,541.674377 602.115662,540.870605 
	C602.106506,540.919189 602.197876,540.881531 602.120972,540.541626 
	C600.731262,538.080322 599.418396,535.958923 598.097168,533.883545 
	C598.088684,533.929688 598.177368,533.899353 598.100464,533.552002 
	C591.732971,522.401123 585.442383,511.597534 579.132141,500.860962 
	C579.112488,500.927887 579.252014,500.925873 579.190125,500.616669 
	C578.793152,499.810455 578.458069,499.313446 578.119019,498.864624 
	C578.115112,498.912842 578.205200,498.877655 578.123535,498.538483 
	C576.739258,496.070374 575.436707,493.941437 574.126526,491.863831 
	C574.118958,491.915161 574.209595,491.864777 574.130127,491.515747 
	C571.416260,486.711090 568.781738,482.255463 566.144836,477.849854 
	C566.142395,477.899933 566.232056,477.855194 566.154297,477.505096 
	C561.927002,470.008759 557.777405,462.862518 553.589478,455.651825 
	C553.551025,455.587372 553.477356,455.456635 553.434814,455.131226 
	C551.610168,451.840759 549.828186,448.875732 548.026001,445.943909 
	C548.005920,445.977142 548.081665,445.959961 548.002625,445.632080 
	C546.984802,443.814636 546.046021,442.325104 545.096741,440.883240 
	C545.086243,440.930908 545.176331,440.893341 545.097534,440.547424 
	C540.048035,431.746429 535.077332,423.291382 530.096924,414.882507 
	C530.087280,414.928741 530.176880,414.898895 530.095215,414.553101 
	C527.380615,409.747345 524.747620,405.287415 522.108887,400.874054 
	C522.103149,400.920593 522.191528,400.889221 522.112000,400.541504 
	C519.387634,395.670410 516.742798,391.147034 514.106079,386.362244 
	C513.818420,385.711517 513.522583,385.322144 513.132202,384.586670 
	C510.391998,379.774292 507.746307,375.308014 505.091919,370.887207 
	C505.083252,370.932678 505.171387,370.904327 505.092712,370.555359 
	C499.721222,361.073730 494.428375,351.941040 489.133789,342.857941 
	C489.132019,342.907532 489.221680,342.864899 489.137665,342.518677 
	C486.572449,338.023407 484.091248,333.874390 481.619019,329.600159 
	C481.627960,329.474976 481.497742,329.260376 481.394897,328.962830 
	C478.911469,324.708862 476.530884,320.752441 474.149963,316.847351 
	C474.149689,316.898682 474.239746,316.849365 474.160828,316.501709 
	C471.431702,311.707001 468.781525,307.259979 466.126221,302.861328 
	C466.121155,302.909698 466.210724,302.871735 466.126740,302.525116 
	C463.571655,298.015717 461.100555,293.852936 458.585144,289.688080 
	C458.540894,289.686005 458.488129,289.614807 458.505554,289.296265 
	C458.045502,288.270142 457.568054,287.562531 457.075439,286.901001 
	C457.060303,286.947052 457.157074,286.952759 457.066711,286.682953 
	C456.670227,286.196503 456.364136,285.979889 456.060669,285.561401 
	C456.063354,285.359528 455.910583,284.985779 455.877228,284.668091 
	C455.106628,283.167938 454.369354,281.985474 453.595581,280.722595 
	C453.559021,280.642120 453.440460,280.511078 453.327026,280.198669 
	C451.843933,277.536652 450.474243,275.187012 449.096924,272.883362 
	C449.089325,272.929352 449.177460,272.899048 449.098999,272.552887 
	C446.731140,268.403198 444.441681,264.599640 442.151245,260.846741 
	C442.150238,260.897339 442.239136,260.848816 442.158691,260.501251 
	C439.091125,255.044830 436.103973,249.935974 433.107910,244.874756 
	C433.099060,244.922409 433.189423,244.887344 433.102722,244.543793 
	C430.733063,240.395584 428.450134,236.590958 426.153656,232.848602 
	C426.140106,232.910889 426.265289,232.886917 426.182709,232.536804 
	C423.784760,228.389389 421.469421,224.592102 419.153320,220.846283 
	C419.152557,220.897781 419.243011,220.848541 419.162842,220.510406 
	C417.929932,218.346527 416.777222,216.520752 415.580933,214.641785 
	C415.537384,214.588577 415.472015,214.467545 415.423950,214.145203 
	C413.951538,211.495087 412.527222,209.167297 411.086914,206.894714 
	C411.070862,206.949905 411.185699,206.954971 411.126770,206.650955 
	C410.736359,205.853851 410.404846,205.360779 410.061340,204.910034 
	C410.049316,204.952362 410.134277,204.929337 410.050171,204.586426 
	C406.854065,199.072540 403.742065,193.901550 400.604004,188.644257 
	C400.577972,188.557938 400.485779,188.402954 400.438019,188.083130 
	C398.632935,184.783752 396.875610,181.804214 395.101501,178.883728 
	C395.084747,178.942780 395.207520,178.944473 395.148132,178.640869 
	C394.749634,177.848160 394.410583,177.359085 394.058350,176.911865 
	C394.045135,176.953720 394.130096,176.931656 394.051025,176.586945 
	C392.031097,173.093552 390.090240,169.944885 388.150085,166.848236 
	C388.150757,166.900238 388.241699,166.849731 388.163635,166.500046 
	C383.772125,158.700424 379.458710,151.250473 375.144958,143.851685 
	C375.144653,143.902832 375.235199,143.855225 375.160950,143.505630 
	C365.968628,127.185631 356.850586,111.215218 347.289185,94.468239 
	C345.531921,97.770767 344.170197,100.329910 342.852905,102.904205 
	C342.897339,102.919357 342.887970,102.825928 342.614319,102.983223 
	C342.128204,103.728027 341.915710,104.315536 341.779999,104.903923 
	C341.856750,104.904808 341.805206,104.760185 341.521912,104.921860 
	C340.668274,106.189430 340.097961,107.295326 339.520691,108.526596 
	C339.513763,108.651970 339.752899,108.728668 339.452454,108.755447 
	C339.036926,109.167458 338.921906,109.552689 338.863403,109.938873 
	C338.919952,109.939819 338.890594,109.830589 338.601044,110.016296 
	C335.792297,114.772041 333.273071,119.342079 330.818665,123.919533 
	C330.883484,123.926956 330.855896,123.799416 330.563904,123.988792 
	C328.042145,128.303909 325.812378,132.429657 323.574341,136.616425 
	C323.566071,136.677460 323.614594,136.790695 323.308868,136.903931 
	C321.594879,139.634003 320.186615,142.250854 318.824341,144.887726 
	C318.870270,144.907745 318.863861,144.807693 318.575073,144.992096 
	C317.129364,147.416916 315.972473,149.657318 314.859222,151.911652 
	C314.902893,151.925598 314.892456,151.834534 314.613342,152.020599 
	C313.518402,153.786163 312.702606,155.365646 311.928101,156.953583 
	C311.969452,156.962021 311.938416,156.883560 311.685730,157.059753 
	C311.218597,157.807419 311.004181,158.378906 310.853607,158.946167 
	C310.917480,158.941940 310.877869,158.820206 310.585632,159.003754 
	C308.794220,162.084747 307.295074,164.982208 305.840881,167.895828 
	C305.885864,167.911987 305.874451,167.817062 305.583862,167.998642 
	C304.124786,170.410126 302.956268,172.640045 301.832397,174.889908 
	C301.877045,174.909866 301.867645,174.812515 301.578369,175.003510 
	C300.043365,177.628189 298.797607,180.061874 297.510254,182.553024 
	C297.468658,182.610489 297.378326,182.719894 297.123962,182.879089 
	C295.834778,184.977203 294.799957,186.916107 293.810181,188.878250 
	C293.855194,188.901489 293.852600,188.800171 293.566467,188.987274 
	C292.116241,191.407471 290.952179,193.640594 289.832397,195.892395 
	C289.876709,195.911087 289.869385,195.815186 289.580566,196.009369 
	C286.452606,201.424606 283.613464,206.645660 280.821014,211.887558 
	C280.867706,211.908386 280.862976,211.806259 280.569824,211.987122 
	C277.070099,217.754791 273.832794,223.324219 270.662537,228.931564 
	C259.366364,248.911560 248.092957,268.904449 236.855347,288.907104 
	C236.899734,288.921783 236.886444,288.829224 236.601807,289.024963 
	C232.826431,295.653107 229.335693,302.085571 225.581848,308.704651 
	C225.069748,309.477966 224.820740,310.064575 224.581482,310.696899 
	C224.591232,310.742584 224.684189,310.733429 224.416840,310.876343 
	C223.946732,311.563660 223.744003,312.108063 223.553345,312.683289 
	C223.565414,312.714142 223.591797,312.774902 223.297577,312.912048 
	C221.857895,315.234467 220.712433,317.419708 219.583282,319.676788 
	C219.599609,319.748596 219.743118,319.715515 219.446136,319.748627 
	C219.021774,320.158875 218.894394,320.536011 218.829102,320.916443 
	C218.891205,320.919708 218.855499,320.800598 218.570557,320.977783 
	C217.469009,322.740082 216.652420,324.325165 215.879425,325.923462 
	C215.923004,325.936676 215.905914,325.847229 215.641205,326.014282 
	C215.172882,326.766937 214.969269,327.352570 214.833328,327.935699 
	C214.901001,327.933197 214.859070,327.804413 214.572998,327.984100 
	C213.458862,329.756592 212.630783,331.349426 211.564148,333.055725 
	C211.185852,333.661346 211.046127,334.153503 210.630066,334.853485 
	C209.518051,336.680695 208.682358,338.300049 207.889893,339.931946 
	C207.933121,339.944519 207.913086,339.856720 207.633881,340.054169 
	C206.190201,342.477173 205.025726,344.702759 203.903732,346.938965 
	C203.946213,346.949646 203.924423,346.864777 203.665009,347.035767 
	C203.190750,347.783661 202.975906,348.360565 202.830322,348.933044 
	C202.899551,348.928619 202.852814,348.798004 202.560760,348.980347 
	C200.034653,353.297455 197.800598,357.432281 195.588531,361.726379 
	C195.610535,361.885712 195.931976,361.897095 195.526993,361.905640 
	C195.052200,362.434814 194.982391,362.955444 194.944595,363.456909 
	C194.976624,363.437714 194.917618,363.391968 194.536133,363.409210 
	C193.374557,364.920624 192.594482,366.414795 191.861877,367.923096 
	C191.909332,367.937225 191.904877,367.838257 191.614822,368.024963 
	C189.802490,371.116058 188.280212,374.020447 186.825516,376.930573 
	C186.893097,376.936340 186.866379,376.803375 186.571609,376.984558 
	C184.127014,381.081726 181.977188,384.997742 179.871735,388.926331 
	C179.916077,388.938904 179.909973,388.846924 179.606903,389.047455 
	C179.083481,390.112640 178.863129,390.977295 178.613281,391.713135 
	C178.583801,391.584351 178.321106,391.613129 178.059631,391.689209 
	C177.484390,392.872833 177.170639,393.980408 176.772415,395.420563 
	C174.448013,399.465088 172.208084,403.177002 169.643219,407.011444 
	C167.477951,410.382660 165.637589,413.631378 163.842041,416.897034 
	C163.886856,416.914032 163.874847,416.818939 163.581787,417.002930 
	C160.785126,421.747101 158.281525,426.307251 155.823746,430.887177 
	C155.869568,430.906952 155.862244,430.807373 155.572662,430.995972 
	C154.033081,433.555420 152.783096,435.926239 151.463074,438.403076 
	C151.393036,438.509125 151.412811,438.762543 151.159973,438.929291 
	C144.538406,450.359100 138.169678,461.622192 131.845322,472.901062 
	C131.889709,472.916870 131.879166,472.823212 131.591919,473.015167 
	C129.047882,477.251892 126.791077,481.296692 124.513802,485.464661 
	C124.493332,485.587830 124.710030,485.711914 124.416733,485.741699 
	C123.996628,486.144043 123.869820,486.516632 123.805084,486.896057 
	C123.867149,486.902924 123.829437,486.783844 123.536194,486.968933 
	C121.122398,491.080963 119.001854,495.007874 116.923431,498.949432 
	C116.965553,498.964050 116.933800,498.880707 116.667114,499.041809 
	C116.192978,499.783264 115.985535,500.363617 115.843544,500.940979 
	C115.909004,500.938019 115.869011,500.813202 115.577431,500.999023 
	C112.167564,506.782684 109.049271,512.380554 105.690765,518.145020 
	C105.258080,518.850830 105.065598,519.390015 104.602936,520.132812 
	C102.817085,523.184631 101.301422,526.032837 99.834122,528.901672 
	C99.882477,528.922241 99.883804,528.817139 99.611328,528.979858 
	C99.145279,529.741821 98.951706,530.341125 98.829376,530.930542 
	C98.900627,530.920715 98.843063,530.788940 98.556572,530.949585 
	C97.550591,532.398743 96.831108,533.687317 96.028030,535.340088 
	C94.284920,538.763306 92.625404,541.822205 90.640152,545.004395 
	C88.723099,547.882141 87.131767,550.636475 85.506958,553.471436 
	C85.473473,553.552002 85.481003,553.726379 85.219849,553.897949 
	C81.162186,560.884949 77.365669,567.700317 73.528107,574.572327 
	C73.487053,574.628967 73.403809,574.741455 73.149811,574.909302 
	C70.529991,579.345154 68.164177,583.613159 65.842697,587.898376 
	C65.887032,587.915588 65.877266,587.820984 65.592117,588.010132 
	C64.130859,590.421448 62.954750,592.643555 61.823601,594.885986 
	C61.868553,594.906250 61.862091,594.807861 61.572102,594.999268 
	C59.785908,598.087891 58.289703,600.985168 56.839283,603.899658 
	C56.885067,603.916809 56.877228,603.819336 56.593777,603.997559 
	C55.262192,606.120483 54.214054,608.065186 53.029800,610.216675 
	C52.893681,610.423523 52.752079,610.898132 52.815357,610.908386 
	C52.878635,610.918640 52.854107,610.792847 52.555351,610.960815 
	C51.442677,612.720337 50.628754,614.312012 49.861084,615.917358 
	C49.907330,615.931152 49.899784,615.834961 49.610130,616.016968 
	C48.156200,618.436584 46.991920,620.674133 45.872353,622.923279 
	C45.917068,622.934875 45.907875,622.842896 45.628029,623.026489 
	C44.537476,624.794495 43.726772,626.378967 42.954147,627.961609 
	C42.992229,627.959839 42.947998,627.897766 42.695644,628.072083 
	C42.226234,628.814209 42.009174,629.381958 41.854858,629.945312 
	C41.917603,629.940918 41.877483,629.821655 41.583858,630.001709 
	C38.782600,634.739563 36.274971,639.297424 33.790176,643.859009 
	C33.813015,643.862732 33.771965,643.826721 33.498466,644.030396 
	C30.483318,649.156067 27.741665,654.078064 25.000004,659.000000 
M33.019611,345.355011 
	C33.019611,338.199158 33.019611,331.043304 33.019611,323.887451 
	C32.809937,323.897675 32.600258,323.907867 32.390583,323.918060 
	C32.390583,335.631378 32.390583,347.344696 32.390583,359.058014 
	C32.944500,359.038025 33.498413,359.018005 34.052330,358.998016 
	C33.707741,354.767670 33.363155,350.537323 33.019611,345.355011 
z"/>
<path fill="#FFFFFF" opacity="1.000000" stroke="none" 
	d="
M538.000000,659.000000 
	C411.310699,659.000000 284.621368,659.000000 157.367142,658.662720 
	C157.270660,657.273926 157.739120,656.222534 158.180725,655.149780 
	C158.153870,655.128418 158.115570,655.184753 158.411392,655.008789 
	C160.761658,651.233459 162.816086,647.634094 164.995819,643.898804 
	C165.121124,643.762817 165.077011,643.395630 165.321472,643.229614 
	C165.731155,642.714233 165.896378,642.364746 166.030579,642.027222 
	C165.999573,642.039124 166.045639,642.087036 166.306274,641.862122 
	C170.529663,634.583313 174.492401,627.529358 178.483398,620.420410 
	C178.511673,620.365417 178.596329,620.275330 178.854279,620.104858 
	C188.811371,602.998047 198.510513,586.061646 208.164673,569.106689 
	C208.119675,569.088135 208.131439,569.184753 208.416595,568.996460 
	C209.879028,566.586121 211.056320,564.364075 212.186996,562.119690 
	C212.140381,562.097290 212.144333,562.200684 212.436951,562.019531 
	C217.226364,553.937683 221.723160,546.036987 226.174683,538.114807 
	C226.129410,538.093384 226.140686,538.192932 226.428955,538.002197 
	C230.289322,531.334167 233.861404,524.856934 237.422516,518.346924 
	C237.411514,518.314148 237.413513,518.244995 237.701752,518.096863 
	C243.061646,509.006653 248.133316,500.064575 253.159851,491.104675 
	C253.114746,491.086792 253.127991,491.182953 253.419495,490.997559 
	C255.858932,486.902283 258.006866,482.992432 260.111725,479.070984 
	C260.068665,479.059418 260.086060,479.146881 260.351562,478.981018 
	C260.822266,478.229980 261.027496,477.644806 261.164673,477.063171 
	C261.096558,477.066711 261.139801,477.196045 261.432861,477.015350 
	C263.898315,472.940002 266.070709,469.045349 268.196411,465.126831 
	C268.149658,465.102997 268.153168,465.207886 268.447510,465.028870 
	C273.577057,456.285828 278.412292,447.721832 283.202698,439.132568 
	C283.157867,439.107361 283.160309,439.210205 283.449707,439.027344 
	C287.887817,431.598114 292.036530,424.351746 296.140747,417.090088 
	C296.096222,417.074799 296.111725,417.167664 296.396576,416.973572 
	C300.498138,409.875946 304.314880,402.972412 308.088440,396.056885 
	C308.045227,396.044922 308.075623,396.129242 308.359070,395.941376 
	C309.822693,393.536224 311.002930,391.318939 312.138763,389.088867 
	C312.094391,389.076050 312.109344,389.167206 312.394592,388.978943 
	C313.860657,386.572266 315.041412,384.353790 316.177307,382.115112 
	C316.132446,382.094879 316.139465,382.193085 316.431122,382.007355 
	C319.543823,376.566345 322.364868,371.311035 325.120789,366.045288 
	C325.055695,366.034851 325.054352,366.166718 325.311707,366.063477 
	C325.753235,365.652649 325.937439,365.345032 326.082367,365.029358 
	C326.043121,365.021332 326.060028,365.099640 326.273529,364.977875 
	C326.809326,364.651398 326.919312,364.365143 327.009155,363.707367 
	C327.863129,361.963226 328.524994,360.509033 329.131561,359.051880 
	C329.076263,359.048920 329.098480,359.157440 329.408630,359.005981 
	C331.566315,355.603943 333.413849,352.353302 335.196625,349.093475 
	C335.131866,349.084290 335.161804,349.211609 335.452881,349.030548 
	C336.896118,346.604126 338.048279,344.358734 339.154846,342.097595 
	C339.109253,342.081818 339.118896,342.177826 339.408508,341.991882 
	C341.871704,337.913513 344.045258,334.021088 346.158386,330.122803 
	C346.097961,330.116974 346.133148,330.233185 346.419800,330.184265 
	C347.091949,330.168060 347.477509,330.200775 347.876343,330.173401 
	C347.889679,330.113312 347.768738,330.136353 347.842865,330.488770 
	C352.237457,338.287384 356.557922,345.733612 360.882690,353.132080 
	C360.887024,353.084290 360.797089,353.117737 360.879425,353.446075 
	C361.920685,355.253784 362.879608,356.733185 363.840027,358.161011 
	C363.841553,358.109436 363.751648,358.160034 363.838806,358.504944 
	C366.234070,362.634247 368.542145,366.418640 370.852051,370.151978 
	C370.853851,370.100952 370.762909,370.147461 370.843658,370.495056 
	C379.242493,384.955322 387.560577,399.067993 395.883911,413.132599 
	C395.889160,413.084503 395.797729,413.116241 395.874512,413.446777 
	C396.920227,415.251587 397.889160,416.725830 398.861237,418.148315 
	C398.864380,418.096527 398.769623,418.138702 398.848633,418.456360 
	C399.371765,419.514740 399.815887,420.255463 400.356323,421.318054 
	C402.595001,425.152496 404.737396,428.665161 406.886017,432.130371 
	C406.892242,432.082947 406.802979,432.117310 406.889038,432.461548 
	C410.265472,438.273010 413.555817,443.740204 416.847839,449.155609 
	C416.849518,449.103790 416.757660,449.151947 416.841919,449.498230 
	C422.917633,460.017609 428.909149,470.190674 434.898010,480.627319 
	C435.201111,481.279144 435.506805,481.667480 435.907471,482.400513 
	C443.155029,494.913391 450.307617,507.081604 457.483551,519.310120 
	C457.506897,519.370422 457.550079,519.492432 457.618713,519.820862 
	C461.480438,526.767151 465.225708,533.412964 469.075775,539.997498 
	C480.372253,559.317566 491.710358,578.613281 503.054321,598.194763 
	C503.339569,598.714478 503.602631,598.957947 503.890808,599.134644 
	C503.915955,599.067932 503.774445,599.050354 503.834900,599.357422 
	C504.243103,600.151794 504.590851,600.639099 504.945862,601.085449 
	C504.953094,601.044556 504.871582,601.060425 504.960632,601.386719 
	C505.994293,603.202515 506.938965,604.692017 507.885620,606.129517 
	C507.887634,606.077515 507.789886,606.113464 507.875275,606.449951 
	C508.943848,608.336609 509.927063,609.886780 510.886749,611.610107 
	C510.863251,611.783325 511.102478,612.038147 511.139160,612.289551 
	C511.441101,612.741943 511.706390,612.942871 511.957092,613.089417 
	C511.942535,613.035034 511.839752,613.080933 511.922668,613.408752 
	C512.971008,615.211792 513.936462,616.687012 514.906006,618.115356 
	C514.910217,618.068481 514.819763,618.094604 514.901428,618.441284 
	C516.636292,621.563660 518.289490,624.339355 519.953735,627.075073 
	C519.964844,627.035034 519.884277,627.055237 519.963013,627.353943 
	C520.601501,628.495056 521.161255,629.337524 521.759277,630.465393 
	C522.112061,631.190735 522.426697,631.630554 522.842712,632.397095 
	C523.927185,634.207397 524.910278,635.690918 525.893250,637.122925 
	C525.893127,637.071350 525.796875,637.108459 525.880859,637.456055 
	C529.265442,643.267334 532.566040,648.731018 535.843018,654.177368 
	C535.819397,654.159912 535.778198,654.201843 535.852539,654.529968 
	C536.617859,656.238708 537.308899,657.619385 538.000000,659.000000 
z"/>
<path fill="#E21D28" opacity="1.000000" stroke="none" 
	d="
M538.468628,659.000000 
	C537.308899,657.619385 536.617859,656.238708 536.218018,654.582703 
	C538.838257,657.649109 542.099487,658.077698 545.965820,658.065552 
	C586.313293,657.938660 626.661438,657.989319 667.004639,658.243042 
	C667.000000,658.663574 667.000000,658.831787 667.000000,659.000000 
	C624.312439,659.000000 581.624878,659.000000 538.468628,659.000000 
z"/>
<path fill="#E31824" opacity="1.000000" stroke="none" 
	d="
M158.207581,655.171082 
	C157.739120,656.222534 157.270660,657.273926 156.901108,658.662720 
	C115.645775,659.000000 74.291542,659.000000 32.471321,658.756104 
	C32.005329,658.512207 32.014950,658.024536 32.482056,658.016479 
	C71.340675,658.001831 109.732552,658.065369 148.123062,657.866455 
	C151.489136,657.848938 154.846298,656.110291 158.207581,655.171082 
z"/>
<path fill="#E22731" opacity="1.000000" stroke="none" 
	d="
M32.014950,658.024536 
	C32.014950,658.024536 32.005329,658.512207 32.002663,658.756104 
	C29.958334,659.000000 27.916666,659.000000 25.437504,659.000000 
	C27.741665,654.078064 30.483318,649.156067 33.570312,644.420288 
	C32.037273,648.848083 30.158895,653.089722 28.100031,657.738953 
	C29.754646,657.859619 30.884798,657.942078 32.014950,658.024536 
z"/>
<path fill="#E23F4B" opacity="1.000000" stroke="none" 
	d="
M667.333313,659.000000 
	C667.000000,658.831787 667.000000,658.663574 666.999817,658.247864 
	C666.999634,658.000427 666.993530,658.009399 667.240417,657.876404 
	C667.693970,657.435669 667.900696,657.127991 668.107422,656.820312 
	C668.429749,657.331543 668.752075,657.842834 669.037231,658.677002 
	C668.555542,659.000000 668.111084,659.000000 667.333313,659.000000 
z"/>
<path fill="#E23F4B" opacity="1.000000" stroke="none" 
	d="
M32.482056,658.016479 
	C30.884798,657.942078 29.754646,657.859619 28.100031,657.738953 
	C30.158895,653.089722 32.037273,648.848083 33.843807,644.216553 
	C33.771965,643.826721 33.813015,643.862732 34.154343,643.881104 
	C36.956272,639.206909 39.416874,634.514282 41.877480,629.821655 
	C41.877483,629.821655 41.917603,629.940918 42.154869,629.818359 
	C42.577419,629.096497 42.762703,628.497131 42.947990,627.897766 
	C42.947998,627.897766 42.992229,627.959839 43.316002,627.929321 
	C44.395805,626.213501 45.151836,624.528198 45.907867,622.842896 
	C45.907875,622.842896 45.917068,622.934875 46.238464,622.927002 
	C47.673164,620.557678 48.786472,618.196350 49.899780,615.834961 
	C49.899784,615.834961 49.907330,615.931152 50.233597,615.920288 
	C51.324615,614.203857 52.089367,612.498352 52.854111,610.792847 
	C52.854107,610.792847 52.878635,610.918640 53.084969,610.857788 
	C53.521297,610.531311 53.751286,610.265564 54.299843,609.847168 
	C55.371357,607.736084 56.124294,605.777710 56.877232,603.819336 
	C56.877228,603.819336 56.885067,603.916809 57.205040,603.907227 
	C58.970703,600.867737 60.416393,597.837769 61.862091,594.807861 
	C61.862091,594.807861 61.868553,594.906250 62.192986,594.901550 
	C63.637371,592.538208 64.757324,590.179626 65.877274,587.820984 
	C65.877266,587.820984 65.887032,587.915588 66.205597,587.910034 
	C68.817375,583.516785 71.110588,579.129150 73.403801,574.741455 
	C73.403809,574.741455 73.487053,574.628967 73.889168,574.643433 
	C76.640800,571.500977 79.399055,568.561584 81.226738,565.127014 
	C83.115707,561.577393 84.100616,557.546631 85.481003,553.726379 
	C85.481003,553.726379 85.473473,553.552002 85.864044,553.640564 
	C87.825043,550.779785 89.395462,547.830444 90.965881,544.881104 
	C92.625404,541.822205 94.284920,538.763306 96.387177,535.309570 
	C97.500961,533.539490 98.172012,532.164246 98.843063,530.788940 
	C98.843063,530.788940 98.900627,530.920715 99.147049,530.809021 
	C99.556915,530.070618 99.720352,529.443848 99.883804,528.817139 
	C99.883804,528.817139 99.882477,528.922241 100.195435,528.919006 
	C101.963303,525.920227 103.418213,522.924744 104.873116,519.929199 
	C105.065598,519.390015 105.258080,518.850830 106.049866,518.133118 
	C111.722092,513.316345 115.405037,507.930450 115.869011,500.813202 
	C115.869011,500.813202 115.909004,500.938019 116.147720,500.815521 
	C116.568886,500.088928 116.751335,499.484802 116.933792,498.880707 
	C116.933800,498.880707 116.965553,498.964050 117.303169,498.970886 
	C119.703667,494.913086 121.766556,490.848480 123.829437,486.783844 
	C123.829437,486.783844 123.867149,486.902924 124.092743,486.824158 
	C124.448891,486.400909 124.579460,486.056396 124.710030,485.711914 
	C124.710030,485.711914 124.493332,485.587830 124.867981,485.650787 
	C127.454811,481.416901 129.666977,477.120056 131.879150,472.823212 
	C131.879166,472.823212 131.889709,472.916870 132.204468,472.909851 
	C133.707794,471.800415 135.248352,470.902618 136.027344,469.562225 
	C140.805405,461.340668 145.496643,453.064941 150.003998,444.692749 
	C150.934601,442.964172 150.966629,440.751892 151.412811,438.762543 
	C151.412811,438.762543 151.393036,438.509125 151.815414,438.602295 
	C153.445938,436.066132 154.654099,433.436737 155.862244,430.807373 
	C155.862244,430.807373 155.869568,430.906952 156.183502,430.902893 
	C161.535004,427.556549 162.898407,422.289124 163.874847,416.818939 
	C163.874847,416.818939 163.886856,416.914032 164.203781,416.909424 
	C166.336517,413.566162 168.152328,410.227539 169.968155,406.888947 
	C172.208084,403.177002 174.448013,399.465088 177.100739,395.260345 
	C177.782715,393.716064 178.051910,392.664581 178.321106,391.613129 
	C178.321106,391.613129 178.583801,391.584351 178.962433,391.593140 
	C179.530685,390.683624 179.720337,389.765259 179.909973,388.846924 
	C179.909973,388.846924 179.916077,388.938904 180.231384,388.925171 
	C182.653259,384.875397 184.759811,380.839386 186.866379,376.803375 
	C186.866379,376.803375 186.893097,376.936340 187.176941,376.848083 
	C188.942154,373.785950 190.423508,370.812103 191.904877,367.838257 
	C191.904877,367.838257 191.909332,367.937225 192.239471,367.914917 
	C193.352264,366.392426 194.134933,364.892181 194.917618,363.391968 
	C194.917618,363.391968 194.976624,363.437714 195.126556,363.198059 
	C195.494980,362.604614 195.713486,362.250854 195.931976,361.897095 
	C195.931976,361.897095 195.610535,361.885712 195.955597,361.777649 
	C198.484695,357.379059 200.668762,353.088531 202.852814,348.798004 
	C202.852814,348.798004 202.899551,348.928619 203.138031,348.809082 
	C203.559143,348.081268 203.741776,347.473022 203.924408,346.864777 
	C203.924423,346.864777 203.946213,346.949646 204.267746,346.932190 
	C205.697220,344.562073 206.805161,342.209381 207.913086,339.856720 
	C207.913086,339.856720 207.933121,339.944519 208.268417,339.923523 
	C209.371277,338.150238 210.138840,336.397949 210.906403,334.645630 
	C211.046127,334.153503 211.185852,333.661346 211.936523,333.047363 
	C213.317993,331.218506 214.088531,329.511444 214.859070,327.804413 
	C214.859070,327.804413 214.901001,327.933197 215.145355,327.813812 
	C215.561768,327.078705 215.733841,326.462952 215.905914,325.847229 
	C215.905914,325.847229 215.923004,325.936676 216.251526,325.921539 
	C217.338531,324.204468 218.097015,322.502533 218.855499,320.800598 
	C218.855499,320.800598 218.891205,320.919708 219.111664,320.832764 
	C219.469116,320.402405 219.606125,320.058960 219.743118,319.715515 
	C219.743118,319.715515 219.599609,319.748596 219.956558,319.714478 
	C221.406281,317.378540 222.499039,315.076721 223.591797,312.774902 
	C223.591797,312.774902 223.565414,312.714142 223.910385,312.671631 
	C224.398300,311.997192 224.541245,311.365326 224.684189,310.733429 
	C224.684189,310.733429 224.591232,310.742584 224.871796,310.741272 
	C225.440689,310.507172 225.729004,310.274384 226.285217,309.832977 
	C227.528397,308.314087 228.760880,307.123077 229.433334,305.672485 
	C232.015106,300.103210 234.417267,294.450684 236.886444,288.829224 
	C236.886444,288.829224 236.899734,288.921783 237.212219,288.915558 
	C240.084183,285.035187 242.731522,281.215637 245.180710,277.272949 
	C248.181549,272.442261 251.070755,267.539795 253.912781,262.613312 
	C261.647156,249.206177 269.436371,235.828522 276.958466,222.302704 
	C278.752075,219.077576 279.587097,215.319321 280.862976,211.806259 
	C280.862976,211.806259 280.867706,211.908386 281.184967,211.899750 
	C284.291290,206.532471 287.080353,201.173828 289.869385,195.815186 
	C289.869385,195.815186 289.876709,195.911087 290.201660,195.904633 
	C291.635284,193.532181 292.743958,191.166183 293.852600,188.800171 
	C293.852600,188.800171 293.855194,188.901489 294.177917,188.898636 
	C295.459869,186.837158 296.419098,184.778519 297.378326,182.719894 
	C297.378326,182.719894 297.468658,182.610489 297.879089,182.630188 
	C299.482208,180.037430 300.674927,177.424973 301.867645,174.812515 
	C301.867645,174.812515 301.877045,174.909866 302.216064,174.912354 
	C306.279114,173.773041 306.183319,170.844879 305.874451,167.817062 
	C305.874451,167.817062 305.885864,167.911987 306.205505,167.907303 
	C307.976074,164.875153 309.426971,161.847687 310.877869,158.820206 
	C310.877869,158.820206 310.917480,158.941940 311.154449,158.816971 
	C311.573761,158.089188 311.756104,157.486374 311.938416,156.883560 
	C311.938416,156.883560 311.969452,156.962021 312.294525,156.933838 
	C313.377228,155.215286 314.134827,153.524918 314.892456,151.834534 
	C314.892456,151.834534 314.902893,151.925598 315.226196,151.916534 
	C316.654266,149.540894 317.759064,147.174286 318.863831,144.807678 
	C318.863861,144.807693 318.870270,144.907745 319.188599,144.904572 
	C320.876129,142.197830 322.245361,139.494263 323.614624,136.790710 
	C323.614594,136.790695 323.566071,136.677460 323.941345,136.666916 
	C326.496399,132.370712 328.676147,128.085068 330.855896,123.799416 
	C330.855896,123.799416 330.883484,123.926956 331.167908,123.839996 
	C334.521362,119.427223 339.215088,115.969429 338.890594,109.830589 
	C338.890594,109.830589 338.919952,109.939819 339.136902,109.844650 
	C339.486877,109.409210 339.619904,109.068939 339.752899,108.728668 
	C339.752899,108.728668 339.513763,108.651970 339.907135,108.685448 
	C340.802063,107.399345 341.303650,106.079765 341.805206,104.760185 
	C341.805206,104.760185 341.856750,104.904808 342.099487,104.789093 
	C342.524170,104.057564 342.706055,103.441742 342.887970,102.825928 
	C342.887970,102.825928 342.897339,102.919357 343.209900,102.918839 
	C344.809204,102.014320 346.095947,101.110321 348.101624,99.701233 
	C350.742554,104.860916 353.098877,109.852119 355.800751,114.648651 
	C359.462036,121.148262 363.214020,127.611504 367.268311,133.869293 
	C369.572418,137.425674 372.557037,140.541168 375.235199,143.855225 
	C375.235199,143.855225 375.144653,143.902832 375.094910,144.244781 
	C378.959106,151.952362 382.862793,159.323547 386.831726,166.659424 
	C386.964691,166.905212 387.756805,166.794357 388.241699,166.849731 
	C388.241699,166.849731 388.150757,166.900238 388.100891,167.237656 
	C390.077393,170.693939 392.103729,173.812790 394.130096,176.931656 
	C394.130096,176.931656 394.045135,176.953720 394.062378,177.241989 
	C394.455597,178.001663 394.831573,178.473068 395.207520,178.944473 
	C395.207520,178.944473 395.084747,178.942780 395.058472,179.295563 
	C394.738068,183.882187 396.734131,186.689392 400.485779,188.402954 
	C400.485779,188.402954 400.577972,188.557938 400.408386,188.987854 
	C402.458435,195.276550 404.506165,201.244980 410.134277,204.929337 
	C410.134277,204.929337 410.049316,204.952362 410.063263,205.238770 
	C410.446686,206.001770 410.816193,206.478378 411.185699,206.954987 
	C411.185699,206.954971 411.070862,206.949905 411.051941,207.291031 
	C412.512726,209.910614 413.992371,212.189072 415.472015,214.467545 
	C415.472015,214.467545 415.537384,214.588577 415.371094,215.005066 
	C416.550873,217.230545 417.896942,219.039551 419.243011,220.848541 
	C419.243011,220.848541 419.152557,220.897781 419.097229,221.243744 
	C420.653656,225.864426 420.569733,231.223343 426.265289,232.886917 
	C426.265289,232.886917 426.140106,232.910889 426.091888,233.241608 
	C428.425598,237.344009 430.807495,241.115677 433.189423,244.887344 
	C433.189423,244.887344 433.099060,244.922409 433.066284,245.265762 
	C436.102051,250.689011 439.170593,255.768906 442.239136,260.848816 
	C442.239136,260.848816 442.150238,260.897339 442.094635,261.238983 
	C444.418518,265.353424 446.797974,269.126251 449.177460,272.899048 
	C449.177460,272.899048 449.089325,272.929352 449.064270,273.278229 
	C450.132568,276.160706 449.235779,279.966705 453.440460,280.511078 
	C453.440460,280.511078 453.559021,280.642120 453.330811,280.961365 
	C451.925568,284.117035 453.388184,284.952972 455.910583,284.985779 
	C455.910583,284.985779 456.063354,285.359528 456.151276,285.835449 
	C456.545166,286.525177 456.851105,286.738983 457.157074,286.952759 
	C457.157074,286.952759 457.060303,286.947052 457.044739,287.275452 
	C457.515472,288.274139 458.001801,288.944458 458.488129,289.614807 
	C458.488129,289.614807 458.540894,289.686005 458.391357,290.040283 
	C459.993378,295.131439 460.956543,300.371887 466.210724,302.871735 
	C466.210724,302.871735 466.121155,302.909698 466.078125,303.252563 
	C468.769989,308.013397 471.504883,312.431396 474.239746,316.849365 
	C474.239746,316.849365 474.149689,316.898682 474.097412,317.248352 
	C475.548248,321.295959 476.958405,325.037598 478.655945,328.643982 
	C478.906952,329.177185 480.516663,329.070831 481.497742,329.260376 
	C481.497742,329.260376 481.627960,329.474976 481.430725,329.950378 
	C482.857422,335.239258 484.052887,340.327850 489.221680,342.864899 
	C489.221680,342.864899 489.132019,342.907532 489.083191,343.272156 
	C489.214752,344.922394 489.037476,346.411713 489.634430,347.460175 
	C493.136688,353.611633 496.723450,359.720856 500.497192,365.708496 
	C501.721405,367.650848 503.594879,369.184021 505.171387,370.904327 
	C505.171387,370.904327 505.083252,370.932678 505.057922,371.278046 
	C507.030396,376.511505 507.517700,382.329590 513.226746,384.932800 
	C513.522583,385.322144 513.818420,385.711517 514.073486,386.764282 
	C516.752258,391.914886 519.471924,396.402069 522.191528,400.889221 
	C522.191528,400.889221 522.103149,400.920593 522.071533,401.265442 
	C523.847290,406.593933 524.855408,412.067017 530.176880,414.898895 
	C530.176880,414.898895 530.087280,414.928741 530.058960,415.272583 
	C534.052856,423.706543 538.025452,431.822479 542.186279,439.840698 
	C542.541138,440.524628 544.150024,440.557831 545.176331,440.893341 
	C545.176331,440.893341 545.086243,440.930908 545.059875,441.266754 
	C546.049561,443.055054 547.065613,444.507507 548.081665,445.959961 
	C548.081665,445.959961 548.005920,445.977142 548.015930,446.349182 
	C547.907104,450.841156 549.865601,453.664764 553.477356,455.456635 
	C553.477356,455.456635 553.551025,455.587372 553.394043,455.994446 
	C556.955994,463.386322 560.655457,470.381775 564.445801,477.327576 
	C564.656372,477.713440 565.619324,477.688751 566.232056,477.855164 
	C566.232056,477.855194 566.142395,477.899933 566.090515,478.241516 
	C567.841370,482.795502 569.569885,487.043182 571.538269,491.176697 
	C571.791870,491.709259 573.288696,491.649933 574.209595,491.864777 
	C574.209595,491.864777 574.118958,491.915161 574.077026,492.254517 
	C575.425110,494.688477 576.815186,496.783081 578.205200,498.877655 
	C578.205200,498.877655 578.115112,498.912842 578.097778,499.203552 
	C578.470947,499.971466 578.861511,500.448669 579.252014,500.925873 
	C579.252014,500.925873 579.112488,500.927887 579.076172,501.274902 
	C579.357361,503.195282 579.296326,504.986389 580.055176,506.306091 
	C584.398560,513.860046 588.852478,521.354553 593.465820,528.746338 
	C594.677612,530.687927 596.587830,532.193542 598.177368,533.899353 
	C598.177368,533.899353 598.088684,533.929688 598.060242,534.273132 
	C599.420471,536.704895 600.809204,538.793213 602.197876,540.881531 
	C602.197876,540.881531 602.106506,540.919189 602.071472,541.225220 
	C602.343628,542.357239 602.650879,543.183228 603.004883,544.366211 
	C605.445496,548.100647 607.839417,551.478088 610.233398,554.855591 
	C610.233398,554.855591 610.143982,554.904114 610.095398,555.249756 
	C611.742432,559.272827 613.375122,562.982178 615.207764,566.589966 
	C615.456177,567.079041 616.706421,567.059143 617.492859,567.274902 
	C617.492859,567.274902 617.619141,567.487061 617.422913,567.961060 
	C618.541687,571.637085 619.547607,575.012573 621.228882,578.009155 
	C626.559998,587.511292 632.072388,596.914551 637.690369,606.250366 
	C638.779968,608.061035 640.661743,609.394897 642.178101,610.948730 
	C642.485046,611.344177 642.791992,611.739624 643.061401,612.790405 
	C643.681763,614.963806 644.339661,616.481873 645.037842,618.353149 
	C646.618469,621.584167 647.969910,624.585632 649.750000,627.306763 
	C651.703247,630.292786 654.051514,633.020325 656.227661,635.860535 
	C656.227661,635.860535 656.136475,635.903564 656.087769,636.248596 
	C657.177612,639.508789 657.951843,642.645630 659.553955,645.278748 
	C661.267761,648.095581 663.761963,650.437561 665.915588,652.986755 
	C665.915588,652.986755 666.075073,653.354614 666.158203,653.827271 
	C666.541138,654.520325 666.840942,654.740784 667.140747,654.961304 
	C667.140747,654.961304 667.048767,654.951843 667.042236,655.301758 
	C667.021606,656.437622 667.007568,657.223511 666.993530,658.009399 
	C666.993530,658.009399 666.999634,658.000427 667.004517,657.995605 
	C626.661438,657.989319 586.313293,657.938660 545.965820,658.065552 
	C542.099487,658.077698 538.838257,657.649109 536.143677,654.254578 
	C535.778198,654.201843 535.819397,654.159912 535.889221,653.787720 
	C533.515869,648.704712 531.145569,643.953369 528.569580,639.316284 
	C528.039185,638.361572 526.741150,637.833252 525.796875,637.108459 
	C525.796875,637.108459 525.893127,637.071350 525.927429,636.731079 
	C524.888245,634.950684 523.814819,633.510559 522.741333,632.070374 
	C522.426697,631.630554 522.112061,631.190735 522.007080,630.294128 
	C521.439270,628.910034 520.661743,627.982605 519.884277,627.055237 
	C519.884277,627.055237 519.964844,627.035034 519.964478,626.688599 
	C518.249329,623.592957 516.534546,620.843811 514.819763,618.094604 
	C514.819763,618.094604 514.910217,618.068481 514.946777,617.730042 
	C513.935486,615.954712 512.887634,614.517822 511.839752,613.080933 
	C511.839752,613.080933 511.942535,613.035034 511.865082,612.864502 
	C511.645294,612.385498 511.416901,612.166870 511.102478,612.038147 
	C511.102478,612.038147 510.863251,611.783325 510.919800,611.206787 
	C509.914185,609.124634 508.852020,607.619080 507.789886,606.113464 
	C507.789886,606.113464 507.887634,606.077515 507.931183,605.744019 
	C506.940369,603.960449 505.905975,602.510437 504.871582,601.060425 
	C504.871582,601.060425 504.953094,601.044556 504.939362,600.753174 
	C504.541901,599.991272 504.158173,599.520813 503.774445,599.050354 
	C503.774445,599.050354 503.915955,599.067932 503.939209,598.773743 
	C503.958893,597.997192 503.955322,597.514893 503.920776,596.681030 
	C498.184723,586.240967 492.568115,576.101074 486.740662,566.083740 
	C483.370087,560.289734 479.474884,554.798889 476.154388,548.978394 
	C472.823944,543.140503 470.222839,536.873413 466.717438,531.152710 
	C464.151764,526.965637 460.640106,523.358215 457.550079,519.492432 
	C457.550079,519.492432 457.506897,519.370422 457.649475,518.964233 
	C452.328888,508.522858 446.967865,498.429718 441.329102,488.494263 
	C439.959808,486.081573 437.675873,484.188019 435.812500,482.055786 
	C435.506805,481.667480 435.201111,481.279144 434.934875,480.226593 
	C434.831268,478.754852 434.896179,477.828888 434.513794,477.157745 
	C429.349365,468.092682 424.143555,459.050842 418.858765,450.055634 
	C418.547485,449.525818 417.475616,449.442841 416.757660,449.151917 
	C416.757660,449.151947 416.849518,449.103790 416.904114,448.764008 
	C414.692139,442.291901 412.487335,436.121094 406.802979,432.117310 
	C406.802979,432.117310 406.892242,432.082947 406.933197,431.718445 
	C404.969421,427.905029 402.964691,424.456085 400.976593,420.638550 
	C400.252014,419.559509 399.510803,418.849121 398.769592,418.138733 
	C398.769623,418.138702 398.864380,418.096527 398.914215,417.760010 
	C397.908630,415.987762 396.853180,414.552002 395.797729,413.116241 
	C395.797729,413.116241 395.889160,413.084503 395.927795,412.742065 
	C395.593262,411.145355 395.443878,409.763428 394.812225,408.656708 
	C388.602173,397.775909 382.388153,386.895569 375.982086,376.130066 
	C374.650818,373.892792 372.523407,372.129303 370.762909,370.147461 
	C370.762909,370.147461 370.853851,370.100952 370.908997,369.762482 
	C368.559967,365.669342 366.155823,361.914703 363.751648,358.160034 
	C363.751648,358.160034 363.841553,358.109436 363.901550,357.771698 
	C362.906708,355.995209 361.851898,354.556488 360.797089,353.117737 
	C360.797089,353.117737 360.887024,353.084290 360.927124,352.737579 
	C357.053375,345.038025 353.150085,337.679443 349.181519,330.356262 
	C349.043915,330.102325 348.254395,330.201660 347.768738,330.136353 
	C347.768738,330.136353 347.889679,330.113312 347.895721,329.844666 
	C347.494965,329.210571 347.088135,328.845123 346.681335,328.479706 
	C346.498596,329.064209 346.315857,329.648682 346.133148,330.233185 
	C346.133148,330.233185 346.097961,330.116974 345.784729,330.102661 
	C343.353943,334.118164 341.236420,338.148010 339.118896,342.177826 
	C339.118896,342.177826 339.109253,342.081818 338.786438,342.090454 
	C337.363007,344.469940 336.262421,346.840759 335.161804,349.211609 
	C335.161804,349.211609 335.131866,349.084290 334.833160,349.155762 
	C330.272797,351.196320 329.723602,355.197662 329.098480,359.157440 
	C329.098480,359.157440 329.076263,359.048920 328.788239,359.149841 
	C327.666016,360.833832 326.831787,362.416901 326.008423,364.275177 
	C326.032837,364.733429 326.046448,364.916534 326.060028,365.099640 
	C326.060028,365.099640 326.043121,365.021332 325.822327,365.125549 
	C325.419159,365.542053 325.236755,365.854401 325.054352,366.166718 
	C325.054352,366.166718 325.055695,366.034851 324.780273,366.142761 
	C321.716400,371.564819 318.927917,376.878937 316.139465,382.193085 
	C316.139465,382.193085 316.132446,382.094879 315.807617,382.100342 
	C314.358337,384.459595 313.233826,386.813385 312.109314,389.167206 
	C312.109344,389.167206 312.094391,389.076050 311.767822,389.090393 
	C308.407562,390.530212 307.584229,393.014771 308.075623,396.129242 
	C308.075623,396.129242 308.045227,396.044922 307.732178,396.063232 
	C305.651917,398.377594 303.486816,400.472870 302.204620,403.013641 
	C299.894714,407.590881 298.113678,412.435028 296.111725,417.167664 
	C296.111725,417.167664 296.096222,417.074799 295.783997,417.081665 
	C290.810547,420.627136 283.711243,433.383392 283.160309,439.210205 
	C283.160309,439.210205 283.157867,439.107361 282.834717,439.106018 
	C279.234558,444.285797 275.770782,449.360931 272.749146,454.686920 
	C270.870911,457.997498 269.662323,461.687927 268.153168,465.207886 
	C268.153168,465.207886 268.149658,465.102997 267.832550,465.107178 
	C265.390228,469.139618 263.265015,473.167816 261.139801,477.196045 
	C261.139801,477.196045 261.096558,477.066711 260.857330,477.189880 
	C260.440765,477.924347 260.263428,478.535614 260.086060,479.146881 
	C260.086060,479.146881 260.068665,479.059418 259.754395,479.072632 
	C255.493622,482.156891 253.559601,486.277954 253.127991,491.182953 
	C253.127991,491.182953 253.114746,491.086792 252.798309,491.090820 
	C249.064163,496.290924 245.401062,501.346344 242.315018,506.732422 
	C240.255844,510.326263 239.018600,514.390991 237.413513,518.244995 
	C237.413513,518.244995 237.411514,518.314148 237.052780,518.318237 
	C233.967255,522.547302 231.064896,526.672729 228.588455,531.039612 
	C227.366745,533.193909 226.931671,535.794373 226.140686,538.192932 
	C226.140686,538.192932 226.129410,538.093384 225.810760,538.093323 
	C224.900848,538.608765 224.134064,539.017639 223.746201,539.656616 
	C220.799057,544.511902 217.782715,549.335022 215.091156,554.331543 
	C213.775055,556.774719 213.106171,559.566650 212.144318,562.200684 
	C212.144333,562.200684 212.140381,562.097290 211.815536,562.104126 
	C210.370941,564.468933 209.251190,566.826843 208.131439,569.184753 
	C208.131439,569.184753 208.119675,569.088135 207.804550,569.092163 
	C206.149185,570.485413 204.457855,571.673096 203.525864,573.296631 
	C197.571350,583.669739 191.668243,594.076416 185.991302,604.603088 
	C183.253387,609.679993 181.044662,615.042236 178.596313,620.275330 
	C178.596329,620.275330 178.511673,620.365417 178.116913,620.352295 
	C174.995483,624.233337 171.949478,627.949585 169.647690,632.080444 
	C167.944977,635.136230 167.211136,638.731873 166.045639,642.087036 
	C166.045639,642.087036 165.999573,642.039124 165.767700,642.170105 
	C165.382904,642.665955 165.229965,643.030762 165.077026,643.395630 
	C165.077011,643.395630 165.121124,643.762817 164.654129,643.936523 
	C162.163284,647.801758 160.139435,651.493225 158.115570,655.184753 
	C158.115570,655.184753 158.153870,655.128418 158.180725,655.149780 
	C154.846298,656.110291 151.489136,657.848938 148.123062,657.866455 
	C109.732552,658.065369 71.340675,658.001831 32.482056,658.016479 
z"/>
<path fill="#E22731" opacity="1.000000" stroke="none" 
	d="
M280.569824,211.987122 
	C279.587097,215.319321 278.752075,219.077576 276.958466,222.302704 
	C269.436371,235.828522 261.647156,249.206177 253.912781,262.613312 
	C251.070755,267.539795 248.181549,272.442261 245.180710,277.272949 
	C242.731522,281.215637 240.084183,285.035187 237.167847,288.900879 
	C248.092957,268.904449 259.366364,248.911560 270.662537,228.931564 
	C273.832794,223.324219 277.070099,217.754791 280.569824,211.987122 
z"/>
<path fill="#E22731" opacity="1.000000" stroke="none" 
	d="
M375.160950,143.505630 
	C372.557037,140.541168 369.572418,137.425674 367.268311,133.869293 
	C363.214020,127.611504 359.462036,121.148262 355.800751,114.648651 
	C353.098877,109.852119 350.742554,104.860916 348.101624,99.701233 
	C346.095947,101.110321 344.809204,102.014320 343.165466,102.903687 
	C344.170197,100.329910 345.531921,97.770767 347.289185,94.468239 
	C356.850586,111.215218 365.968628,127.185631 375.160950,143.505630 
z"/>
<path fill="#E2262F" opacity="1.000000" stroke="none" 
	d="
M642.074280,610.607178 
	C640.661743,609.394897 638.779968,608.061035 637.690369,606.250366 
	C632.072388,596.914551 626.559998,587.511292 621.228882,578.009155 
	C619.547607,575.012573 618.541687,571.637085 617.412476,568.083984 
	C625.722412,581.910583 633.846436,596.088074 642.074280,610.607178 
z"/>
<path fill="#E22731" opacity="1.000000" stroke="none" 
	d="
M151.159973,438.929291 
	C150.966629,440.751892 150.934601,442.964172 150.003998,444.692749 
	C145.496643,453.064941 140.805405,461.340668 136.027344,469.562225 
	C135.248352,470.902618 133.707794,471.800415 132.160095,472.894043 
	C138.169678,461.622192 144.538406,450.359100 151.159973,438.929291 
z"/>
<path fill="#E22731" opacity="1.000000" stroke="none" 
	d="
M598.100464,533.552002 
	C596.587830,532.193542 594.677612,530.687927 593.465820,528.746338 
	C588.852478,521.354553 584.398560,513.860046 580.055176,506.306091 
	C579.296326,504.986389 579.357361,503.195282 579.095825,501.207947 
	C585.442383,511.597534 591.732971,522.401123 598.100464,533.552002 
z"/>
<path fill="#E22731" opacity="1.000000" stroke="none" 
	d="
M505.092712,370.555359 
	C503.594879,369.184021 501.721405,367.650848 500.497192,365.708496 
	C496.723450,359.720856 493.136688,353.611633 489.634430,347.460175 
	C489.037476,346.411713 489.214752,344.922394 489.084961,343.222534 
	C494.428375,351.941040 499.721222,361.073730 505.092712,370.555359 
z"/>
<path fill="#E22731" opacity="1.000000" stroke="none" 
	d="
M545.097534,440.547424 
	C544.150024,440.557831 542.541138,440.524628 542.186279,439.840698 
	C538.025452,431.822479 534.052856,423.706543 530.068604,415.226349 
	C535.077332,423.291382 540.048035,431.746429 545.097534,440.547424 
z"/>
<path fill="#EAEAEA" opacity="1.000000" stroke="none" 
	d="
M33.019089,345.830994 
	C33.363155,350.537323 33.707741,354.767670 34.052330,358.998016 
	C33.498413,359.018005 32.944500,359.038025 32.390583,359.058014 
	C32.390583,347.344696 32.390583,335.631378 32.390583,323.918060 
	C32.600258,323.907867 32.809937,323.897675 33.019611,323.887451 
	C33.019611,331.043304 33.019611,338.199158 33.019089,345.830994 
z"/>
<path fill="#E22731" opacity="1.000000" stroke="none" 
	d="
M236.601807,289.024963 
	C234.417267,294.450684 232.015106,300.103210 229.433334,305.672485 
	C228.760880,307.123077 227.528397,308.314087 226.245972,309.451416 
	C225.907532,309.024994 225.876251,308.771515 225.844940,308.518005 
	C229.335693,302.085571 232.826431,295.653107 236.601807,289.024963 
z"/>
<path fill="#E22731" opacity="1.000000" stroke="none" 
	d="
M85.219849,553.897949 
	C84.100616,557.546631 83.115707,561.577393 81.226738,565.127014 
	C79.399055,568.561584 76.640800,571.500977 73.930222,574.586792 
	C77.365669,567.700317 81.162186,560.884949 85.219849,553.897949 
z"/>
<path fill="#E22731" opacity="1.000000" stroke="none" 
	d="
M388.163635,166.500046 
	C387.756805,166.794357 386.964691,166.905212 386.831726,166.659424 
	C382.862793,159.323547 378.959106,151.952362 375.095215,144.193634 
	C379.458710,151.250473 383.772125,158.700424 388.163635,166.500046 
z"/>
<path fill="#E22731" opacity="1.000000" stroke="none" 
	d="
M566.154297,477.505066 
	C565.619324,477.688751 564.656372,477.713440 564.445801,477.327576 
	C560.655457,470.381775 556.955994,463.386322 553.432495,456.058899 
	C557.777405,462.862518 561.927002,470.008759 566.154297,477.505066 
z"/>
<path fill="#E22731" opacity="1.000000" stroke="none" 
	d="
M115.577431,500.999023 
	C115.405037,507.930450 111.722092,513.316345 106.290077,517.966492 
	C109.049271,512.380554 112.167564,506.782684 115.577431,500.999023 
z"/>
<path fill="#E22731" opacity="1.000000" stroke="none" 
	d="
M656.150146,635.509888 
	C654.051514,633.020325 651.703247,630.292786 649.750000,627.306763 
	C647.969910,624.585632 646.618469,621.584167 645.315369,618.345398 
	C645.737549,617.976562 645.922485,617.968689 646.107422,617.960876 
	C649.429138,623.693665 652.750854,629.426453 656.150146,635.509888 
z"/>
<path fill="#E22731" opacity="1.000000" stroke="none" 
	d="
M665.903015,652.632812 
	C663.761963,650.437561 661.267761,648.095581 659.553955,645.278748 
	C657.951843,642.645630 657.177612,639.508789 656.090332,636.198242 
	C659.391296,641.294861 662.640869,646.786804 665.903015,652.632812 
z"/>
<path fill="#E22731" opacity="1.000000" stroke="none" 
	d="
M410.050171,204.586426 
	C404.506165,201.244980 402.458435,195.276550 400.434448,189.074173 
	C403.742065,193.901550 406.854065,199.072540 410.050171,204.586426 
z"/>
<path fill="#E22731" opacity="1.000000" stroke="none" 
	d="
M442.158691,260.501251 
	C439.170593,255.768906 436.102051,250.689011 433.075134,245.218109 
	C436.103973,249.935974 439.091125,255.044830 442.158691,260.501251 
z"/>
<path fill="#E22731" opacity="1.000000" stroke="none" 
	d="
M289.580566,196.009369 
	C287.080353,201.173828 284.291290,206.532471 281.138275,211.878906 
	C283.613464,206.645660 286.452606,201.424606 289.580566,196.009369 
z"/>
<path fill="#E22731" opacity="1.000000" stroke="none" 
	d="
M163.581787,417.002930 
	C162.898407,422.289124 161.535004,427.556549 156.137680,430.883118 
	C158.281525,426.307251 160.785126,421.747101 163.581787,417.002930 
z"/>
<path fill="#E22731" opacity="1.000000" stroke="none" 
	d="
M574.130127,491.515747 
	C573.288696,491.649933 571.791870,491.709259 571.538269,491.176697 
	C569.569885,487.043182 567.841370,482.795502 566.092957,478.191467 
	C568.781738,482.255463 571.416260,486.711090 574.130127,491.515747 
z"/>
<path fill="#E22731" opacity="1.000000" stroke="none" 
	d="
M466.126740,302.525116 
	C460.956543,300.371887 459.993378,295.131439 458.435608,290.042358 
	C461.100555,293.852936 463.571655,298.015717 466.126740,302.525116 
z"/>
<path fill="#E22731" opacity="1.000000" stroke="none" 
	d="
M513.132202,384.586670 
	C507.517700,382.329590 507.030396,376.511505 505.066589,371.232574 
	C507.746307,375.308014 510.391998,379.774292 513.132202,384.586670 
z"/>
<path fill="#E22731" opacity="1.000000" stroke="none" 
	d="
M489.137665,342.518677 
	C484.052887,340.327850 482.857422,335.239258 481.421783,330.075562 
	C484.091248,333.874390 486.572449,338.023407 489.137665,342.518677 
z"/>
<path fill="#E2262F" opacity="1.000000" stroke="none" 
	d="
M338.601044,110.016296 
	C339.215088,115.969429 334.521362,119.427223 331.103088,123.832565 
	C333.273071,119.342079 335.792297,114.772041 338.601044,110.016296 
z"/>
<path fill="#E22731" opacity="1.000000" stroke="none" 
	d="
M522.112000,400.541504 
	C519.471924,396.402069 516.752258,391.914886 514.065308,387.025696 
	C516.742798,391.147034 519.387634,395.670410 522.112000,400.541504 
z"/>
<path fill="#E22731" opacity="1.000000" stroke="none" 
	d="
M530.095215,414.553101 
	C524.855408,412.067017 523.847290,406.593933 522.077271,401.218872 
	C524.747620,405.287415 527.380615,409.747345 530.095215,414.553101 
z"/>
<path fill="#E22731" opacity="1.000000" stroke="none" 
	d="
M481.394897,328.962830 
	C480.516663,329.070831 478.906952,329.177185 478.655945,328.643982 
	C476.958405,325.037598 475.548248,321.295959 474.097687,317.197021 
	C476.530884,320.752441 478.911469,324.708862 481.394897,328.962830 
z"/>
<path fill="#E22731" opacity="1.000000" stroke="none" 
	d="
M41.583855,630.001709 
	C39.416874,634.514282 36.956272,639.206909 34.131504,643.877441 
	C36.274971,639.297424 38.782600,634.739563 41.583855,630.001709 
z"/>
<path fill="#E22731" opacity="1.000000" stroke="none" 
	d="
M474.160828,316.501709 
	C471.504883,312.431396 468.769989,308.013397 466.083221,303.204193 
	C468.781525,307.259979 471.431702,311.707001 474.160828,316.501709 
z"/>
<path fill="#E22731" opacity="1.000000" stroke="none" 
	d="
M426.182709,232.536804 
	C420.569733,231.223343 420.653656,225.864426 419.097961,221.192245 
	C421.469421,224.592102 423.784760,228.389389 426.182709,232.536804 
z"/>
<path fill="#E22731" opacity="1.000000" stroke="none" 
	d="
M131.591919,473.015167 
	C129.666977,477.120056 127.454811,481.416901 124.888458,485.527618 
	C126.791077,481.296692 129.047882,477.251892 131.591919,473.015167 
z"/>
<path fill="#E22731" opacity="1.000000" stroke="none" 
	d="
M73.149796,574.909302 
	C71.110588,579.129150 68.817375,583.516785 66.161270,587.892822 
	C68.164177,583.613159 70.529991,579.345154 73.149796,574.909302 
z"/>
<path fill="#E2262F" opacity="1.000000" stroke="none" 
	d="
M617.398193,566.974854 
	C616.706421,567.059143 615.456177,567.079041 615.207764,566.589966 
	C613.375122,562.982178 611.742432,559.272827 610.094849,555.198975 
	C612.529785,558.759888 614.916687,562.717407 617.398193,566.974854 
z"/>
<path fill="#E22731" opacity="1.000000" stroke="none" 
	d="
M123.536194,486.968933 
	C121.766556,490.848480 119.703667,494.913086 117.261047,498.956268 
	C119.001854,495.007874 121.122398,491.080963 123.536194,486.968933 
z"/>
<path fill="#E2262F" opacity="1.000000" stroke="none" 
	d="
M202.560760,348.980347 
	C200.668762,353.088531 198.484695,357.379059 195.933594,361.618347 
	C197.800598,357.432281 200.034653,353.297455 202.560760,348.980347 
z"/>
<path fill="#E22731" opacity="1.000000" stroke="none" 
	d="
M449.098999,272.552887 
	C446.797974,269.126251 444.418518,265.353424 442.095642,261.188354 
	C444.441681,264.599640 446.731140,268.403198 449.098999,272.552887 
z"/>
<path fill="#E22731" opacity="1.000000" stroke="none" 
	d="
M433.102722,244.543793 
	C430.807495,241.115677 428.425598,237.344009 426.105438,233.179337 
	C428.450134,236.590958 430.733063,240.395584 433.102722,244.543793 
z"/>
<path fill="#E2262F" opacity="1.000000" stroke="none" 
	d="
M330.563904,123.988792 
	C328.676147,128.085068 326.496399,132.370712 323.949646,136.605881 
	C325.812378,132.429657 328.042145,128.303909 330.563904,123.988792 
z"/>
<path fill="#E2262F" opacity="1.000000" stroke="none" 
	d="
M610.156372,554.508301 
	C607.839417,551.478088 605.445496,548.100647 603.260742,544.363892 
	C603.640076,544.005066 603.810364,544.005554 603.980652,544.005981 
	C606.013611,547.390991 608.046509,550.776001 610.156372,554.508301 
z"/>
<path fill="#E21D28" opacity="1.000000" stroke="none" 
	d="
M186.571609,376.984558 
	C184.759811,380.839386 182.653259,384.875397 180.187042,388.912598 
	C181.977188,384.997742 184.127014,381.081726 186.571609,376.984558 
z"/>
<path fill="#E22731" opacity="1.000000" stroke="none" 
	d="
M169.643219,407.011444 
	C168.152328,410.227539 166.336517,413.566162 164.158966,416.892426 
	C165.637589,413.631378 167.477951,410.382660 169.643219,407.011444 
z"/>
<path fill="#E22731" opacity="1.000000" stroke="none" 
	d="
M400.438019,188.083130 
	C396.734131,186.689392 394.738068,183.882187 395.075226,179.236511 
	C396.875610,181.804214 398.632935,184.783752 400.438019,188.083130 
z"/>
<path fill="#E22731" opacity="1.000000" stroke="none" 
	d="
M394.051025,176.586945 
	C392.103729,173.812790 390.077393,170.693939 388.100220,167.185638 
	C390.090240,169.944885 392.031097,173.093552 394.051025,176.586945 
z"/>
<path fill="#E22731" opacity="1.000000" stroke="none" 
	d="
M553.434814,455.131226 
	C549.865601,453.664764 547.907104,450.841156 548.036011,446.315948 
	C549.828186,448.875732 551.610168,451.840759 553.434814,455.131226 
z"/>
<path fill="#E21D28" opacity="1.000000" stroke="none" 
	d="
M104.602936,520.132812 
	C103.418213,522.924744 101.963303,525.920227 100.147079,528.898438 
	C101.301422,526.032837 102.817085,523.184631 104.602936,520.132812 
z"/>
<path fill="#E22731" opacity="1.000000" stroke="none" 
	d="
M90.640152,545.004395 
	C89.395462,547.830444 87.825043,550.779785 85.897522,553.559998 
	C87.131767,550.636475 88.723099,547.882141 90.640152,545.004395 
z"/>
<path fill="#E22731" opacity="1.000000" stroke="none" 
	d="
M310.585632,159.003754 
	C309.426971,161.847687 307.976074,164.875153 306.160522,167.891144 
	C307.295074,164.982208 308.794220,162.084747 310.585632,159.003754 
z"/>
<path fill="#E22731" opacity="1.000000" stroke="none" 
	d="
M61.572098,594.999268 
	C60.416393,597.837769 58.970703,600.867737 57.159256,603.890015 
	C58.289703,600.985168 59.785908,598.087891 61.572098,594.999268 
z"/>
<path fill="#E22731" opacity="1.000000" stroke="none" 
	d="
M305.583862,167.998642 
	C306.183319,170.844879 306.279114,173.773041 302.171448,174.892395 
	C302.956268,172.640045 304.124786,170.410126 305.583862,167.998642 
z"/>
<path fill="#E21D28" opacity="1.000000" stroke="none" 
	d="
M191.614807,368.024963 
	C190.423508,370.812103 188.942154,373.785950 187.109375,376.842316 
	C188.280212,374.020447 189.802490,371.116058 191.614807,368.024963 
z"/>
<path fill="#E22731" opacity="1.000000" stroke="none" 
	d="
M453.327026,280.198669 
	C449.235779,279.966705 450.132568,276.160706 449.071838,273.232239 
	C450.474243,275.187012 451.843933,277.536652 453.327026,280.198669 
z"/>
<path fill="#E22731" opacity="1.000000" stroke="none" 
	d="
M155.572662,430.995972 
	C154.654099,433.436737 153.445938,436.066132 151.885437,438.496277 
	C152.783096,435.926239 154.033081,433.555420 155.572662,430.995972 
z"/>
<path fill="#E22731" opacity="1.000000" stroke="none" 
	d="
M415.423950,214.145203 
	C413.992371,212.189072 412.512726,209.910614 411.067993,207.235840 
	C412.527222,209.167297 413.951538,211.495087 415.423950,214.145203 
z"/>
<path fill="#E2262F" opacity="1.000000" stroke="none" 
	d="
M323.308899,136.903931 
	C322.245361,139.494263 320.876129,142.197830 319.142639,144.884552 
	C320.186615,142.250854 321.594879,139.634003 323.308899,136.903931 
z"/>
<path fill="#E22731" opacity="1.000000" stroke="none" 
	d="
M301.578369,175.003510 
	C300.674927,177.424973 299.482208,180.037430 297.920654,182.572723 
	C298.797607,180.061874 300.043365,177.628189 301.578369,175.003510 
z"/>
<path fill="#E22731" opacity="1.000000" stroke="none" 
	d="
M419.162842,220.510422 
	C417.896942,219.039551 416.550873,217.230545 415.414673,215.058258 
	C416.777222,216.520752 417.929932,218.346527 419.162842,220.510422 
z"/>
<path fill="#E22731" opacity="1.000000" stroke="none" 
	d="
M65.592125,588.010132 
	C64.757324,590.179626 63.637371,592.538208 62.148029,594.881287 
	C62.954750,592.643555 64.130859,590.421448 65.592125,588.010132 
z"/>
<path fill="#E22731" opacity="1.000000" stroke="none" 
	d="
M293.566467,188.987274 
	C292.743958,191.166183 291.635284,193.532181 290.157379,195.885956 
	C290.952179,193.640594 292.116241,191.407471 293.566467,188.987274 
z"/>
<path fill="#E2262F" opacity="1.000000" stroke="none" 
	d="
M318.575043,144.992096 
	C317.759064,147.174286 316.654266,149.540894 315.182495,151.902603 
	C315.972473,149.657318 317.129364,147.416916 318.575043,144.992096 
z"/>
<path fill="#E22731" opacity="1.000000" stroke="none" 
	d="
M602.120972,540.541626 
	C600.809204,538.793213 599.420471,536.704895 598.068726,534.227051 
	C599.418396,535.958923 600.731262,538.080322 602.120972,540.541626 
z"/>
<path fill="#E22731" opacity="1.000000" stroke="none" 
	d="
M578.123535,498.538483 
	C576.815186,496.783081 575.425110,494.688477 574.084595,492.203217 
	C575.436707,493.941437 576.739258,496.070374 578.123535,498.538483 
z"/>
<path fill="#E21D28" opacity="1.000000" stroke="none" 
	d="
M49.610130,616.016968 
	C48.786472,618.196350 47.673164,620.557678 46.193748,622.915405 
	C46.991920,620.674133 48.156200,618.436584 49.610130,616.016968 
z"/>
<path fill="#E2262F" opacity="1.000000" stroke="none" 
	d="
M223.297577,312.912048 
	C222.499039,315.076721 221.406281,317.378540 219.940231,319.642670 
	C220.712433,317.419708 221.857895,315.234467 223.297577,312.912048 
z"/>
<path fill="#E22731" opacity="1.000000" stroke="none" 
	d="
M297.123962,182.879089 
	C296.419098,184.778519 295.459869,186.837158 294.132874,188.875397 
	C294.799957,186.916107 295.834778,184.977203 297.123962,182.879089 
z"/>
<path fill="#E2262F" opacity="1.000000" stroke="none" 
	d="
M207.633881,340.054169 
	C206.805161,342.209381 205.697220,344.562073 204.225266,346.921509 
	C205.025726,344.702759 206.190201,342.477173 207.633881,340.054169 
z"/>
<path fill="#E22731" opacity="1.000000" stroke="none" 
	d="
M56.593781,603.997559 
	C56.124294,605.777710 55.371357,607.736084 54.096153,609.852173 
	C53.573895,610.009888 53.165916,610.009827 53.165916,610.009827 
	C54.214054,608.065186 55.262192,606.120483 56.593781,603.997559 
z"/>
<path fill="#E21D28" opacity="1.000000" stroke="none" 
	d="
M45.628021,623.026489 
	C45.151836,624.528198 44.395805,626.213501 43.277920,627.931091 
	C43.726772,626.378967 44.537476,624.794495 45.628021,623.026489 
z"/>
<path fill="#E2262F" opacity="1.000000" stroke="none" 
	d="
M210.630066,334.853485 
	C210.138840,336.397949 209.371277,338.150238 208.225189,339.910950 
	C208.682358,338.300049 209.518051,336.680695 210.630066,334.853485 
z"/>
<path fill="#E22731" opacity="1.000000" stroke="none" 
	d="
M548.002625,445.632080 
	C547.065613,444.507507 546.049561,443.055054 545.070374,441.219116 
	C546.046021,442.325104 546.984802,443.814636 548.002625,445.632080 
z"/>
<path fill="#E22731" opacity="1.000000" stroke="none" 
	d="
M455.877228,284.668091 
	C453.388184,284.952972 451.925568,284.117035 453.367371,281.041809 
	C454.369354,281.985474 455.106628,283.167938 455.877228,284.668091 
z"/>
<path fill="#E2262F" opacity="1.000000" stroke="none" 
	d="
M214.573013,327.984100 
	C214.088531,329.511444 213.317993,331.218506 212.175079,332.933899 
	C212.630783,331.349426 213.458862,329.756592 214.573013,327.984100 
z"/>
<path fill="#E21D28" opacity="1.000000" stroke="none" 
	d="
M52.555359,610.960815 
	C52.089367,612.498352 51.324615,614.203857 50.187347,615.906494 
	C50.628754,614.312012 51.442677,612.720337 52.555359,610.960815 
z"/>
<path fill="#E2262F" opacity="1.000000" stroke="none" 
	d="
M646.050537,617.619873 
	C645.922485,617.968689 645.737549,617.976562 645.275085,617.992249 
	C644.339661,616.481873 643.681763,614.963806 643.055725,613.058838 
	C644.056213,614.207581 645.024902,615.743225 646.050537,617.619873 
z"/>
<path fill="#E2262F" opacity="1.000000" stroke="none" 
	d="
M218.570557,320.977783 
	C218.097015,322.502533 217.338531,324.204468 216.207947,325.908325 
	C216.652420,324.325165 217.469009,322.740082 218.570557,320.977783 
z"/>
<path fill="#E2262F" opacity="1.000000" stroke="none" 
	d="
M314.613342,152.020599 
	C314.134827,153.524918 313.377228,155.215286 312.253174,156.925400 
	C312.702606,155.365646 313.518402,153.786163 314.613342,152.020599 
z"/>
<path fill="#E2262F" opacity="1.000000" stroke="none" 
	d="
M341.521912,104.921860 
	C341.303650,106.079765 340.802063,107.399345 339.914062,108.560074 
	C340.097961,107.295326 340.668274,106.189430 341.521912,104.921860 
z"/>
<path fill="#E21D28" opacity="1.000000" stroke="none" 
	d="
M98.556572,530.949585 
	C98.172012,532.164246 97.500961,533.539490 96.470764,534.945312 
	C96.831108,533.687317 97.550591,532.398743 98.556572,530.949585 
z"/>
<path fill="#E21D28" opacity="1.000000" stroke="none" 
	d="
M194.536133,363.409210 
	C194.134933,364.892181 193.352264,366.392426 192.192001,367.900787 
	C192.594482,366.414795 193.374557,364.920624 194.536133,363.409210 
z"/>
<path fill="#E21D28" opacity="1.000000" stroke="none" 
	d="
M178.059631,391.689209 
	C178.051910,392.664581 177.782715,393.716064 177.185211,394.927734 
	C177.170639,393.980408 177.484390,392.872833 178.059631,391.689209 
z"/>
<path fill="#E22731" opacity="1.000000" stroke="none" 
	d="
M603.933228,543.692505 
	C603.810364,544.005554 603.640076,544.005066 603.213989,544.006958 
	C602.650879,543.183228 602.343628,542.357239 602.080627,541.176636 
	C602.711792,541.674377 603.298828,542.526733 603.933228,543.692505 
z"/>
<path fill="#E22731" opacity="1.000000" stroke="none" 
	d="
M667.240417,657.876404 
	C667.007568,657.223511 667.021606,656.437622 667.057251,655.258057 
	C667.392944,655.324585 667.707031,655.784668 668.064270,656.532593 
	C667.900696,657.127991 667.693970,657.435669 667.240417,657.876404 
z"/>
<path fill="#E21D28" opacity="1.000000" stroke="none" 
	d="
M179.606903,389.047455 
	C179.720337,389.765259 179.530685,390.683624 178.991913,391.721954 
	C178.863129,390.977295 179.083481,390.112640 179.606903,389.047455 
z"/>
<path fill="#E22731" opacity="1.000000" stroke="none" 
	d="
M458.505554,289.296265 
	C458.001801,288.944458 457.515472,288.274139 457.059875,287.229370 
	C457.568054,287.562531 458.045502,288.270142 458.505554,289.296265 
z"/>
<path fill="#E22731" opacity="1.000000" stroke="none" 
	d="
M342.614319,102.983223 
	C342.706055,103.441742 342.524170,104.057564 342.022766,104.788208 
	C341.915710,104.315536 342.128204,103.728027 342.614319,102.983223 
z"/>
<path fill="#E22731" opacity="1.000000" stroke="none" 
	d="
M395.148132,178.640869 
	C394.831573,178.473068 394.455597,178.001663 394.075592,177.200134 
	C394.410583,177.359085 394.749634,177.848160 395.148132,178.640869 
z"/>
<path fill="#E2262F" opacity="1.000000" stroke="none" 
	d="
M225.581848,308.704651 
	C225.876251,308.771515 225.907532,309.024994 225.978058,309.660034 
	C225.729004,310.274384 225.440689,310.507172 224.862061,310.695557 
	C224.820740,310.064575 225.069748,309.477966 225.581848,308.704651 
z"/>
<path fill="#E2262F" opacity="1.000000" stroke="none" 
	d="
M224.416840,310.876343 
	C224.541245,311.365326 224.398300,311.997192 223.898315,312.640778 
	C223.744003,312.108063 223.946732,311.563660 224.416840,310.876343 
z"/>
<path fill="#E22731" opacity="1.000000" stroke="none" 
	d="
M42.695641,628.072083 
	C42.762703,628.497131 42.577419,629.096497 42.092125,629.822815 
	C42.009174,629.381958 42.226234,628.814209 42.695641,628.072083 
z"/>
<path fill="#E22731" opacity="1.000000" stroke="none" 
	d="
M311.685730,157.059753 
	C311.756104,157.486374 311.573761,158.089188 311.090576,158.821198 
	C311.004181,158.378906 311.218597,157.807419 311.685730,157.059753 
z"/>
<path fill="#E2262F" opacity="1.000000" stroke="none" 
	d="
M215.641205,326.014282 
	C215.733841,326.462952 215.561768,327.078705 215.077667,327.816315 
	C214.969269,327.352570 215.172882,326.766937 215.641205,326.014282 
z"/>
<path fill="#E21D28" opacity="1.000000" stroke="none" 
	d="
M99.611328,528.979858 
	C99.720352,529.443848 99.556915,530.070618 99.075806,530.818848 
	C98.951706,530.341125 99.145279,529.741821 99.611328,528.979858 
z"/>
<path fill="#E22731" opacity="1.000000" stroke="none" 
	d="
M411.126770,206.650970 
	C410.816193,206.478378 410.446686,206.001770 410.075287,205.196426 
	C410.404846,205.360779 410.736359,205.853851 411.126770,206.650970 
z"/>
<path fill="#E2262F" opacity="1.000000" stroke="none" 
	d="
M203.664993,347.035767 
	C203.741776,347.473022 203.559143,348.081268 203.068802,348.813538 
	C202.975906,348.360565 203.190750,347.783661 203.664993,347.035767 
z"/>
<path fill="#E22731" opacity="1.000000" stroke="none" 
	d="
M579.190125,500.616669 
	C578.861511,500.448669 578.470947,499.971466 578.101685,499.155365 
	C578.458069,499.313446 578.793152,499.810455 579.190125,500.616669 
z"/>
<path fill="#E22731" opacity="1.000000" stroke="none" 
	d="
M116.667107,499.041809 
	C116.751335,499.484802 116.568886,500.088928 116.082260,500.818481 
	C115.985535,500.363617 116.192978,499.783264 116.667107,499.041809 
z"/>
<path fill="#E2262F" opacity="1.000000" stroke="none" 
	d="
M195.526993,361.905640 
	C195.713486,362.250854 195.494980,362.604614 195.094528,363.217224 
	C194.982391,362.955444 195.052200,362.434814 195.526993,361.905640 
z"/>
<path fill="#E21D28" opacity="1.000000" stroke="none" 
	d="
M53.029800,610.216675 
	C53.165916,610.009827 53.573895,610.009888 53.777584,610.004883 
	C53.751286,610.265564 53.521297,610.531311 53.021690,610.847534 
	C52.752079,610.898132 52.893681,610.423523 53.029800,610.216675 
z"/>
<path fill="#E22731" opacity="1.000000" stroke="none" 
	d="
M457.066711,286.682953 
	C456.851105,286.738983 456.545166,286.525177 456.148621,286.037354 
	C456.364136,285.979889 456.670227,286.196503 457.066711,286.682953 
z"/>
<path fill="#E22731" opacity="1.000000" stroke="none" 
	d="
M667.060059,654.686646 
	C666.840942,654.740784 666.541138,654.520325 666.150146,654.027588 
	C666.365845,653.974243 666.672546,654.193115 667.060059,654.686646 
z"/>
<path fill="#E2262F" opacity="1.000000" stroke="none" 
	d="
M339.452454,108.755447 
	C339.619904,109.068939 339.486877,109.409210 339.080383,109.843704 
	C338.921906,109.552689 339.036926,109.167458 339.452454,108.755447 
z"/>
<path fill="#E22731" opacity="1.000000" stroke="none" 
	d="
M124.416733,485.741699 
	C124.579460,486.056396 124.448891,486.400909 124.030670,486.817322 
	C123.869820,486.516632 123.996628,486.144043 124.416733,485.741699 
z"/>
<path fill="#E2262F" opacity="1.000000" stroke="none" 
	d="
M219.446136,319.748627 
	C219.606125,320.058960 219.469116,320.402405 219.049561,320.829529 
	C218.894394,320.536011 219.021774,320.158875 219.446136,319.748627 
z"/>
<path fill="#E22731" opacity="1.000000" stroke="none" 
	d="
M457.618713,519.820862 
	C460.640106,523.358215 464.151764,526.965637 466.717438,531.152710 
	C470.222839,536.873413 472.823944,543.140503 476.154388,548.978394 
	C479.474884,554.798889 483.370087,560.289734 486.740662,566.083740 
	C492.568115,576.101074 498.184723,586.240967 503.720490,596.771790 
	C503.310944,597.399292 503.137909,597.634094 503.032166,597.918518 
	C491.710358,578.613281 480.372253,559.317566 469.075775,539.997498 
	C465.225708,533.412964 461.480438,526.767151 457.618713,519.820862 
z"/>
<path fill="#E22731" opacity="1.000000" stroke="none" 
	d="
M178.854263,620.104858 
	C181.044662,615.042236 183.253387,609.679993 185.991302,604.603088 
	C191.668243,594.076416 197.571350,583.669739 203.525864,573.296631 
	C204.457855,571.673096 206.149185,570.485413 207.849548,569.110718 
	C198.510513,586.061646 188.811371,602.998047 178.854263,620.104858 
z"/>
<path fill="#E2262F" opacity="1.000000" stroke="none" 
	d="
M370.843658,370.495056 
	C372.523407,372.129303 374.650818,373.892792 375.982086,376.130066 
	C382.388153,386.895569 388.602173,397.775909 394.812225,408.656708 
	C395.443878,409.763428 395.593262,411.145355 395.922546,412.790161 
	C387.560577,399.067993 379.242493,384.955322 370.843658,370.495056 
z"/>
<path fill="#E22731" opacity="1.000000" stroke="none" 
	d="
M435.907471,482.400513 
	C437.675873,484.188019 439.959808,486.081573 441.329102,488.494263 
	C446.967865,498.429718 452.328888,508.522858 457.626129,518.903931 
	C450.307617,507.081604 443.155029,494.913391 435.907471,482.400513 
z"/>
<path fill="#E22731" opacity="1.000000" stroke="none" 
	d="
M416.841919,449.498230 
	C417.475616,449.442841 418.547485,449.525818 418.858765,450.055634 
	C424.143555,459.050842 429.349365,468.092682 434.513794,477.157745 
	C434.896179,477.828888 434.831268,478.754852 434.937469,479.963074 
	C428.909149,470.190674 422.917633,460.017609 416.841919,449.498230 
z"/>
<path fill="#E22731" opacity="1.000000" stroke="none" 
	d="
M237.701752,518.096863 
	C239.018600,514.390991 240.255844,510.326263 242.315018,506.732422 
	C245.401062,501.346344 249.064163,496.290924 252.843414,491.108704 
	C248.133316,500.064575 243.061646,509.006653 237.701752,518.096863 
z"/>
<path fill="#E22731" opacity="1.000000" stroke="none" 
	d="
M212.436951,562.019531 
	C213.106171,559.566650 213.775055,556.774719 215.091156,554.331543 
	C217.782715,549.335022 220.799057,544.511902 223.746201,539.656616 
	C224.134064,539.017639 224.900848,538.608765 225.856033,538.114746 
	C221.723160,546.036987 217.226364,553.937683 212.436951,562.019531 
z"/>
<path fill="#E22731" opacity="1.000000" stroke="none" 
	d="
M268.447510,465.028870 
	C269.662323,461.687927 270.870911,457.997498 272.749146,454.686920 
	C275.770782,449.360931 279.234558,444.285797 282.879517,439.131226 
	C278.412292,447.721832 273.577057,456.285828 268.447510,465.028870 
z"/>
<path fill="#E22731" opacity="1.000000" stroke="none" 
	d="
M283.449707,439.027344 
	C283.711243,433.383392 290.810547,420.627136 295.828522,417.096985 
	C292.036530,424.351746 287.887817,431.598114 283.449707,439.027344 
z"/>
<path fill="#E22731" opacity="1.000000" stroke="none" 
	d="
M166.306274,641.862122 
	C167.211136,638.731873 167.944977,635.136230 169.647690,632.080444 
	C171.949478,627.949585 174.995483,624.233337 178.088654,620.407349 
	C174.492401,627.529358 170.529663,634.583313 166.306274,641.862122 
z"/>
<path fill="#E2262F" opacity="1.000000" stroke="none" 
	d="
M347.842865,330.488770 
	C348.254395,330.201660 349.043915,330.102325 349.181519,330.356262 
	C353.150085,337.679443 357.053375,345.038025 360.922791,352.785339 
	C356.557922,345.733612 352.237457,338.287384 347.842865,330.488770 
z"/>
<path fill="#E22731" opacity="1.000000" stroke="none" 
	d="
M296.396576,416.973572 
	C298.113678,412.435028 299.894714,407.590881 302.204620,403.013641 
	C303.486816,400.472870 305.651917,398.377594 307.775360,396.075195 
	C304.314880,402.972412 300.498138,409.875946 296.396576,416.973572 
z"/>
<path fill="#E22731" opacity="1.000000" stroke="none" 
	d="
M226.428955,538.002197 
	C226.931671,535.794373 227.366745,533.193909 228.588455,531.039612 
	C231.064896,526.672729 233.967255,522.547302 237.063782,518.351074 
	C233.861404,524.856934 230.289322,531.334167 226.428955,538.002197 
z"/>
<path fill="#E22731" opacity="1.000000" stroke="none" 
	d="
M406.889038,432.461548 
	C412.487335,436.121094 414.692139,442.291901 416.902466,448.815826 
	C413.555817,443.740204 410.265472,438.273010 406.889038,432.461548 
z"/>
<path fill="#E21D28" opacity="1.000000" stroke="none" 
	d="
M525.880859,637.456055 
	C526.741150,637.833252 528.039185,638.361572 528.569580,639.316284 
	C531.145569,643.953369 533.515869,648.704712 535.912842,653.805176 
	C532.566040,648.731018 529.265442,643.267334 525.880859,637.456055 
z"/>
<path fill="#E22731" opacity="1.000000" stroke="none" 
	d="
M316.431122,382.007355 
	C318.927917,376.878937 321.716400,371.564819 324.845398,366.153198 
	C322.364868,371.311035 319.543823,376.566345 316.431122,382.007355 
z"/>
<path fill="#E22731" opacity="1.000000" stroke="none" 
	d="
M253.419495,490.997559 
	C253.559601,486.277954 255.493622,482.156891 259.797424,479.084229 
	C258.006866,482.992432 255.858932,486.902283 253.419495,490.997559 
z"/>
<path fill="#E2262F" opacity="1.000000" stroke="none" 
	d="
M339.408508,341.991882 
	C341.236420,338.148010 343.353943,334.118164 345.845154,330.108490 
	C344.045258,334.021088 341.871704,337.913513 339.408508,341.991882 
z"/>
<path fill="#E22731" opacity="1.000000" stroke="none" 
	d="
M261.432861,477.015350 
	C263.265015,473.167816 265.390228,469.139618 267.879272,465.131042 
	C266.070709,469.045349 263.898315,472.940002 261.432861,477.015350 
z"/>
<path fill="#E22731" opacity="1.000000" stroke="none" 
	d="
M400.959961,421.007141 
	C402.964691,424.456085 404.969421,427.905029 406.926971,431.765869 
	C404.737396,428.665161 402.595001,425.152496 400.531342,421.319153 
	C400.610046,420.998413 400.959961,421.007141 400.959961,421.007141 
z"/>
<path fill="#E2262F" opacity="1.000000" stroke="none" 
	d="
M363.838806,358.504944 
	C366.155823,361.914703 368.559967,365.669342 370.907196,369.813538 
	C368.542145,366.418640 366.234070,362.634247 363.838806,358.504944 
z"/>
<path fill="#E2262F" opacity="1.000000" stroke="none" 
	d="
M329.408630,359.005981 
	C329.723602,355.197662 330.272797,351.196320 334.897919,349.164948 
	C333.413849,352.353302 331.566315,355.603943 329.408630,359.005981 
z"/>
<path fill="#E31824" opacity="1.000000" stroke="none" 
	d="
M158.411407,655.008789 
	C160.139435,651.493225 162.163284,647.801758 164.528824,644.072510 
	C162.816086,647.634094 160.761658,651.233459 158.411407,655.008789 
z"/>
<path fill="#E21D28" opacity="1.000000" stroke="none" 
	d="
M514.901428,618.441284 
	C516.534546,620.843811 518.249329,623.592957 519.953430,626.728638 
	C518.289490,624.339355 516.636292,621.563660 514.901428,618.441284 
z"/>
<path fill="#E22731" opacity="1.000000" stroke="none" 
	d="
M308.359070,395.941376 
	C307.584229,393.014771 308.407562,390.530212 311.812195,389.103180 
	C311.002930,391.318939 309.822693,393.536224 308.359070,395.941376 
z"/>
<path fill="#E22731" opacity="1.000000" stroke="none" 
	d="
M208.416595,568.996460 
	C209.251190,566.826843 210.370941,564.468933 211.862152,562.126587 
	C211.056320,564.364075 209.879028,566.586121 208.416595,568.996460 
z"/>
<path fill="#E2262F" opacity="1.000000" stroke="none" 
	d="
M335.452881,349.030548 
	C336.262421,346.840759 337.363007,344.469940 338.832031,342.106232 
	C338.048279,344.358734 336.896118,346.604126 335.452881,349.030548 
z"/>
<path fill="#E22731" opacity="1.000000" stroke="none" 
	d="
M312.394592,388.978943 
	C313.233826,386.813385 314.358337,384.459595 315.852509,382.120575 
	C315.041412,384.353790 313.860657,386.572266 312.394592,388.978943 
z"/>
<path fill="#E2262F" opacity="1.000000" stroke="none" 
	d="
M395.874512,413.446777 
	C396.853180,414.552002 397.908630,415.987762 398.911072,417.811798 
	C397.889160,416.725830 396.920227,415.251587 395.874512,413.446777 
z"/>
<path fill="#E21D28" opacity="1.000000" stroke="none" 
	d="
M522.842712,632.397095 
	C523.814819,633.510559 524.888245,634.950684 525.927551,636.782715 
	C524.910278,635.690918 523.927185,634.207397 522.842712,632.397095 
z"/>
<path fill="#E21D28" opacity="1.000000" stroke="none" 
	d="
M504.960632,601.386719 
	C505.905975,602.510437 506.940369,603.960449 507.929199,605.796021 
	C506.938965,604.692017 505.994293,603.202515 504.960632,601.386719 
z"/>
<path fill="#E21D28" opacity="1.000000" stroke="none" 
	d="
M507.875275,606.449951 
	C508.852020,607.619080 509.914185,609.124634 510.943298,611.033569 
	C509.927063,609.886780 508.943848,608.336609 507.875275,606.449951 
z"/>
<path fill="#E2262F" opacity="1.000000" stroke="none" 
	d="
M360.879425,353.446075 
	C361.851898,354.556488 362.906708,355.995209 363.900024,357.823242 
	C362.879608,356.733185 361.920685,355.253784 360.879425,353.446075 
z"/>
<path fill="#E21D28" opacity="1.000000" stroke="none" 
	d="
M511.922668,613.408752 
	C512.887634,614.517822 513.935486,615.954712 514.942627,617.776917 
	C513.936462,616.687012 512.971008,615.211792 511.922668,613.408752 
z"/>
<path fill="#E2262F" opacity="1.000000" stroke="none" 
	d="
M325.997559,364.000000 
	C326.831787,362.416901 327.666016,360.833832 328.843536,359.152802 
	C328.524994,360.509033 327.863129,361.963226 326.804382,363.708069 
	C326.407471,363.998779 325.997559,364.000000 325.997559,364.000000 
z"/>
<path fill="#E21D28" opacity="1.000000" stroke="none" 
	d="
M519.963013,627.353943 
	C520.661743,627.982605 521.439270,628.910034 521.968872,630.008667 
	C521.161255,629.337524 520.601501,628.495056 519.963013,627.353943 
z"/>
<path fill="#E2262F" opacity="1.000000" stroke="none" 
	d="
M400.976593,420.638550 
	C400.959961,421.007141 400.610046,420.998413 400.435028,420.997314 
	C399.815887,420.255463 399.371765,419.514740 398.848633,418.456360 
	C399.510803,418.849121 400.252014,419.559509 400.976593,420.638550 
z"/>
<path fill="#E2262F" opacity="1.000000" stroke="none" 
	d="
M346.419800,330.184265 
	C346.315857,329.648682 346.498596,329.064209 346.681335,328.479706 
	C347.088135,328.845123 347.494965,329.210571 347.882385,329.904755 
	C347.477509,330.200775 347.091949,330.168060 346.419800,330.184265 
z"/>
<path fill="#E21D28" opacity="1.000000" stroke="none" 
	d="
M503.054321,598.194763 
	C503.137909,597.634094 503.310944,597.399292 503.751465,597.123291 
	C503.955322,597.514893 503.958893,597.997192 503.914062,598.840454 
	C503.602631,598.957947 503.339569,598.714478 503.054321,598.194763 
z"/>
<path fill="#E22731" opacity="1.000000" stroke="none" 
	d="
M260.351562,478.981018 
	C260.263428,478.535614 260.440765,477.924347 260.925415,477.186340 
	C261.027496,477.644806 260.822266,478.229980 260.351562,478.981018 
z"/>
<path fill="#E21D28" opacity="1.000000" stroke="none" 
	d="
M503.834900,599.357422 
	C504.158173,599.520813 504.541901,599.991272 504.932129,600.794067 
	C504.590851,600.639099 504.243103,600.151794 503.834900,599.357422 
z"/>
<path fill="#E21D28" opacity="1.000000" stroke="none" 
	d="
M511.139160,612.289551 
	C511.416901,612.166870 511.645294,612.385498 511.879639,612.918945 
	C511.706390,612.942871 511.441101,612.741943 511.139160,612.289551 
z"/>
<path fill="#E31824" opacity="1.000000" stroke="none" 
	d="
M165.321487,643.229614 
	C165.229965,643.030762 165.382904,642.665955 165.798721,642.158203 
	C165.896378,642.364746 165.731155,642.714233 165.321487,643.229614 
z"/>
<path fill="#E22731" opacity="1.000000" stroke="none" 
	d="
M325.311707,366.063477 
	C325.236755,365.854401 325.419159,365.542053 325.861572,365.133575 
	C325.937439,365.345032 325.753235,365.652649 325.311707,366.063477 
z"/>
<path fill="#E22731" opacity="1.000000" stroke="none" 
	d="
M326.008423,364.275177 
	C325.997559,364.000000 326.407471,363.998779 326.612244,363.998047 
	C326.919312,364.365143 326.809326,364.651398 326.273529,364.977875 
	C326.046448,364.916534 326.032837,364.733429 326.008423,364.275177 
z"/>
</svg>