<svg xmlns="http://www.w3.org/2000/svg" viewBox="0 0 528 528"><defs><style>.d{fill:#859797;}.e{opacity:.6;}</style></defs><g id="a"/><g id="b"><g id="c"><g class="e"><polygon class="d" points="5.87 13.34 5.87 7.41 0 7.41 0 5.93 5.87 5.93 5.87 0 7.34 0 7.34 5.93 13.22 5.93 13.22 7.41 7.35 7.41 7.35 13.34 5.87 13.34"/><polygon class="d" points="38.05 13.34 38.05 7.41 32.17 7.41 32.17 5.93 38.05 5.93 38.05 0 39.52 0 39.52 5.93 45.39 5.93 45.39 7.41 39.52 7.41 39.52 13.34 38.05 13.34"/><polygon class="d" points="70.22 13.34 70.22 7.41 64.35 7.41 64.35 5.93 70.22 5.93 70.22 0 71.69 0 71.69 5.93 77.56 5.93 77.56 7.41 71.69 7.41 71.69 13.34 70.22 13.34"/><polygon class="d" points="102.39 13.34 102.39 7.41 96.52 7.41 96.52 5.93 102.39 5.93 102.39 0 103.86 0 103.86 5.93 109.74 5.93 109.74 7.41 103.87 7.41 103.87 13.34 102.39 13.34"/><polygon class="d" points="134.57 13.34 134.57 7.41 128.7 7.41 128.7 5.93 134.57 5.93 134.57 0 136.04 0 136.04 5.93 141.91 5.93 141.91 7.41 136.04 7.41 136.04 13.34 134.57 13.34"/><polygon class="d" points="166.74 13.34 166.74 7.41 160.87 7.41 160.87 5.93 166.74 5.93 166.74 0 168.21 0 168.21 5.93 174.09 5.93 174.09 7.41 168.21 7.41 168.21 13.34 166.74 13.34"/><polygon class="d" points="198.91 13.34 198.91 7.41 193.04 7.41 193.04 5.93 198.91 5.93 198.91 0 200.39 0 200.39 5.93 206.26 5.93 206.26 7.41 200.39 7.41 200.39 13.34 198.91 13.34"/><polygon class="d" points="231.09 13.34 231.09 7.41 225.22 7.41 225.22 5.93 231.09 5.93 231.09 0 232.56 0 232.56 5.93 238.43 5.93 238.43 7.41 232.56 7.41 232.56 13.34 231.09 13.34"/><polygon class="d" points="263.26 13.34 263.26 7.41 257.39 7.41 257.39 5.93 263.26 5.93 263.26 0 264.73 0 264.73 5.93 270.61 5.93 270.61 7.41 264.74 7.41 264.74 13.34 263.26 13.34"/><polygon class="d" points="295.44 13.34 295.44 7.41 289.56 7.41 289.56 5.93 295.44 5.93 295.44 0 296.91 0 296.91 5.93 302.78 5.93 302.78 7.41 296.91 7.41 296.91 13.34 295.44 13.34"/><polygon class="d" points="327.61 13.34 327.61 7.41 321.74 7.41 321.74 5.93 327.61 5.93 327.61 0 329.08 0 329.08 5.93 334.96 5.93 334.96 7.41 329.08 7.41 329.08 13.34 327.61 13.34"/><polygon class="d" points="359.78 13.34 359.78 7.41 353.91 7.41 353.91 5.93 359.78 5.93 359.78 0 361.25 0 361.25 5.93 367.13 5.93 367.13 7.41 361.26 7.41 361.26 13.34 359.78 13.34"/><polygon class="d" points="391.96 13.34 391.96 7.41 386.09 7.41 386.09 5.93 391.96 5.93 391.96 0 393.43 0 393.43 5.93 399.3 5.93 399.3 7.41 393.43 7.41 393.43 13.34 391.96 13.34"/><polygon class="d" points="424.13 13.34 424.13 7.41 418.26 7.41 418.26 5.93 424.13 5.93 424.13 0 425.6 0 425.6 5.93 431.48 5.93 431.48 7.41 425.6 7.41 425.6 13.34 424.13 13.34"/><polygon class="d" points="456.3 13.34 456.3 7.41 450.43 7.41 450.43 5.93 456.3 5.93 456.3 0 457.78 0 457.78 5.93 463.65 5.93 463.65 7.41 457.78 7.41 457.78 13.34 456.3 13.34"/><polygon class="d" points="488.48 13.34 488.48 7.41 482.61 7.41 482.61 5.93 488.48 5.93 488.48 0 489.95 0 489.95 5.93 495.82 5.93 495.82 7.41 489.95 7.41 489.95 13.34 488.48 13.34"/><polygon class="d" points="520.65 13.34 520.65 7.41 514.78 7.41 514.78 5.93 520.65 5.93 520.65 0 522.12 0 522.12 5.93 528 5.93 528 7.41 522.13 7.41 522.13 13.34 520.65 13.34"/><polygon class="d" points="5.87 41.93 5.87 36 0 36 0 34.52 5.87 34.52 5.87 28.59 7.34 28.59 7.34 34.52 13.22 34.52 13.22 36 7.35 36 7.35 41.93 5.87 41.93"/><polygon class="d" points="38.05 41.93 38.05 36 32.17 36 32.17 34.52 38.05 34.52 38.05 28.59 39.52 28.59 39.52 34.52 45.39 34.52 45.39 36 39.52 36 39.52 41.93 38.05 41.93"/><polygon class="d" points="70.22 41.93 70.22 36 64.35 36 64.35 34.52 70.22 34.52 70.22 28.59 71.69 28.59 71.69 34.52 77.56 34.52 77.56 36 71.69 36 71.69 41.93 70.22 41.93"/><polygon class="d" points="102.39 41.93 102.39 36 96.52 36 96.52 34.52 102.39 34.52 102.39 28.59 103.86 28.59 103.86 34.52 109.74 34.52 109.74 36 103.87 36 103.87 41.93 102.39 41.93"/><polygon class="d" points="134.57 41.93 134.57 36 128.7 36 128.7 34.52 134.57 34.52 134.57 28.59 136.04 28.59 136.04 34.52 141.91 34.52 141.91 36 136.04 36 136.04 41.93 134.57 41.93"/><polygon class="d" points="166.74 41.93 166.74 36 160.87 36 160.87 34.52 166.74 34.52 166.74 28.59 168.21 28.59 168.21 34.52 174.09 34.52 174.09 36 168.21 36 168.21 41.93 166.74 41.93"/><polygon class="d" points="198.91 41.93 198.91 36 193.04 36 193.04 34.52 198.91 34.52 198.91 28.59 200.39 28.59 200.39 34.52 206.26 34.52 206.26 36 200.39 36 200.39 41.93 198.91 41.93"/><polygon class="d" points="231.09 41.93 231.09 36 225.22 36 225.22 34.52 231.09 34.52 231.09 28.59 232.56 28.59 232.56 34.52 238.43 34.52 238.43 36 232.56 36 232.56 41.93 231.09 41.93"/><polygon class="d" points="263.26 41.93 263.26 36 257.39 36 257.39 34.52 263.26 34.52 263.26 28.59 264.73 28.59 264.73 34.52 270.61 34.52 270.61 36 264.74 36 264.74 41.93 263.26 41.93"/><polygon class="d" points="295.44 41.93 295.44 36 289.56 36 289.56 34.52 295.44 34.52 295.44 28.59 296.91 28.59 296.91 34.52 302.78 34.52 302.78 36 296.91 36 296.91 41.93 295.44 41.93"/><polygon class="d" points="327.61 41.93 327.61 36 321.74 36 321.74 34.52 327.61 34.52 327.61 28.59 329.08 28.59 329.08 34.52 334.96 34.52 334.96 36 329.08 36 329.08 41.93 327.61 41.93"/><polygon class="d" points="359.78 41.93 359.78 36 353.91 36 353.91 34.52 359.78 34.52 359.78 28.59 361.25 28.59 361.25 34.52 367.13 34.52 367.13 36 361.26 36 361.26 41.93 359.78 41.93"/><polygon class="d" points="391.96 41.93 391.96 36 386.09 36 386.09 34.52 391.96 34.52 391.96 28.59 393.43 28.59 393.43 34.52 399.3 34.52 399.3 36 393.43 36 393.43 41.93 391.96 41.93"/><polygon class="d" points="424.13 41.93 424.13 36 418.26 36 418.26 34.52 424.13 34.52 424.13 28.59 425.6 28.59 425.6 34.52 431.48 34.52 431.48 36 425.6 36 425.6 41.93 424.13 41.93"/><polygon class="d" points="456.3 41.93 456.3 36 450.43 36 450.43 34.52 456.3 34.52 456.3 28.59 457.78 28.59 457.78 34.52 463.65 34.52 463.65 36 457.78 36 457.78 41.93 456.3 41.93"/><polygon class="d" points="488.48 41.93 488.48 36 482.61 36 482.61 34.52 488.48 34.52 488.48 28.59 489.95 28.59 489.95 34.52 495.82 34.52 495.82 36 489.95 36 489.95 41.93 488.48 41.93"/><polygon class="d" points="520.65 41.93 520.65 36 514.78 36 514.78 34.52 520.65 34.52 520.65 28.59 522.12 28.59 522.12 34.52 528 34.52 528 36 522.13 36 522.13 41.93 520.65 41.93"/><polygon class="d" points="5.87 70.52 5.87 64.6 0 64.6 0 63.11 5.87 63.11 5.87 57.18 7.34 57.18 7.34 63.11 13.22 63.11 13.22 64.6 7.35 64.6 7.35 70.52 5.87 70.52"/><polygon class="d" points="38.05 70.52 38.05 64.6 32.17 64.6 32.17 63.11 38.05 63.11 38.05 57.18 39.52 57.18 39.52 63.11 45.39 63.11 45.39 64.6 39.52 64.6 39.52 70.52 38.05 70.52"/><polygon class="d" points="70.22 70.52 70.22 64.6 64.35 64.6 64.35 63.11 70.22 63.11 70.22 57.18 71.69 57.18 71.69 63.11 77.56 63.11 77.56 64.6 71.69 64.6 71.69 70.52 70.22 70.52"/><polygon class="d" points="102.39 70.52 102.39 64.6 96.52 64.6 96.52 63.11 102.39 63.11 102.39 57.18 103.86 57.18 103.86 63.11 109.74 63.11 109.74 64.6 103.87 64.6 103.87 70.52 102.39 70.52"/><polygon class="d" points="134.57 70.52 134.57 64.6 128.7 64.6 128.7 63.11 134.57 63.11 134.57 57.18 136.04 57.18 136.04 63.11 141.91 63.11 141.91 64.6 136.04 64.6 136.04 70.52 134.57 70.52"/><polygon class="d" points="166.74 70.52 166.74 64.6 160.87 64.6 160.87 63.11 166.74 63.11 166.74 57.18 168.21 57.18 168.21 63.11 174.09 63.11 174.09 64.6 168.21 64.6 168.21 70.52 166.74 70.52"/><polygon class="d" points="198.91 70.52 198.91 64.6 193.04 64.6 193.04 63.11 198.91 63.11 198.91 57.18 200.39 57.18 200.39 63.11 206.26 63.11 206.26 64.6 200.39 64.6 200.39 70.52 198.91 70.52"/><polygon class="d" points="231.09 70.52 231.09 64.6 225.22 64.6 225.22 63.11 231.09 63.11 231.09 57.18 232.56 57.18 232.56 63.11 238.43 63.11 238.43 64.6 232.56 64.6 232.56 70.52 231.09 70.52"/><polygon class="d" points="263.26 70.52 263.26 64.6 257.39 64.6 257.39 63.11 263.26 63.11 263.26 57.18 264.73 57.18 264.73 63.11 270.61 63.11 270.61 64.6 264.74 64.6 264.74 70.52 263.26 70.52"/><polygon class="d" points="295.44 70.52 295.44 64.6 289.56 64.6 289.56 63.11 295.44 63.11 295.44 57.18 296.91 57.18 296.91 63.11 302.78 63.11 302.78 64.6 296.91 64.6 296.91 70.52 295.44 70.52"/><polygon class="d" points="327.61 70.52 327.61 64.6 321.74 64.6 321.74 63.11 327.61 63.11 327.61 57.18 329.08 57.18 329.08 63.11 334.96 63.11 334.96 64.6 329.08 64.6 329.08 70.52 327.61 70.52"/><polygon class="d" points="359.78 70.52 359.78 64.6 353.91 64.6 353.91 63.11 359.78 63.11 359.78 57.18 361.25 57.18 361.25 63.11 367.13 63.11 367.13 64.6 361.26 64.6 361.26 70.52 359.78 70.52"/><polygon class="d" points="391.96 70.52 391.96 64.6 386.09 64.6 386.09 63.11 391.96 63.11 391.96 57.18 393.43 57.18 393.43 63.11 399.3 63.11 399.3 64.6 393.43 64.6 393.43 70.52 391.96 70.52"/><polygon class="d" points="424.13 70.52 424.13 64.6 418.26 64.6 418.26 63.11 424.13 63.11 424.13 57.18 425.6 57.18 425.6 63.11 431.48 63.11 431.48 64.6 425.6 64.6 425.6 70.52 424.13 70.52"/><polygon class="d" points="456.3 70.52 456.3 64.6 450.43 64.6 450.43 63.11 456.3 63.11 456.3 57.18 457.78 57.18 457.78 63.11 463.65 63.11 463.65 64.6 457.78 64.6 457.78 70.52 456.3 70.52"/><polygon class="d" points="488.48 70.52 488.48 64.6 482.61 64.6 482.61 63.11 488.48 63.11 488.48 57.18 489.95 57.18 489.95 63.11 495.82 63.11 495.82 64.6 489.95 64.6 489.95 70.52 488.48 70.52"/><polygon class="d" points="520.65 70.52 520.65 64.6 514.78 64.6 514.78 63.11 520.65 63.11 520.65 57.18 522.12 57.18 522.12 63.11 528 63.11 528 64.6 522.13 64.6 522.13 70.52 520.65 70.52"/><polygon class="d" points="5.87 99.11 5.87 93.19 0 93.19 0 91.7 5.87 91.7 5.87 85.78 7.34 85.78 7.34 91.7 13.22 91.7 13.22 93.19 7.35 93.19 7.35 99.11 5.87 99.11"/><polygon class="d" points="38.05 99.11 38.05 93.19 32.17 93.19 32.17 91.7 38.05 91.7 38.05 85.78 39.52 85.78 39.52 91.7 45.39 91.7 45.39 93.19 39.52 93.19 39.52 99.11 38.05 99.11"/><polygon class="d" points="70.22 99.11 70.22 93.19 64.35 93.19 64.35 91.7 70.22 91.7 70.22 85.78 71.69 85.78 71.69 91.7 77.56 91.7 77.56 93.19 71.69 93.19 71.69 99.11 70.22 99.11"/><polygon class="d" points="102.39 99.11 102.39 93.19 96.52 93.19 96.52 91.7 102.39 91.7 102.39 85.78 103.86 85.78 103.86 91.7 109.74 91.7 109.74 93.19 103.87 93.19 103.87 99.11 102.39 99.11"/><polygon class="d" points="134.57 99.11 134.57 93.19 128.7 93.19 128.7 91.7 134.57 91.7 134.57 85.78 136.04 85.78 136.04 91.7 141.91 91.7 141.91 93.19 136.04 93.19 136.04 99.11 134.57 99.11"/><polygon class="d" points="166.74 99.11 166.74 93.19 160.87 93.19 160.87 91.7 166.74 91.7 166.74 85.78 168.21 85.78 168.21 91.7 174.09 91.7 174.09 93.19 168.21 93.19 168.21 99.11 166.74 99.11"/><polygon class="d" points="198.91 99.11 198.91 93.19 193.04 93.19 193.04 91.7 198.91 91.7 198.91 85.78 200.39 85.78 200.39 91.7 206.26 91.7 206.26 93.19 200.39 93.19 200.39 99.11 198.91 99.11"/><polygon class="d" points="231.09 99.11 231.09 93.19 225.22 93.19 225.22 91.7 231.09 91.7 231.09 85.78 232.56 85.78 232.56 91.7 238.43 91.7 238.43 93.19 232.56 93.19 232.56 99.11 231.09 99.11"/><polygon class="d" points="263.26 99.11 263.26 93.19 257.39 93.19 257.39 91.7 263.26 91.7 263.26 85.78 264.73 85.78 264.73 91.7 270.61 91.7 270.61 93.19 264.74 93.19 264.74 99.11 263.26 99.11"/><polygon class="d" points="295.44 99.11 295.44 93.19 289.56 93.19 289.56 91.7 295.44 91.7 295.44 85.78 296.91 85.78 296.91 91.7 302.78 91.7 302.78 93.19 296.91 93.19 296.91 99.11 295.44 99.11"/><polygon class="d" points="327.61 99.11 327.61 93.19 321.74 93.19 321.74 91.7 327.61 91.7 327.61 85.78 329.08 85.78 329.08 91.7 334.96 91.7 334.96 93.19 329.08 93.19 329.08 99.11 327.61 99.11"/><polygon class="d" points="359.78 99.11 359.78 93.19 353.91 93.19 353.91 91.7 359.78 91.7 359.78 85.78 361.25 85.78 361.25 91.7 367.13 91.7 367.13 93.19 361.26 93.19 361.26 99.11 359.78 99.11"/><polygon class="d" points="391.96 99.11 391.96 93.19 386.09 93.19 386.09 91.7 391.96 91.7 391.96 85.78 393.43 85.78 393.43 91.7 399.3 91.7 399.3 93.19 393.43 93.19 393.43 99.11 391.96 99.11"/><polygon class="d" points="424.13 99.11 424.13 93.19 418.26 93.19 418.26 91.7 424.13 91.7 424.13 85.78 425.6 85.78 425.6 91.7 431.48 91.7 431.48 93.19 425.6 93.19 425.6 99.11 424.13 99.11"/><polygon class="d" points="456.3 99.11 456.3 93.19 450.43 93.19 450.43 91.7 456.3 91.7 456.3 85.78 457.78 85.78 457.78 91.7 463.65 91.7 463.65 93.19 457.78 93.19 457.78 99.11 456.3 99.11"/><polygon class="d" points="488.48 99.11 488.48 93.19 482.61 93.19 482.61 91.7 488.48 91.7 488.48 85.78 489.95 85.78 489.95 91.7 495.82 91.7 495.82 93.19 489.95 93.19 489.95 99.11 488.48 99.11"/><polygon class="d" points="520.65 99.11 520.65 93.19 514.78 93.19 514.78 91.7 520.65 91.7 520.65 85.78 522.12 85.78 522.12 91.7 528 91.7 528 93.19 522.13 93.19 522.13 99.11 520.65 99.11"/><polygon class="d" points="5.87 127.71 5.87 121.78 0 121.78 0 120.3 5.87 120.3 5.87 114.37 7.34 114.37 7.34 120.3 13.22 120.3 13.22 121.78 7.35 121.78 7.35 127.71 5.87 127.71"/><polygon class="d" points="38.05 127.71 38.05 121.78 32.17 121.78 32.17 120.3 38.05 120.3 38.05 114.37 39.52 114.37 39.52 120.3 45.39 120.3 45.39 121.78 39.52 121.78 39.52 127.71 38.05 127.71"/><polygon class="d" points="70.22 127.71 70.22 121.78 64.35 121.78 64.35 120.3 70.22 120.3 70.22 114.37 71.69 114.37 71.69 120.3 77.56 120.3 77.56 121.78 71.69 121.78 71.69 127.71 70.22 127.71"/><polygon class="d" points="102.39 127.71 102.39 121.78 96.52 121.78 96.52 120.3 102.39 120.3 102.39 114.37 103.86 114.37 103.86 120.3 109.74 120.3 109.74 121.78 103.87 121.78 103.87 127.71 102.39 127.71"/><polygon class="d" points="134.57 127.71 134.57 121.78 128.7 121.78 128.7 120.3 134.57 120.3 134.57 114.37 136.04 114.37 136.04 120.3 141.91 120.3 141.91 121.78 136.04 121.78 136.04 127.71 134.57 127.71"/><polygon class="d" points="166.74 127.71 166.74 121.78 160.87 121.78 160.87 120.3 166.74 120.3 166.74 114.37 168.21 114.37 168.21 120.3 174.09 120.3 174.09 121.78 168.21 121.78 168.21 127.71 166.74 127.71"/><polygon class="d" points="198.91 127.71 198.91 121.78 193.04 121.78 193.04 120.3 198.91 120.3 198.91 114.37 200.39 114.37 200.39 120.3 206.26 120.3 206.26 121.78 200.39 121.78 200.39 127.71 198.91 127.71"/><polygon class="d" points="231.09 127.71 231.09 121.78 225.22 121.78 225.22 120.3 231.09 120.3 231.09 114.37 232.56 114.37 232.56 120.3 238.43 120.3 238.43 121.78 232.56 121.78 232.56 127.71 231.09 127.71"/><polygon class="d" points="263.26 127.71 263.26 121.78 257.39 121.78 257.39 120.3 263.26 120.3 263.26 114.37 264.73 114.37 264.73 120.3 270.61 120.3 270.61 121.78 264.74 121.78 264.74 127.71 263.26 127.71"/><polygon class="d" points="295.44 127.71 295.44 121.78 289.56 121.78 289.56 120.3 295.44 120.3 295.44 114.37 296.91 114.37 296.91 120.3 302.78 120.3 302.78 121.78 296.91 121.78 296.91 127.71 295.44 127.71"/><polygon class="d" points="327.61 127.71 327.61 121.78 321.74 121.78 321.74 120.3 327.61 120.3 327.61 114.37 329.08 114.37 329.08 120.3 334.96 120.3 334.96 121.78 329.08 121.78 329.08 127.71 327.61 127.71"/><polygon class="d" points="359.78 127.71 359.78 121.78 353.91 121.78 353.91 120.3 359.78 120.3 359.78 114.37 361.25 114.37 361.25 120.3 367.13 120.3 367.13 121.78 361.26 121.78 361.26 127.71 359.78 127.71"/><polygon class="d" points="391.96 127.71 391.96 121.78 386.09 121.78 386.09 120.3 391.96 120.3 391.96 114.37 393.43 114.37 393.43 120.3 399.3 120.3 399.3 121.78 393.43 121.78 393.43 127.71 391.96 127.71"/><polygon class="d" points="424.13 127.71 424.13 121.78 418.26 121.78 418.26 120.3 424.13 120.3 424.13 114.37 425.6 114.37 425.6 120.3 431.48 120.3 431.48 121.78 425.6 121.78 425.6 127.71 424.13 127.71"/><polygon class="d" points="456.3 127.71 456.3 121.78 450.43 121.78 450.43 120.3 456.3 120.3 456.3 114.37 457.78 114.37 457.78 120.3 463.65 120.3 463.65 121.78 457.78 121.78 457.78 127.71 456.3 127.71"/><polygon class="d" points="488.48 127.71 488.48 121.78 482.61 121.78 482.61 120.3 488.48 120.3 488.48 114.37 489.95 114.37 489.95 120.3 495.82 120.3 495.82 121.78 489.95 121.78 489.95 127.71 488.48 127.71"/><polygon class="d" points="520.65 127.71 520.65 121.78 514.78 121.78 514.78 120.3 520.65 120.3 520.65 114.37 522.12 114.37 522.12 120.3 528 120.3 528 121.78 522.13 121.78 522.13 127.71 520.65 127.71"/><polygon class="d" points="5.87 156.3 5.87 150.37 0 150.37 0 148.89 5.87 148.89 5.87 142.96 7.34 142.96 7.34 148.89 13.22 148.89 13.22 150.37 7.35 150.37 7.35 156.3 5.87 156.3"/><polygon class="d" points="38.05 156.3 38.05 150.37 32.17 150.37 32.17 148.89 38.05 148.89 38.05 142.96 39.52 142.96 39.52 148.89 45.39 148.89 45.39 150.37 39.52 150.37 39.52 156.3 38.05 156.3"/><polygon class="d" points="70.22 156.3 70.22 150.37 64.35 150.37 64.35 148.89 70.22 148.89 70.22 142.96 71.69 142.96 71.69 148.89 77.56 148.89 77.56 150.37 71.69 150.37 71.69 156.3 70.22 156.3"/><polygon class="d" points="102.39 156.3 102.39 150.37 96.52 150.37 96.52 148.89 102.39 148.89 102.39 142.96 103.86 142.96 103.86 148.89 109.74 148.89 109.74 150.37 103.87 150.37 103.87 156.3 102.39 156.3"/><polygon class="d" points="134.57 156.3 134.57 150.37 128.7 150.37 128.7 148.89 134.57 148.89 134.57 142.96 136.04 142.96 136.04 148.89 141.91 148.89 141.91 150.37 136.04 150.37 136.04 156.3 134.57 156.3"/><polygon class="d" points="166.74 156.3 166.74 150.37 160.87 150.37 160.87 148.89 166.74 148.89 166.74 142.96 168.21 142.96 168.21 148.89 174.09 148.89 174.09 150.37 168.21 150.37 168.21 156.3 166.74 156.3"/><polygon class="d" points="198.91 156.3 198.91 150.37 193.04 150.37 193.04 148.89 198.91 148.89 198.91 142.96 200.39 142.96 200.39 148.89 206.26 148.89 206.26 150.37 200.39 150.37 200.39 156.3 198.91 156.3"/><polygon class="d" points="231.09 156.3 231.09 150.37 225.22 150.37 225.22 148.89 231.09 148.89 231.09 142.96 232.56 142.96 232.56 148.89 238.43 148.89 238.43 150.37 232.56 150.37 232.56 156.3 231.09 156.3"/><polygon class="d" points="263.26 156.3 263.26 150.37 257.39 150.37 257.39 148.89 263.26 148.89 263.26 142.96 264.73 142.96 264.73 148.89 270.61 148.89 270.61 150.37 264.74 150.37 264.74 156.3 263.26 156.3"/><polygon class="d" points="295.44 156.3 295.44 150.37 289.56 150.37 289.56 148.89 295.44 148.89 295.44 142.96 296.91 142.96 296.91 148.89 302.78 148.89 302.78 150.37 296.91 150.37 296.91 156.3 295.44 156.3"/><polygon class="d" points="327.61 156.3 327.61 150.37 321.74 150.37 321.74 148.89 327.61 148.89 327.61 142.96 329.08 142.96 329.08 148.89 334.96 148.89 334.96 150.37 329.08 150.37 329.08 156.3 327.61 156.3"/><polygon class="d" points="359.78 156.3 359.78 150.37 353.91 150.37 353.91 148.89 359.78 148.89 359.78 142.96 361.25 142.96 361.25 148.89 367.13 148.89 367.13 150.37 361.26 150.37 361.26 156.3 359.78 156.3"/><polygon class="d" points="391.96 156.3 391.96 150.37 386.09 150.37 386.09 148.89 391.96 148.89 391.96 142.96 393.43 142.96 393.43 148.89 399.3 148.89 399.3 150.37 393.43 150.37 393.43 156.3 391.96 156.3"/><polygon class="d" points="424.13 156.3 424.13 150.37 418.26 150.37 418.26 148.89 424.13 148.89 424.13 142.96 425.6 142.96 425.6 148.89 431.48 148.89 431.48 150.37 425.6 150.37 425.6 156.3 424.13 156.3"/><polygon class="d" points="456.3 156.3 456.3 150.37 450.43 150.37 450.43 148.89 456.3 148.89 456.3 142.96 457.78 142.96 457.78 148.89 463.65 148.89 463.65 150.37 457.78 150.37 457.78 156.3 456.3 156.3"/><polygon class="d" points="488.48 156.3 488.48 150.37 482.61 150.37 482.61 148.89 488.48 148.89 488.48 142.96 489.95 142.96 489.95 148.89 495.82 148.89 495.82 150.37 489.95 150.37 489.95 156.3 488.48 156.3"/><polygon class="d" points="520.65 156.3 520.65 150.37 514.78 150.37 514.78 148.89 520.65 148.89 520.65 142.96 522.12 142.96 522.12 148.89 528 148.89 528 150.37 522.13 150.37 522.13 156.3 520.65 156.3"/><polygon class="d" points="5.87 184.89 5.87 178.96 0 178.96 0 177.48 5.87 177.48 5.87 171.55 7.34 171.55 7.34 177.48 13.22 177.48 13.22 178.96 7.35 178.96 7.35 184.89 5.87 184.89"/><polygon class="d" points="38.05 184.89 38.05 178.96 32.17 178.96 32.17 177.48 38.05 177.48 38.05 171.55 39.52 171.55 39.52 177.48 45.39 177.48 45.39 178.96 39.52 178.96 39.52 184.89 38.05 184.89"/><polygon class="d" points="70.22 184.89 70.22 178.96 64.35 178.96 64.35 177.48 70.22 177.48 70.22 171.55 71.69 171.55 71.69 177.48 77.56 177.48 77.56 178.96 71.69 178.96 71.69 184.89 70.22 184.89"/><polygon class="d" points="102.39 184.89 102.39 178.96 96.52 178.96 96.52 177.48 102.39 177.48 102.39 171.55 103.86 171.55 103.86 177.48 109.74 177.48 109.74 178.96 103.87 178.96 103.87 184.89 102.39 184.89"/><polygon class="d" points="134.57 184.89 134.57 178.96 128.7 178.96 128.7 177.48 134.57 177.48 134.57 171.55 136.04 171.55 136.04 177.48 141.91 177.48 141.91 178.96 136.04 178.96 136.04 184.89 134.57 184.89"/><polygon class="d" points="166.74 184.89 166.74 178.96 160.87 178.96 160.87 177.48 166.74 177.48 166.74 171.55 168.21 171.55 168.21 177.48 174.09 177.48 174.09 178.96 168.21 178.96 168.21 184.89 166.74 184.89"/><polygon class="d" points="198.91 184.89 198.91 178.96 193.04 178.96 193.04 177.48 198.91 177.48 198.91 171.55 200.39 171.55 200.39 177.48 206.26 177.48 206.26 178.96 200.39 178.96 200.39 184.89 198.91 184.89"/><polygon class="d" points="231.09 184.89 231.09 178.96 225.22 178.96 225.22 177.48 231.09 177.48 231.09 171.55 232.56 171.55 232.56 177.48 238.43 177.48 238.43 178.96 232.56 178.96 232.56 184.89 231.09 184.89"/><polygon class="d" points="263.26 184.89 263.26 178.96 257.39 178.96 257.39 177.48 263.26 177.48 263.26 171.55 264.73 171.55 264.73 177.48 270.61 177.48 270.61 178.96 264.74 178.96 264.74 184.89 263.26 184.89"/><polygon class="d" points="295.44 184.89 295.44 178.96 289.56 178.96 289.56 177.48 295.44 177.48 295.44 171.55 296.91 171.55 296.91 177.48 302.78 177.48 302.78 178.96 296.91 178.96 296.91 184.89 295.44 184.89"/><polygon class="d" points="327.61 184.89 327.61 178.96 321.74 178.96 321.74 177.48 327.61 177.48 327.61 171.55 329.08 171.55 329.08 177.48 334.96 177.48 334.96 178.96 329.08 178.96 329.08 184.89 327.61 184.89"/><polygon class="d" points="359.78 184.89 359.78 178.96 353.91 178.96 353.91 177.48 359.78 177.48 359.78 171.55 361.25 171.55 361.25 177.48 367.13 177.48 367.13 178.96 361.26 178.96 361.26 184.89 359.78 184.89"/><polygon class="d" points="391.96 184.89 391.96 178.96 386.09 178.96 386.09 177.48 391.96 177.48 391.96 171.55 393.43 171.55 393.43 177.48 399.3 177.48 399.3 178.96 393.43 178.96 393.43 184.89 391.96 184.89"/><polygon class="d" points="424.13 184.89 424.13 178.96 418.26 178.96 418.26 177.48 424.13 177.48 424.13 171.55 425.6 171.55 425.6 177.48 431.48 177.48 431.48 178.96 425.6 178.96 425.6 184.89 424.13 184.89"/><polygon class="d" points="456.3 184.89 456.3 178.96 450.43 178.96 450.43 177.48 456.3 177.48 456.3 171.55 457.78 171.55 457.78 177.48 463.65 177.48 463.65 178.96 457.78 178.96 457.78 184.89 456.3 184.89"/><polygon class="d" points="488.48 184.89 488.48 178.96 482.61 178.96 482.61 177.48 488.48 177.48 488.48 171.55 489.95 171.55 489.95 177.48 495.82 177.48 495.82 178.96 489.95 178.96 489.95 184.89 488.48 184.89"/><polygon class="d" points="520.65 184.89 520.65 178.96 514.78 178.96 514.78 177.48 520.65 177.48 520.65 171.55 522.12 171.55 522.12 177.48 528 177.48 528 178.96 522.13 178.96 522.13 184.89 520.65 184.89"/><polygon class="d" points="5.87 213.48 5.87 207.56 0 207.56 0 206.07 5.87 206.07 5.87 200.15 7.34 200.15 7.34 206.07 13.22 206.07 13.22 207.56 7.35 207.56 7.35 213.48 5.87 213.48"/><polygon class="d" points="38.05 213.48 38.05 207.56 32.17 207.56 32.17 206.07 38.05 206.07 38.05 200.15 39.52 200.15 39.52 206.07 45.39 206.07 45.39 207.56 39.52 207.56 39.52 213.48 38.05 213.48"/><polygon class="d" points="70.22 213.48 70.22 207.56 64.35 207.56 64.35 206.07 70.22 206.07 70.22 200.15 71.69 200.15 71.69 206.07 77.56 206.07 77.56 207.56 71.69 207.56 71.69 213.48 70.22 213.48"/><polygon class="d" points="102.39 213.48 102.39 207.56 96.52 207.56 96.52 206.07 102.39 206.07 102.39 200.15 103.86 200.15 103.86 206.07 109.74 206.07 109.74 207.56 103.87 207.56 103.87 213.48 102.39 213.48"/><polygon class="d" points="134.57 213.48 134.57 207.56 128.7 207.56 128.7 206.07 134.57 206.07 134.57 200.15 136.04 200.15 136.04 206.07 141.91 206.07 141.91 207.56 136.04 207.56 136.04 213.48 134.57 213.48"/><polygon class="d" points="166.74 213.48 166.74 207.56 160.87 207.56 160.87 206.07 166.74 206.07 166.74 200.15 168.21 200.15 168.21 206.07 174.09 206.07 174.09 207.56 168.21 207.56 168.21 213.48 166.74 213.48"/><polygon class="d" points="198.91 213.48 198.91 207.56 193.04 207.56 193.04 206.07 198.91 206.07 198.91 200.15 200.39 200.15 200.39 206.07 206.26 206.07 206.26 207.56 200.39 207.56 200.39 213.48 198.91 213.48"/><polygon class="d" points="231.09 213.48 231.09 207.56 225.22 207.56 225.22 206.07 231.09 206.07 231.09 200.15 232.56 200.15 232.56 206.07 238.43 206.07 238.43 207.56 232.56 207.56 232.56 213.48 231.09 213.48"/><polygon class="d" points="263.26 213.48 263.26 207.56 257.39 207.56 257.39 206.07 263.26 206.07 263.26 200.15 264.73 200.15 264.73 206.07 270.61 206.07 270.61 207.56 264.74 207.56 264.74 213.48 263.26 213.48"/><polygon class="d" points="295.44 213.48 295.44 207.56 289.56 207.56 289.56 206.07 295.44 206.07 295.44 200.15 296.91 200.15 296.91 206.07 302.78 206.07 302.78 207.56 296.91 207.56 296.91 213.48 295.44 213.48"/><polygon class="d" points="327.61 213.48 327.61 207.56 321.74 207.56 321.74 206.07 327.61 206.07 327.61 200.15 329.08 200.15 329.08 206.07 334.96 206.07 334.96 207.56 329.08 207.56 329.08 213.48 327.61 213.48"/><polygon class="d" points="359.78 213.48 359.78 207.56 353.91 207.56 353.91 206.07 359.78 206.07 359.78 200.15 361.25 200.15 361.25 206.07 367.13 206.07 367.13 207.56 361.26 207.56 361.26 213.48 359.78 213.48"/><polygon class="d" points="391.96 213.48 391.96 207.56 386.09 207.56 386.09 206.07 391.96 206.07 391.96 200.15 393.43 200.15 393.43 206.07 399.3 206.07 399.3 207.56 393.43 207.56 393.43 213.48 391.96 213.48"/><polygon class="d" points="424.13 213.48 424.13 207.56 418.26 207.56 418.26 206.07 424.13 206.07 424.13 200.15 425.6 200.15 425.6 206.07 431.48 206.07 431.48 207.56 425.6 207.56 425.6 213.48 424.13 213.48"/><polygon class="d" points="456.3 213.48 456.3 207.56 450.43 207.56 450.43 206.07 456.3 206.07 456.3 200.15 457.78 200.15 457.78 206.07 463.65 206.07 463.65 207.56 457.78 207.56 457.78 213.48 456.3 213.48"/><polygon class="d" points="488.48 213.48 488.48 207.56 482.61 207.56 482.61 206.07 488.48 206.07 488.48 200.15 489.95 200.15 489.95 206.07 495.82 206.07 495.82 207.56 489.95 207.56 489.95 213.48 488.48 213.48"/><polygon class="d" points="520.65 213.48 520.65 207.56 514.78 207.56 514.78 206.07 520.65 206.07 520.65 200.15 522.12 200.15 522.12 206.07 528 206.07 528 207.56 522.13 207.56 522.13 213.48 520.65 213.48"/><polygon class="d" points="5.87 242.08 5.87 236.15 0 236.15 0 234.66 5.87 234.66 5.87 228.74 7.34 228.74 7.34 234.66 13.22 234.66 13.22 236.15 7.35 236.15 7.35 242.08 5.87 242.08"/><polygon class="d" points="38.05 242.08 38.05 236.15 32.17 236.15 32.17 234.66 38.05 234.66 38.05 228.74 39.52 228.74 39.52 234.66 45.39 234.66 45.39 236.15 39.52 236.15 39.52 242.08 38.05 242.08"/><polygon class="d" points="70.22 242.08 70.22 236.15 64.35 236.15 64.35 234.66 70.22 234.66 70.22 228.74 71.69 228.74 71.69 234.66 77.56 234.66 77.56 236.15 71.69 236.15 71.69 242.08 70.22 242.08"/><polygon class="d" points="102.39 242.08 102.39 236.15 96.52 236.15 96.52 234.66 102.39 234.66 102.39 228.74 103.86 228.74 103.86 234.66 109.74 234.66 109.74 236.15 103.87 236.15 103.87 242.08 102.39 242.08"/><polygon class="d" points="134.57 242.08 134.57 236.15 128.7 236.15 128.7 234.66 134.57 234.66 134.57 228.74 136.04 228.74 136.04 234.66 141.91 234.66 141.91 236.15 136.04 236.15 136.04 242.08 134.57 242.08"/><polygon class="d" points="166.74 242.08 166.74 236.15 160.87 236.15 160.87 234.66 166.74 234.66 166.74 228.74 168.21 228.74 168.21 234.66 174.09 234.66 174.09 236.15 168.21 236.15 168.21 242.08 166.74 242.08"/><polygon class="d" points="198.91 242.08 198.91 236.15 193.04 236.15 193.04 234.66 198.91 234.66 198.91 228.74 200.39 228.74 200.39 234.66 206.26 234.66 206.26 236.15 200.39 236.15 200.39 242.08 198.91 242.08"/><polygon class="d" points="231.09 242.08 231.09 236.15 225.22 236.15 225.22 234.66 231.09 234.66 231.09 228.74 232.56 228.74 232.56 234.66 238.43 234.66 238.43 236.15 232.56 236.15 232.56 242.08 231.09 242.08"/><polygon class="d" points="263.26 242.08 263.26 236.15 257.39 236.15 257.39 234.66 263.26 234.66 263.26 228.74 264.73 228.74 264.73 234.66 270.61 234.66 270.61 236.15 264.74 236.15 264.74 242.08 263.26 242.08"/><polygon class="d" points="295.44 242.08 295.44 236.15 289.56 236.15 289.56 234.66 295.44 234.66 295.44 228.74 296.91 228.74 296.91 234.66 302.78 234.66 302.78 236.15 296.91 236.15 296.91 242.08 295.44 242.08"/><polygon class="d" points="327.61 242.08 327.61 236.15 321.74 236.15 321.74 234.66 327.61 234.66 327.61 228.74 329.08 228.74 329.08 234.66 334.96 234.66 334.96 236.15 329.08 236.15 329.08 242.08 327.61 242.08"/><polygon class="d" points="359.78 242.08 359.78 236.15 353.91 236.15 353.91 234.66 359.78 234.66 359.78 228.74 361.25 228.74 361.25 234.66 367.13 234.66 367.13 236.15 361.26 236.15 361.26 242.08 359.78 242.08"/><polygon class="d" points="391.96 242.08 391.96 236.15 386.09 236.15 386.09 234.66 391.96 234.66 391.96 228.74 393.43 228.74 393.43 234.66 399.3 234.66 399.3 236.15 393.43 236.15 393.43 242.08 391.96 242.08"/><polygon class="d" points="424.13 242.08 424.13 236.15 418.26 236.15 418.26 234.66 424.13 234.66 424.13 228.74 425.6 228.74 425.6 234.66 431.48 234.66 431.48 236.15 425.6 236.15 425.6 242.08 424.13 242.08"/><polygon class="d" points="456.3 242.08 456.3 236.15 450.43 236.15 450.43 234.66 456.3 234.66 456.3 228.74 457.78 228.74 457.78 234.66 463.65 234.66 463.65 236.15 457.78 236.15 457.78 242.08 456.3 242.08"/><polygon class="d" points="488.48 242.08 488.48 236.15 482.61 236.15 482.61 234.66 488.48 234.66 488.48 228.74 489.95 228.74 489.95 234.66 495.82 234.66 495.82 236.15 489.95 236.15 489.95 242.08 488.48 242.08"/><polygon class="d" points="520.65 242.08 520.65 236.15 514.78 236.15 514.78 234.66 520.65 234.66 520.65 228.74 522.12 228.74 522.12 234.66 528 234.66 528 236.15 522.13 236.15 522.13 242.08 520.65 242.08"/><polygon class="d" points="5.87 270.67 5.87 264.74 0 264.74 0 263.26 5.87 263.26 5.87 257.33 7.34 257.33 7.34 263.26 13.22 263.26 13.22 264.74 7.35 264.74 7.35 270.67 5.87 270.67"/><polygon class="d" points="38.05 270.67 38.05 264.74 32.17 264.74 32.17 263.26 38.05 263.26 38.05 257.33 39.52 257.33 39.52 263.26 45.39 263.26 45.39 264.74 39.52 264.74 39.52 270.67 38.05 270.67"/><polygon class="d" points="70.22 270.67 70.22 264.74 64.35 264.74 64.35 263.26 70.22 263.26 70.22 257.33 71.69 257.33 71.69 263.26 77.56 263.26 77.56 264.74 71.69 264.74 71.69 270.67 70.22 270.67"/><polygon class="d" points="102.39 270.67 102.39 264.74 96.52 264.74 96.52 263.26 102.39 263.26 102.39 257.33 103.86 257.33 103.86 263.26 109.74 263.26 109.74 264.74 103.87 264.74 103.87 270.67 102.39 270.67"/><polygon class="d" points="134.57 270.67 134.57 264.74 128.7 264.74 128.7 263.26 134.57 263.26 134.57 257.33 136.04 257.33 136.04 263.26 141.91 263.26 141.91 264.74 136.04 264.74 136.04 270.67 134.57 270.67"/><polygon class="d" points="166.74 270.67 166.74 264.74 160.87 264.74 160.87 263.26 166.74 263.26 166.74 257.33 168.21 257.33 168.21 263.26 174.09 263.26 174.09 264.74 168.21 264.74 168.21 270.67 166.74 270.67"/><polygon class="d" points="198.91 270.67 198.91 264.74 193.04 264.74 193.04 263.26 198.91 263.26 198.91 257.33 200.39 257.33 200.39 263.26 206.26 263.26 206.26 264.74 200.39 264.74 200.39 270.67 198.91 270.67"/><polygon class="d" points="231.09 270.67 231.09 264.74 225.22 264.74 225.22 263.26 231.09 263.26 231.09 257.33 232.56 257.33 232.56 263.26 238.43 263.26 238.43 264.74 232.56 264.74 232.56 270.67 231.09 270.67"/><polygon class="d" points="263.26 270.67 263.26 264.74 257.39 264.74 257.39 263.26 263.26 263.26 263.26 257.33 264.73 257.33 264.73 263.26 270.61 263.26 270.61 264.74 264.74 264.74 264.74 270.67 263.26 270.67"/><polygon class="d" points="295.44 270.67 295.44 264.74 289.56 264.74 289.56 263.26 295.44 263.26 295.44 257.33 296.91 257.33 296.91 263.26 302.78 263.26 302.78 264.74 296.91 264.74 296.91 270.67 295.44 270.67"/><polygon class="d" points="327.61 270.67 327.61 264.74 321.74 264.74 321.74 263.26 327.61 263.26 327.61 257.33 329.08 257.33 329.08 263.26 334.96 263.26 334.96 264.74 329.08 264.74 329.08 270.67 327.61 270.67"/><polygon class="d" points="359.78 270.67 359.78 264.74 353.91 264.74 353.91 263.26 359.78 263.26 359.78 257.33 361.25 257.33 361.25 263.26 367.13 263.26 367.13 264.74 361.26 264.74 361.26 270.67 359.78 270.67"/><polygon class="d" points="391.96 270.67 391.96 264.74 386.09 264.74 386.09 263.26 391.96 263.26 391.96 257.33 393.43 257.33 393.43 263.26 399.3 263.26 399.3 264.74 393.43 264.74 393.43 270.67 391.96 270.67"/><polygon class="d" points="424.13 270.67 424.13 264.74 418.26 264.74 418.26 263.26 424.13 263.26 424.13 257.33 425.6 257.33 425.6 263.26 431.48 263.26 431.48 264.74 425.6 264.74 425.6 270.67 424.13 270.67"/><polygon class="d" points="456.3 270.67 456.3 264.74 450.43 264.74 450.43 263.26 456.3 263.26 456.3 257.33 457.78 257.33 457.78 263.26 463.65 263.26 463.65 264.74 457.78 264.74 457.78 270.67 456.3 270.67"/><polygon class="d" points="488.48 270.67 488.48 264.74 482.61 264.74 482.61 263.26 488.48 263.26 488.48 257.33 489.95 257.33 489.95 263.26 495.82 263.26 495.82 264.74 489.95 264.74 489.95 270.67 488.48 270.67"/><polygon class="d" points="520.65 270.67 520.65 264.74 514.78 264.74 514.78 263.26 520.65 263.26 520.65 257.33 522.12 257.33 522.12 263.26 528 263.26 528 264.74 522.13 264.74 522.13 270.67 520.65 270.67"/><polygon class="d" points="5.87 299.26 5.87 293.33 0 293.33 0 291.85 5.87 291.85 5.87 285.92 7.34 285.92 7.34 291.85 13.22 291.85 13.22 293.33 7.35 293.33 7.35 299.26 5.87 299.26"/><polygon class="d" points="38.05 299.26 38.05 293.33 32.17 293.33 32.17 291.85 38.05 291.85 38.05 285.92 39.52 285.92 39.52 291.85 45.39 291.85 45.39 293.33 39.52 293.33 39.52 299.26 38.05 299.26"/><polygon class="d" points="70.22 299.26 70.22 293.33 64.35 293.33 64.35 291.85 70.22 291.85 70.22 285.92 71.69 285.92 71.69 291.85 77.56 291.85 77.56 293.33 71.69 293.33 71.69 299.26 70.22 299.26"/><polygon class="d" points="102.39 299.26 102.39 293.33 96.52 293.33 96.52 291.85 102.39 291.85 102.39 285.92 103.86 285.92 103.86 291.85 109.74 291.85 109.74 293.33 103.87 293.33 103.87 299.26 102.39 299.26"/><polygon class="d" points="134.57 299.26 134.57 293.33 128.7 293.33 128.7 291.85 134.57 291.85 134.57 285.92 136.04 285.92 136.04 291.85 141.91 291.85 141.91 293.33 136.04 293.33 136.04 299.26 134.57 299.26"/><polygon class="d" points="166.74 299.26 166.74 293.33 160.87 293.33 160.87 291.85 166.74 291.85 166.74 285.92 168.21 285.92 168.21 291.85 174.09 291.85 174.09 293.33 168.21 293.33 168.21 299.26 166.74 299.26"/><polygon class="d" points="198.91 299.26 198.91 293.33 193.04 293.33 193.04 291.85 198.91 291.85 198.91 285.92 200.39 285.92 200.39 291.85 206.26 291.85 206.26 293.33 200.39 293.33 200.39 299.26 198.91 299.26"/><polygon class="d" points="231.09 299.26 231.09 293.33 225.22 293.33 225.22 291.85 231.09 291.85 231.09 285.92 232.56 285.92 232.56 291.85 238.43 291.85 238.43 293.33 232.56 293.33 232.56 299.26 231.09 299.26"/><polygon class="d" points="263.26 299.26 263.26 293.33 257.39 293.33 257.39 291.85 263.26 291.85 263.26 285.92 264.73 285.92 264.73 291.85 270.61 291.85 270.61 293.33 264.74 293.33 264.74 299.26 263.26 299.26"/><polygon class="d" points="295.44 299.26 295.44 293.33 289.56 293.33 289.56 291.85 295.44 291.85 295.44 285.92 296.91 285.92 296.91 291.85 302.78 291.85 302.78 293.33 296.91 293.33 296.91 299.26 295.44 299.26"/><polygon class="d" points="327.61 299.26 327.61 293.33 321.74 293.33 321.74 291.85 327.61 291.85 327.61 285.92 329.08 285.92 329.08 291.85 334.96 291.85 334.96 293.33 329.08 293.33 329.08 299.26 327.61 299.26"/><polygon class="d" points="359.78 299.26 359.78 293.33 353.91 293.33 353.91 291.85 359.78 291.85 359.78 285.92 361.25 285.92 361.25 291.85 367.13 291.85 367.13 293.33 361.26 293.33 361.26 299.26 359.78 299.26"/><polygon class="d" points="391.96 299.26 391.96 293.33 386.09 293.33 386.09 291.85 391.96 291.85 391.96 285.92 393.43 285.92 393.43 291.85 399.3 291.85 399.3 293.33 393.43 293.33 393.43 299.26 391.96 299.26"/><polygon class="d" points="424.13 299.26 424.13 293.33 418.26 293.33 418.26 291.85 424.13 291.85 424.13 285.92 425.6 285.92 425.6 291.85 431.48 291.85 431.48 293.33 425.6 293.33 425.6 299.26 424.13 299.26"/><polygon class="d" points="456.3 299.26 456.3 293.33 450.43 293.33 450.43 291.85 456.3 291.85 456.3 285.92 457.78 285.92 457.78 291.85 463.65 291.85 463.65 293.33 457.78 293.33 457.78 299.26 456.3 299.26"/><polygon class="d" points="488.48 299.26 488.48 293.33 482.61 293.33 482.61 291.85 488.48 291.85 488.48 285.92 489.95 285.92 489.95 291.85 495.82 291.85 495.82 293.33 489.95 293.33 489.95 299.26 488.48 299.26"/><polygon class="d" points="520.65 299.26 520.65 293.33 514.78 293.33 514.78 291.85 520.65 291.85 520.65 285.92 522.12 285.92 522.12 291.85 528 291.85 528 293.33 522.13 293.33 522.13 299.26 520.65 299.26"/><polygon class="d" points="5.87 327.85 5.87 321.93 0 321.93 0 320.44 5.87 320.44 5.87 314.51 7.34 314.51 7.34 320.44 13.22 320.44 13.22 321.93 7.35 321.93 7.35 327.85 5.87 327.85"/><polygon class="d" points="38.05 327.85 38.05 321.93 32.17 321.93 32.17 320.44 38.05 320.44 38.05 314.51 39.52 314.51 39.52 320.44 45.39 320.44 45.39 321.93 39.52 321.93 39.52 327.85 38.05 327.85"/><polygon class="d" points="70.22 327.85 70.22 321.93 64.35 321.93 64.35 320.44 70.22 320.44 70.22 314.51 71.69 314.51 71.69 320.44 77.56 320.44 77.56 321.93 71.69 321.93 71.69 327.85 70.22 327.85"/><polygon class="d" points="102.39 327.85 102.39 321.93 96.52 321.93 96.52 320.44 102.39 320.44 102.39 314.51 103.86 314.51 103.86 320.44 109.74 320.44 109.74 321.93 103.87 321.93 103.87 327.85 102.39 327.85"/><polygon class="d" points="134.57 327.85 134.57 321.93 128.7 321.93 128.7 320.44 134.57 320.44 134.57 314.51 136.04 314.51 136.04 320.44 141.91 320.44 141.91 321.93 136.04 321.93 136.04 327.85 134.57 327.85"/><polygon class="d" points="166.74 327.85 166.74 321.93 160.87 321.93 160.87 320.44 166.74 320.44 166.74 314.51 168.21 314.51 168.21 320.44 174.09 320.44 174.09 321.93 168.21 321.93 168.21 327.85 166.74 327.85"/><polygon class="d" points="198.91 327.85 198.91 321.93 193.04 321.93 193.04 320.44 198.91 320.44 198.91 314.51 200.39 314.51 200.39 320.44 206.26 320.44 206.26 321.93 200.39 321.93 200.39 327.85 198.91 327.85"/><polygon class="d" points="231.09 327.85 231.09 321.93 225.22 321.93 225.22 320.44 231.09 320.44 231.09 314.51 232.56 314.51 232.56 320.44 238.43 320.44 238.43 321.93 232.56 321.93 232.56 327.85 231.09 327.85"/><polygon class="d" points="263.26 327.85 263.26 321.93 257.39 321.93 257.39 320.44 263.26 320.44 263.26 314.51 264.73 314.51 264.73 320.44 270.61 320.44 270.61 321.93 264.74 321.93 264.74 327.85 263.26 327.85"/><polygon class="d" points="295.44 327.85 295.44 321.93 289.56 321.93 289.56 320.44 295.44 320.44 295.44 314.51 296.91 314.51 296.91 320.44 302.78 320.44 302.78 321.93 296.91 321.93 296.91 327.85 295.44 327.85"/><polygon class="d" points="327.61 327.85 327.61 321.93 321.74 321.93 321.74 320.44 327.61 320.44 327.61 314.51 329.08 314.51 329.08 320.44 334.96 320.44 334.96 321.93 329.08 321.93 329.08 327.85 327.61 327.85"/><polygon class="d" points="359.78 327.85 359.78 321.93 353.91 321.93 353.91 320.44 359.78 320.44 359.78 314.51 361.25 314.51 361.25 320.44 367.13 320.44 367.13 321.93 361.26 321.93 361.26 327.85 359.78 327.85"/><polygon class="d" points="391.96 327.85 391.96 321.93 386.09 321.93 386.09 320.44 391.96 320.44 391.96 314.51 393.43 314.51 393.43 320.44 399.3 320.44 399.3 321.93 393.43 321.93 393.43 327.85 391.96 327.85"/><polygon class="d" points="424.13 327.85 424.13 321.93 418.26 321.93 418.26 320.44 424.13 320.44 424.13 314.51 425.6 314.51 425.6 320.44 431.48 320.44 431.48 321.93 425.6 321.93 425.6 327.85 424.13 327.85"/><polygon class="d" points="456.3 327.85 456.3 321.93 450.43 321.93 450.43 320.44 456.3 320.44 456.3 314.51 457.78 314.51 457.78 320.44 463.65 320.44 463.65 321.93 457.78 321.93 457.78 327.85 456.3 327.85"/><polygon class="d" points="488.48 327.85 488.48 321.93 482.61 321.93 482.61 320.44 488.48 320.44 488.48 314.51 489.95 314.51 489.95 320.44 495.82 320.44 495.82 321.93 489.95 321.93 489.95 327.85 488.48 327.85"/><polygon class="d" points="520.65 327.85 520.65 321.93 514.78 321.93 514.78 320.44 520.65 320.44 520.65 314.51 522.12 314.51 522.12 320.44 528 320.44 528 321.93 522.13 321.93 522.13 327.85 520.65 327.85"/><polygon class="d" points="5.87 356.44 5.87 350.52 0 350.52 0 349.03 5.87 349.03 5.87 343.11 7.34 343.11 7.34 349.03 13.22 349.03 13.22 350.52 7.35 350.52 7.35 356.44 5.87 356.44"/><polygon class="d" points="38.05 356.44 38.05 350.52 32.17 350.52 32.17 349.03 38.05 349.03 38.05 343.11 39.52 343.11 39.52 349.03 45.39 349.03 45.39 350.52 39.52 350.52 39.52 356.44 38.05 356.44"/><polygon class="d" points="70.22 356.44 70.22 350.52 64.35 350.52 64.35 349.03 70.22 349.03 70.22 343.11 71.69 343.11 71.69 349.03 77.56 349.03 77.56 350.52 71.69 350.52 71.69 356.44 70.22 356.44"/><polygon class="d" points="102.39 356.44 102.39 350.52 96.52 350.52 96.52 349.03 102.39 349.03 102.39 343.11 103.86 343.11 103.86 349.03 109.74 349.03 109.74 350.52 103.87 350.52 103.87 356.44 102.39 356.44"/><polygon class="d" points="134.57 356.44 134.57 350.52 128.7 350.52 128.7 349.03 134.57 349.03 134.57 343.11 136.04 343.11 136.04 349.03 141.91 349.03 141.91 350.52 136.04 350.52 136.04 356.44 134.57 356.44"/><polygon class="d" points="166.74 356.44 166.74 350.52 160.87 350.52 160.87 349.03 166.74 349.03 166.74 343.11 168.21 343.11 168.21 349.03 174.09 349.03 174.09 350.52 168.21 350.52 168.21 356.44 166.74 356.44"/><polygon class="d" points="198.91 356.44 198.91 350.52 193.04 350.52 193.04 349.03 198.91 349.03 198.91 343.11 200.39 343.11 200.39 349.03 206.26 349.03 206.26 350.52 200.39 350.52 200.39 356.44 198.91 356.44"/><polygon class="d" points="231.09 356.44 231.09 350.52 225.22 350.52 225.22 349.03 231.09 349.03 231.09 343.11 232.56 343.11 232.56 349.03 238.43 349.03 238.43 350.52 232.56 350.52 232.56 356.44 231.09 356.44"/><polygon class="d" points="263.26 356.44 263.26 350.52 257.39 350.52 257.39 349.03 263.26 349.03 263.26 343.11 264.73 343.11 264.73 349.03 270.61 349.03 270.61 350.52 264.74 350.52 264.74 356.44 263.26 356.44"/><polygon class="d" points="295.44 356.44 295.44 350.52 289.56 350.52 289.56 349.03 295.44 349.03 295.44 343.11 296.91 343.11 296.91 349.03 302.78 349.03 302.78 350.52 296.91 350.52 296.91 356.44 295.44 356.44"/><polygon class="d" points="327.61 356.44 327.61 350.52 321.74 350.52 321.74 349.03 327.61 349.03 327.61 343.11 329.08 343.11 329.08 349.03 334.96 349.03 334.96 350.52 329.08 350.52 329.08 356.44 327.61 356.44"/><polygon class="d" points="359.78 356.44 359.78 350.52 353.91 350.52 353.91 349.03 359.78 349.03 359.78 343.11 361.25 343.11 361.25 349.03 367.13 349.03 367.13 350.52 361.26 350.52 361.26 356.44 359.78 356.44"/><polygon class="d" points="391.96 356.44 391.96 350.52 386.09 350.52 386.09 349.03 391.96 349.03 391.96 343.11 393.43 343.11 393.43 349.03 399.3 349.03 399.3 350.52 393.43 350.52 393.43 356.44 391.96 356.44"/><polygon class="d" points="424.13 356.44 424.13 350.52 418.26 350.52 418.26 349.03 424.13 349.03 424.13 343.11 425.6 343.11 425.6 349.03 431.48 349.03 431.48 350.52 425.6 350.52 425.6 356.44 424.13 356.44"/><polygon class="d" points="456.3 356.44 456.3 350.52 450.43 350.52 450.43 349.03 456.3 349.03 456.3 343.11 457.78 343.11 457.78 349.03 463.65 349.03 463.65 350.52 457.78 350.52 457.78 356.44 456.3 356.44"/><polygon class="d" points="488.48 356.44 488.48 350.52 482.61 350.52 482.61 349.03 488.48 349.03 488.48 343.11 489.95 343.11 489.95 349.03 495.82 349.03 495.82 350.52 489.95 350.52 489.95 356.44 488.48 356.44"/><polygon class="d" points="520.65 356.44 520.65 350.52 514.78 350.52 514.78 349.03 520.65 349.03 520.65 343.11 522.12 343.11 522.12 349.03 528 349.03 528 350.52 522.13 350.52 522.13 356.44 520.65 356.44"/><polygon class="d" points="5.87 385.04 5.87 379.11 0 379.11 0 377.63 5.87 377.63 5.87 371.7 7.34 371.7 7.34 377.63 13.22 377.63 13.22 379.11 7.35 379.11 7.35 385.04 5.87 385.04"/><polygon class="d" points="38.05 385.04 38.05 379.11 32.17 379.11 32.17 377.63 38.05 377.63 38.05 371.7 39.52 371.7 39.52 377.63 45.39 377.63 45.39 379.11 39.52 379.11 39.52 385.04 38.05 385.04"/><polygon class="d" points="70.22 385.04 70.22 379.11 64.35 379.11 64.35 377.63 70.22 377.63 70.22 371.7 71.69 371.7 71.69 377.63 77.56 377.63 77.56 379.11 71.69 379.11 71.69 385.04 70.22 385.04"/><polygon class="d" points="102.39 385.04 102.39 379.11 96.52 379.11 96.52 377.63 102.39 377.63 102.39 371.7 103.86 371.7 103.86 377.63 109.74 377.63 109.74 379.11 103.87 379.11 103.87 385.04 102.39 385.04"/><polygon class="d" points="134.57 385.04 134.57 379.11 128.7 379.11 128.7 377.63 134.57 377.63 134.57 371.7 136.04 371.7 136.04 377.63 141.91 377.63 141.91 379.11 136.04 379.11 136.04 385.04 134.57 385.04"/><polygon class="d" points="166.74 385.04 166.74 379.11 160.87 379.11 160.87 377.63 166.74 377.63 166.74 371.7 168.21 371.7 168.21 377.63 174.09 377.63 174.09 379.11 168.21 379.11 168.21 385.04 166.74 385.04"/><polygon class="d" points="198.91 385.04 198.91 379.11 193.04 379.11 193.04 377.63 198.91 377.63 198.91 371.7 200.39 371.7 200.39 377.63 206.26 377.63 206.26 379.11 200.39 379.11 200.39 385.04 198.91 385.04"/><polygon class="d" points="231.09 385.04 231.09 379.11 225.22 379.11 225.22 377.63 231.09 377.63 231.09 371.7 232.56 371.7 232.56 377.63 238.43 377.63 238.43 379.11 232.56 379.11 232.56 385.04 231.09 385.04"/><polygon class="d" points="263.26 385.04 263.26 379.11 257.39 379.11 257.39 377.63 263.26 377.63 263.26 371.7 264.73 371.7 264.73 377.63 270.61 377.63 270.61 379.11 264.74 379.11 264.74 385.04 263.26 385.04"/><polygon class="d" points="295.44 385.04 295.44 379.11 289.56 379.11 289.56 377.63 295.44 377.63 295.44 371.7 296.91 371.7 296.91 377.63 302.78 377.63 302.78 379.11 296.91 379.11 296.91 385.04 295.44 385.04"/><polygon class="d" points="327.61 385.04 327.61 379.11 321.74 379.11 321.74 377.63 327.61 377.63 327.61 371.7 329.08 371.7 329.08 377.63 334.96 377.63 334.96 379.11 329.08 379.11 329.08 385.04 327.61 385.04"/><polygon class="d" points="359.78 385.04 359.78 379.11 353.91 379.11 353.91 377.63 359.78 377.63 359.78 371.7 361.25 371.7 361.25 377.63 367.13 377.63 367.13 379.11 361.26 379.11 361.26 385.04 359.78 385.04"/><polygon class="d" points="391.96 385.04 391.96 379.11 386.09 379.11 386.09 377.63 391.96 377.63 391.96 371.7 393.43 371.7 393.43 377.63 399.3 377.63 399.3 379.11 393.43 379.11 393.43 385.04 391.96 385.04"/><polygon class="d" points="424.13 385.04 424.13 379.11 418.26 379.11 418.26 377.63 424.13 377.63 424.13 371.7 425.6 371.7 425.6 377.63 431.48 377.63 431.48 379.11 425.6 379.11 425.6 385.04 424.13 385.04"/><polygon class="d" points="456.3 385.04 456.3 379.11 450.43 379.11 450.43 377.63 456.3 377.63 456.3 371.7 457.78 371.7 457.78 377.63 463.65 377.63 463.65 379.11 457.78 379.11 457.78 385.04 456.3 385.04"/><polygon class="d" points="488.48 385.04 488.48 379.11 482.61 379.11 482.61 377.63 488.48 377.63 488.48 371.7 489.95 371.7 489.95 377.63 495.82 377.63 495.82 379.11 489.95 379.11 489.95 385.04 488.48 385.04"/><polygon class="d" points="520.65 385.04 520.65 379.11 514.78 379.11 514.78 377.63 520.65 377.63 520.65 371.7 522.12 371.7 522.12 377.63 528 377.63 528 379.11 522.13 379.11 522.13 385.04 520.65 385.04"/><polygon class="d" points="5.87 413.63 5.87 407.7 0 407.7 0 406.22 5.87 406.22 5.87 400.29 7.34 400.29 7.34 406.22 13.22 406.22 13.22 407.7 7.35 407.7 7.35 413.63 5.87 413.63"/><polygon class="d" points="38.05 413.63 38.05 407.7 32.17 407.7 32.17 406.22 38.05 406.22 38.05 400.29 39.52 400.29 39.52 406.22 45.39 406.22 45.39 407.7 39.52 407.7 39.52 413.63 38.05 413.63"/><polygon class="d" points="70.22 413.63 70.22 407.7 64.35 407.7 64.35 406.22 70.22 406.22 70.22 400.29 71.69 400.29 71.69 406.22 77.56 406.22 77.56 407.7 71.69 407.7 71.69 413.63 70.22 413.63"/><polygon class="d" points="102.39 413.63 102.39 407.7 96.52 407.7 96.52 406.22 102.39 406.22 102.39 400.29 103.86 400.29 103.86 406.22 109.74 406.22 109.74 407.7 103.87 407.7 103.87 413.63 102.39 413.63"/><polygon class="d" points="134.57 413.63 134.57 407.7 128.7 407.7 128.7 406.22 134.57 406.22 134.57 400.29 136.04 400.29 136.04 406.22 141.91 406.22 141.91 407.7 136.04 407.7 136.04 413.63 134.57 413.63"/><polygon class="d" points="166.74 413.63 166.74 407.7 160.87 407.7 160.87 406.22 166.74 406.22 166.74 400.29 168.21 400.29 168.21 406.22 174.09 406.22 174.09 407.7 168.21 407.7 168.21 413.63 166.74 413.63"/><polygon class="d" points="198.91 413.63 198.91 407.7 193.04 407.7 193.04 406.22 198.91 406.22 198.91 400.29 200.39 400.29 200.39 406.22 206.26 406.22 206.26 407.7 200.39 407.7 200.39 413.63 198.91 413.63"/><polygon class="d" points="231.09 413.63 231.09 407.7 225.22 407.7 225.22 406.22 231.09 406.22 231.09 400.29 232.56 400.29 232.56 406.22 238.43 406.22 238.43 407.7 232.56 407.7 232.56 413.63 231.09 413.63"/><polygon class="d" points="263.26 413.63 263.26 407.7 257.39 407.7 257.39 406.22 263.26 406.22 263.26 400.29 264.73 400.29 264.73 406.22 270.61 406.22 270.61 407.7 264.74 407.7 264.74 413.63 263.26 413.63"/><polygon class="d" points="295.44 413.63 295.44 407.7 289.56 407.7 289.56 406.22 295.44 406.22 295.44 400.29 296.91 400.29 296.91 406.22 302.78 406.22 302.78 407.7 296.91 407.7 296.91 413.63 295.44 413.63"/><polygon class="d" points="327.61 413.63 327.61 407.7 321.74 407.7 321.74 406.22 327.61 406.22 327.61 400.29 329.08 400.29 329.08 406.22 334.96 406.22 334.96 407.7 329.08 407.7 329.08 413.63 327.61 413.63"/><polygon class="d" points="359.78 413.63 359.78 407.7 353.91 407.7 353.91 406.22 359.78 406.22 359.78 400.29 361.25 400.29 361.25 406.22 367.13 406.22 367.13 407.7 361.26 407.7 361.26 413.63 359.78 413.63"/><polygon class="d" points="391.96 413.63 391.96 407.7 386.09 407.7 386.09 406.22 391.96 406.22 391.96 400.29 393.43 400.29 393.43 406.22 399.3 406.22 399.3 407.7 393.43 407.7 393.43 413.63 391.96 413.63"/><polygon class="d" points="424.13 413.63 424.13 407.7 418.26 407.7 418.26 406.22 424.13 406.22 424.13 400.29 425.6 400.29 425.6 406.22 431.48 406.22 431.48 407.7 425.6 407.7 425.6 413.63 424.13 413.63"/><polygon class="d" points="456.3 413.63 456.3 407.7 450.43 407.7 450.43 406.22 456.3 406.22 456.3 400.29 457.78 400.29 457.78 406.22 463.65 406.22 463.65 407.7 457.78 407.7 457.78 413.63 456.3 413.63"/><polygon class="d" points="488.48 413.63 488.48 407.7 482.61 407.7 482.61 406.22 488.48 406.22 488.48 400.29 489.95 400.29 489.95 406.22 495.82 406.22 495.82 407.7 489.95 407.7 489.95 413.63 488.48 413.63"/><polygon class="d" points="520.65 413.63 520.65 407.7 514.78 407.7 514.78 406.22 520.65 406.22 520.65 400.29 522.12 400.29 522.12 406.22 528 406.22 528 407.7 522.13 407.7 522.13 413.63 520.65 413.63"/><polygon class="d" points="5.87 442.22 5.87 436.29 0 436.29 0 434.81 5.87 434.81 5.87 428.88 7.34 428.88 7.34 434.81 13.22 434.81 13.22 436.29 7.35 436.29 7.35 442.22 5.87 442.22"/><polygon class="d" points="38.05 442.22 38.05 436.29 32.17 436.29 32.17 434.81 38.05 434.81 38.05 428.88 39.52 428.88 39.52 434.81 45.39 434.81 45.39 436.29 39.52 436.29 39.52 442.22 38.05 442.22"/><polygon class="d" points="70.22 442.22 70.22 436.29 64.35 436.29 64.35 434.81 70.22 434.81 70.22 428.88 71.69 428.88 71.69 434.81 77.56 434.81 77.56 436.29 71.69 436.29 71.69 442.22 70.22 442.22"/><polygon class="d" points="102.39 442.22 102.39 436.29 96.52 436.29 96.52 434.81 102.39 434.81 102.39 428.88 103.86 428.88 103.86 434.81 109.74 434.81 109.74 436.29 103.87 436.29 103.87 442.22 102.39 442.22"/><polygon class="d" points="134.57 442.22 134.57 436.29 128.7 436.29 128.7 434.81 134.57 434.81 134.57 428.88 136.04 428.88 136.04 434.81 141.91 434.81 141.91 436.29 136.04 436.29 136.04 442.22 134.57 442.22"/><polygon class="d" points="166.74 442.22 166.74 436.29 160.87 436.29 160.87 434.81 166.74 434.81 166.74 428.88 168.21 428.88 168.21 434.81 174.09 434.81 174.09 436.29 168.21 436.29 168.21 442.22 166.74 442.22"/><polygon class="d" points="198.91 442.22 198.91 436.29 193.04 436.29 193.04 434.81 198.91 434.81 198.91 428.88 200.39 428.88 200.39 434.81 206.26 434.81 206.26 436.29 200.39 436.29 200.39 442.22 198.91 442.22"/><polygon class="d" points="231.09 442.22 231.09 436.29 225.22 436.29 225.22 434.81 231.09 434.81 231.09 428.88 232.56 428.88 232.56 434.81 238.43 434.81 238.43 436.29 232.56 436.29 232.56 442.22 231.09 442.22"/><polygon class="d" points="263.26 442.22 263.26 436.29 257.39 436.29 257.39 434.81 263.26 434.81 263.26 428.88 264.73 428.88 264.73 434.81 270.61 434.81 270.61 436.29 264.74 436.29 264.74 442.22 263.26 442.22"/><polygon class="d" points="295.44 442.22 295.44 436.29 289.56 436.29 289.56 434.81 295.44 434.81 295.44 428.88 296.91 428.88 296.91 434.81 302.78 434.81 302.78 436.29 296.91 436.29 296.91 442.22 295.44 442.22"/><polygon class="d" points="327.61 442.22 327.61 436.29 321.74 436.29 321.74 434.81 327.61 434.81 327.61 428.88 329.08 428.88 329.08 434.81 334.96 434.81 334.96 436.29 329.08 436.29 329.08 442.22 327.61 442.22"/><polygon class="d" points="359.78 442.22 359.78 436.29 353.91 436.29 353.91 434.81 359.78 434.81 359.78 428.88 361.25 428.88 361.25 434.81 367.13 434.81 367.13 436.29 361.26 436.29 361.26 442.22 359.78 442.22"/><polygon class="d" points="391.96 442.22 391.96 436.29 386.09 436.29 386.09 434.81 391.96 434.81 391.96 428.88 393.43 428.88 393.43 434.81 399.3 434.81 399.3 436.29 393.43 436.29 393.43 442.22 391.96 442.22"/><polygon class="d" points="424.13 442.22 424.13 436.29 418.26 436.29 418.26 434.81 424.13 434.81 424.13 428.88 425.6 428.88 425.6 434.81 431.48 434.81 431.48 436.29 425.6 436.29 425.6 442.22 424.13 442.22"/><polygon class="d" points="456.3 442.22 456.3 436.29 450.43 436.29 450.43 434.81 456.3 434.81 456.3 428.88 457.78 428.88 457.78 434.81 463.65 434.81 463.65 436.29 457.78 436.29 457.78 442.22 456.3 442.22"/><polygon class="d" points="488.48 442.22 488.48 436.29 482.61 436.29 482.61 434.81 488.48 434.81 488.48 428.88 489.95 428.88 489.95 434.81 495.82 434.81 495.82 436.29 489.95 436.29 489.95 442.22 488.48 442.22"/><polygon class="d" points="520.65 442.22 520.65 436.29 514.78 436.29 514.78 434.81 520.65 434.81 520.65 428.88 522.12 428.88 522.12 434.81 528 434.81 528 436.29 522.13 436.29 522.13 442.22 520.65 442.22"/><polygon class="d" points="5.87 470.81 5.87 464.89 0 464.89 0 463.4 5.87 463.4 5.87 457.47 7.34 457.47 7.34 463.4 13.22 463.4 13.22 464.89 7.35 464.89 7.35 470.81 5.87 470.81"/><polygon class="d" points="38.05 470.81 38.05 464.89 32.17 464.89 32.17 463.4 38.05 463.4 38.05 457.47 39.52 457.47 39.52 463.4 45.39 463.4 45.39 464.89 39.52 464.89 39.52 470.81 38.05 470.81"/><polygon class="d" points="70.22 470.81 70.22 464.89 64.35 464.89 64.35 463.4 70.22 463.4 70.22 457.47 71.69 457.47 71.69 463.4 77.56 463.4 77.56 464.89 71.69 464.89 71.69 470.81 70.22 470.81"/><polygon class="d" points="102.39 470.81 102.39 464.89 96.52 464.89 96.52 463.4 102.39 463.4 102.39 457.47 103.86 457.47 103.86 463.4 109.74 463.4 109.74 464.89 103.87 464.89 103.87 470.81 102.39 470.81"/><polygon class="d" points="134.57 470.81 134.57 464.89 128.7 464.89 128.7 463.4 134.57 463.4 134.57 457.47 136.04 457.47 136.04 463.4 141.91 463.4 141.91 464.89 136.04 464.89 136.04 470.81 134.57 470.81"/><polygon class="d" points="166.74 470.81 166.74 464.89 160.87 464.89 160.87 463.4 166.74 463.4 166.74 457.47 168.21 457.47 168.21 463.4 174.09 463.4 174.09 464.89 168.21 464.89 168.21 470.81 166.74 470.81"/><polygon class="d" points="198.91 470.81 198.91 464.89 193.04 464.89 193.04 463.4 198.91 463.4 198.91 457.47 200.39 457.47 200.39 463.4 206.26 463.4 206.26 464.89 200.39 464.89 200.39 470.81 198.91 470.81"/><polygon class="d" points="231.09 470.81 231.09 464.89 225.22 464.89 225.22 463.4 231.09 463.4 231.09 457.47 232.56 457.47 232.56 463.4 238.43 463.4 238.43 464.89 232.56 464.89 232.56 470.81 231.09 470.81"/><polygon class="d" points="263.26 470.81 263.26 464.89 257.39 464.89 257.39 463.4 263.26 463.4 263.26 457.47 264.73 457.47 264.73 463.4 270.61 463.4 270.61 464.89 264.74 464.89 264.74 470.81 263.26 470.81"/><polygon class="d" points="295.44 470.81 295.44 464.89 289.56 464.89 289.56 463.4 295.44 463.4 295.44 457.47 296.91 457.47 296.91 463.4 302.78 463.4 302.78 464.89 296.91 464.89 296.91 470.81 295.44 470.81"/><polygon class="d" points="327.61 470.81 327.61 464.89 321.74 464.89 321.74 463.4 327.61 463.4 327.61 457.47 329.08 457.47 329.08 463.4 334.96 463.4 334.96 464.89 329.08 464.89 329.08 470.81 327.61 470.81"/><polygon class="d" points="359.78 470.81 359.78 464.89 353.91 464.89 353.91 463.4 359.78 463.4 359.78 457.47 361.25 457.47 361.25 463.4 367.13 463.4 367.13 464.89 361.26 464.89 361.26 470.81 359.78 470.81"/><polygon class="d" points="391.96 470.81 391.96 464.89 386.09 464.89 386.09 463.4 391.96 463.4 391.96 457.47 393.43 457.47 393.43 463.4 399.3 463.4 399.3 464.89 393.43 464.89 393.43 470.81 391.96 470.81"/><polygon class="d" points="424.13 470.81 424.13 464.89 418.26 464.89 418.26 463.4 424.13 463.4 424.13 457.47 425.6 457.47 425.6 463.4 431.48 463.4 431.48 464.89 425.6 464.89 425.6 470.81 424.13 470.81"/><polygon class="d" points="456.3 470.81 456.3 464.89 450.43 464.89 450.43 463.4 456.3 463.4 456.3 457.47 457.78 457.47 457.78 463.4 463.65 463.4 463.65 464.89 457.78 464.89 457.78 470.81 456.3 470.81"/><polygon class="d" points="488.48 470.81 488.48 464.89 482.61 464.89 482.61 463.4 488.48 463.4 488.48 457.47 489.95 457.47 489.95 463.4 495.82 463.4 495.82 464.89 489.95 464.89 489.95 470.81 488.48 470.81"/><polygon class="d" points="520.65 470.81 520.65 464.89 514.78 464.89 514.78 463.4 520.65 463.4 520.65 457.47 522.12 457.47 522.12 463.4 528 463.4 528 464.89 522.13 464.89 522.13 470.81 520.65 470.81"/><polygon class="d" points="5.87 499.41 5.87 493.48 0 493.48 0 491.99 5.87 491.99 5.87 486.07 7.34 486.07 7.34 491.99 13.22 491.99 13.22 493.48 7.35 493.48 7.35 499.41 5.87 499.41"/><polygon class="d" points="38.05 499.41 38.05 493.48 32.17 493.48 32.17 491.99 38.05 491.99 38.05 486.07 39.52 486.07 39.52 491.99 45.39 491.99 45.39 493.48 39.52 493.48 39.52 499.41 38.05 499.41"/><polygon class="d" points="70.22 499.41 70.22 493.48 64.35 493.48 64.35 491.99 70.22 491.99 70.22 486.07 71.69 486.07 71.69 491.99 77.56 491.99 77.56 493.48 71.69 493.48 71.69 499.41 70.22 499.41"/><polygon class="d" points="102.39 499.41 102.39 493.48 96.52 493.48 96.52 491.99 102.39 491.99 102.39 486.07 103.86 486.07 103.86 491.99 109.74 491.99 109.74 493.48 103.87 493.48 103.87 499.41 102.39 499.41"/><polygon class="d" points="134.57 499.41 134.57 493.48 128.7 493.48 128.7 491.99 134.57 491.99 134.57 486.07 136.04 486.07 136.04 491.99 141.91 491.99 141.91 493.48 136.04 493.48 136.04 499.41 134.57 499.41"/><polygon class="d" points="166.74 499.41 166.74 493.48 160.87 493.48 160.87 491.99 166.74 491.99 166.74 486.07 168.21 486.07 168.21 491.99 174.09 491.99 174.09 493.48 168.21 493.48 168.21 499.41 166.74 499.41"/><polygon class="d" points="198.91 499.41 198.91 493.48 193.04 493.48 193.04 491.99 198.91 491.99 198.91 486.07 200.39 486.07 200.39 491.99 206.26 491.99 206.26 493.48 200.39 493.48 200.39 499.41 198.91 499.41"/><polygon class="d" points="231.09 499.41 231.09 493.48 225.22 493.48 225.22 491.99 231.09 491.99 231.09 486.07 232.56 486.07 232.56 491.99 238.43 491.99 238.43 493.48 232.56 493.48 232.56 499.41 231.09 499.41"/><polygon class="d" points="263.26 499.41 263.26 493.48 257.39 493.48 257.39 491.99 263.26 491.99 263.26 486.07 264.73 486.07 264.73 491.99 270.61 491.99 270.61 493.48 264.74 493.48 264.74 499.41 263.26 499.41"/><polygon class="d" points="295.44 499.41 295.44 493.48 289.56 493.48 289.56 491.99 295.44 491.99 295.44 486.07 296.91 486.07 296.91 491.99 302.78 491.99 302.78 493.48 296.91 493.48 296.91 499.41 295.44 499.41"/><polygon class="d" points="327.61 499.41 327.61 493.48 321.74 493.48 321.74 491.99 327.61 491.99 327.61 486.07 329.08 486.07 329.08 491.99 334.96 491.99 334.96 493.48 329.08 493.48 329.08 499.41 327.61 499.41"/><polygon class="d" points="359.78 499.41 359.78 493.48 353.91 493.48 353.91 491.99 359.78 491.99 359.78 486.07 361.25 486.07 361.25 491.99 367.13 491.99 367.13 493.48 361.26 493.48 361.26 499.41 359.78 499.41"/><polygon class="d" points="391.96 499.41 391.96 493.48 386.09 493.48 386.09 491.99 391.96 491.99 391.96 486.07 393.43 486.07 393.43 491.99 399.3 491.99 399.3 493.48 393.43 493.48 393.43 499.41 391.96 499.41"/><polygon class="d" points="424.13 499.41 424.13 493.48 418.26 493.48 418.26 491.99 424.13 491.99 424.13 486.07 425.6 486.07 425.6 491.99 431.48 491.99 431.48 493.48 425.6 493.48 425.6 499.41 424.13 499.41"/><polygon class="d" points="456.3 499.41 456.3 493.48 450.43 493.48 450.43 491.99 456.3 491.99 456.3 486.07 457.78 486.07 457.78 491.99 463.65 491.99 463.65 493.48 457.78 493.48 457.78 499.41 456.3 499.41"/><polygon class="d" points="488.48 499.41 488.48 493.48 482.61 493.48 482.61 491.99 488.48 491.99 488.48 486.07 489.95 486.07 489.95 491.99 495.82 491.99 495.82 493.48 489.95 493.48 489.95 499.41 488.48 499.41"/><polygon class="d" points="520.65 499.41 520.65 493.48 514.78 493.48 514.78 491.99 520.65 491.99 520.65 486.07 522.12 486.07 522.12 491.99 528 491.99 528 493.48 522.13 493.48 522.13 499.41 520.65 499.41"/><polygon class="d" points="5.87 528 5.87 522.07 0 522.07 0 520.59 5.87 520.59 5.87 514.66 7.34 514.66 7.34 520.59 13.22 520.59 13.22 522.07 7.35 522.07 7.35 528 5.87 528"/><polygon class="d" points="38.05 528 38.05 522.07 32.17 522.07 32.17 520.59 38.05 520.59 38.05 514.66 39.52 514.66 39.52 520.59 45.39 520.59 45.39 522.07 39.52 522.07 39.52 528 38.05 528"/><polygon class="d" points="70.22 528 70.22 522.07 64.35 522.07 64.35 520.59 70.22 520.59 70.22 514.66 71.69 514.66 71.69 520.59 77.56 520.59 77.56 522.07 71.69 522.07 71.69 528 70.22 528"/><polygon class="d" points="102.39 528 102.39 522.07 96.52 522.07 96.52 520.59 102.39 520.59 102.39 514.66 103.86 514.66 103.86 520.59 109.74 520.59 109.74 522.07 103.87 522.07 103.87 528 102.39 528"/><polygon class="d" points="134.57 528 134.57 522.07 128.7 522.07 128.7 520.59 134.57 520.59 134.57 514.66 136.04 514.66 136.04 520.59 141.91 520.59 141.91 522.07 136.04 522.07 136.04 528 134.57 528"/><polygon class="d" points="166.74 528 166.74 522.07 160.87 522.07 160.87 520.59 166.74 520.59 166.74 514.66 168.21 514.66 168.21 520.59 174.09 520.59 174.09 522.07 168.21 522.07 168.21 528 166.74 528"/><polygon class="d" points="198.91 528 198.91 522.07 193.04 522.07 193.04 520.59 198.91 520.59 198.91 514.66 200.39 514.66 200.39 520.59 206.26 520.59 206.26 522.07 200.39 522.07 200.39 528 198.91 528"/><polygon class="d" points="231.09 528 231.09 522.07 225.22 522.07 225.22 520.59 231.09 520.59 231.09 514.66 232.56 514.66 232.56 520.59 238.43 520.59 238.43 522.07 232.56 522.07 232.56 528 231.09 528"/><polygon class="d" points="263.26 528 263.26 522.07 257.39 522.07 257.39 520.59 263.26 520.59 263.26 514.66 264.73 514.66 264.73 520.59 270.61 520.59 270.61 522.07 264.74 522.07 264.74 528 263.26 528"/><polygon class="d" points="295.44 528 295.44 522.07 289.56 522.07 289.56 520.59 295.44 520.59 295.44 514.66 296.91 514.66 296.91 520.59 302.78 520.59 302.78 522.07 296.91 522.07 296.91 528 295.44 528"/><polygon class="d" points="327.61 528 327.61 522.07 321.74 522.07 321.74 520.59 327.61 520.59 327.61 514.66 329.08 514.66 329.08 520.59 334.96 520.59 334.96 522.07 329.08 522.07 329.08 528 327.61 528"/><polygon class="d" points="359.78 528 359.78 522.07 353.91 522.07 353.91 520.59 359.78 520.59 359.78 514.66 361.25 514.66 361.25 520.59 367.13 520.59 367.13 522.07 361.26 522.07 361.26 528 359.78 528"/><polygon class="d" points="391.96 528 391.96 522.07 386.09 522.07 386.09 520.59 391.96 520.59 391.96 514.66 393.43 514.66 393.43 520.59 399.3 520.59 399.3 522.07 393.43 522.07 393.43 528 391.96 528"/><polygon class="d" points="424.13 528 424.13 522.07 418.26 522.07 418.26 520.59 424.13 520.59 424.13 514.66 425.6 514.66 425.6 520.59 431.48 520.59 431.48 522.07 425.6 522.07 425.6 528 424.13 528"/><polygon class="d" points="456.3 528 456.3 522.07 450.43 522.07 450.43 520.59 456.3 520.59 456.3 514.66 457.78 514.66 457.78 520.59 463.65 520.59 463.65 522.07 457.78 522.07 457.78 528 456.3 528"/><polygon class="d" points="488.48 528 488.48 522.07 482.61 522.07 482.61 520.59 488.48 520.59 488.48 514.66 489.95 514.66 489.95 520.59 495.82 520.59 495.82 522.07 489.95 522.07 489.95 528 488.48 528"/><polygon class="d" points="520.65 528 520.65 522.07 514.78 522.07 514.78 520.59 520.65 520.59 520.65 514.66 522.12 514.66 522.12 520.59 528 520.59 528 522.07 522.13 522.07 522.13 528 520.65 528"/></g></g></g></svg>